<svg xmlns="http://www.w3.org/2000/svg" xmlns:xlink="http://www.w3.org/1999/xlink" width="160" height="48" viewBox="0 0 160 48">
    <defs>
        <path id="a" d="M0 .07h47.381v47.64H.001z"/>
    </defs>
    <g fill="none" fill-rule="evenodd">
        <path fill="#FFF" d="M155.57 31.176c.651 0 1.015-.34 1.015-.838 0-.549-.391-.81-1.014-.81h-1.224v1.648h1.224zm-1.953-1.937c0-.209.158-.366.365-.366h1.666c.937 0 1.691.497 1.691 1.414 0 .707-.441 1.203-1.092 1.413l.99 1.178c.102.13.13.209.13.314a.33.33 0 0 1-.34.34c-.155 0-.26-.078-.364-.21l-1.275-1.544h-1.041v1.387c0 .21-.156.367-.365.367a.358.358 0 0 1-.365-.367V29.24zm5.702 2.016v-.026c0-2.225-1.72-4.057-4.008-4.057-2.266 0-4.01 1.858-4.01 4.083v.026c0 2.225 1.719 4.057 4.01 4.057 2.263 0 4.008-1.859 4.008-4.083zm-8.539.026v-.026c0-2.487 2.005-4.58 4.53-4.58 2.55 0 4.53 2.068 4.53 4.554v.026c0 2.486-2.006 4.58-4.53 4.58-2.55 0-4.53-2.067-4.53-4.554zM55.875 33.337v-.086c0-.991.343-1.638 1.158-2.5l12.046-13.794H58.405c-1.2 0-2.144-.948-2.144-2.112 0-1.206.943-2.155 2.144-2.155h14.918c1.415 0 2.487.862 2.487 2.07v.128c0 .992-.343 1.639-1.115 2.5l-12.09 13.794h11.147c1.2 0 2.143.948 2.143 2.155a2.12 2.12 0 0 1-2.143 2.112H58.405c-1.458 0-2.53-.905-2.53-2.112"/>
        <path fill="#FFF" d="M91.243 22.475c-.343-3.362-2.315-5.991-5.744-5.991-3.173 0-5.402 2.457-5.874 5.99h11.618zm-5.144 13.491c-6.56 0-11.618-4.784-11.618-11.81v-.086c0-6.509 4.587-11.854 11.06-11.854 7.202 0 10.76 5.948 10.76 11.207 0 1.466-1.114 2.5-2.443 2.5h-14.19c.557 3.707 3.173 5.776 6.516 5.776 2.186 0 3.901-.776 5.359-1.983.386-.301.729-.474 1.329-.474 1.158 0 2.058.905 2.058 2.112 0 .647-.3 1.207-.686 1.595-2.058 1.854-4.63 3.017-8.145 3.017zM96.944 33.165c-.557-.302-.985-.949-.985-1.81 0-1.165.9-2.113 2.1-2.113.429 0 .815.13 1.115.302 2.186 1.466 4.458 2.198 6.516 2.198 2.23 0 3.515-.948 3.515-2.457V29.2c0-1.767-2.4-2.37-5.058-3.19-3.344-.948-7.074-2.327-7.074-6.68v-.087c0-4.31 3.558-6.94 8.06-6.94 2.4 0 4.93.69 7.116 1.854.729.388 1.243 1.077 1.243 1.983 0 1.207-.943 2.112-2.143 2.112-.429 0-.686-.086-1.03-.259-1.843-.948-3.729-1.552-5.315-1.552-2.015 0-3.172.949-3.172 2.242v.086c0 1.681 2.443 2.37 5.1 3.233 3.302 1.034 7.032 2.543 7.032 6.637v.087c0 4.785-3.687 7.155-8.403 7.155-2.872 0-6.002-.905-8.617-2.715M148.302 12.432c-1.329 0-2.057.905-2.486 1.983l-5.659 15.129-6.088-15.13c-.744-1.825-2.99-1.724-3.693-1.724h-9.379l1.155-.693V8.81a2.587 2.587 0 0 0-2.572-2.586 2.596 2.596 0 0 0-2.616 2.586v3.88h-.857a2.22 2.22 0 0 0-2.23 2.24 2.22 2.22 0 0 0 2.23 2.242h.857v11.983c0 5 2.701 6.681 6.517 6.681 1.372 0 2.443-.216 3.558-.603.729-.302 1.372-1.078 1.372-2.026 0-1.207-1.03-2.156-2.187-2.156-.171 0-.685.13-1.286.13-1.758 0-2.786-.82-2.786-2.845V17.173h9.596l-1.624.976 7.547 16.956-.172.473c-.857 1.768-1.672 2.414-3.215 2.414-.729 0-1.2-.129-1.8-.302a2.631 2.631 0 0 0-.944-.172c-1.114 0-2.1.862-2.1 2.155 0 1.25.857 1.897 1.628 2.156 1.072.43 2.144.646 3.602.646 3.644 0 5.701-1.724 7.63-6.38l8.274-19.956c.086-.259.215-.82.215-1.25 0-1.38-1.115-2.457-2.487-2.457"/>
        <g transform="translate(0 .221)">
            <mask id="b" fill="#fff">
                <use xlink:href="#a"/>
            </mask>
            <path fill="#FFF" d="M19.386 33.62c-.237 0-.736.215-1.762 1.246-.708.71-1.905 2.55-1.905 4.938v4.136c0 1.035.837 1.877 1.866 1.877h12.211c1.03 0 1.867-.842 1.867-1.877v-8.266c0-2.078 1.681-3.77 3.748-3.77h8.222c1.03 0 1.866-.841 1.866-1.876V17.75a1.874 1.874 0 0 0-1.866-1.876h-8.222c-2.067 0-3.748-1.69-3.748-3.769V3.838a1.874 1.874 0 0 0-1.867-1.876H17.585c-1.03 0-1.866.841-1.866 1.876v8.267c0 2.078-1.682 3.769-3.749 3.769H3.748c-1.029 0-1.866.842-1.866 1.876v12.278c0 1.035.837 1.877 1.866 1.877h4.543c1.554 0 2.66-.637 4.055-1.537 1.041-.672 1.66-1.407 1.655-1.966-.005-.617-.818-1.213-1.303-1.513a2.843 2.843 0 0 1-1.305-2.535c.043-.678.404-1.945 2.324-2.814 3.104-1.405 14.208-5.484 14.679-5.657.505-.185 1.051-.357 1.625-.357.743 0 1.202.305 1.456.56.973.979.414 2.519.203 3.1-.016.045-1.867 5.232-5.405 14.245-.283.721-1.143 2.914-2.995 2.914-1.286 0-2.3-1.055-3.203-2.195-.191-.242-.467-.53-.69-.53m10.409 14.09H17.585c-2.067 0-3.748-1.691-3.748-3.77v-4.136c0-2.812 1.324-5.139 2.457-6.277 1.273-1.278 2.17-1.8 3.092-1.8.792 0 1.5.407 2.163 1.244.78.984 1.362 1.482 1.73 1.482.277 0 .75-.45 1.246-1.716 3.525-8.982 5.367-14.144 5.386-14.195.274-.758.261-1.023.233-1.112a.514.514 0 0 0-.123-.012c-.32 0-.765.164-.98.242-.114.042-11.51 4.23-14.552 5.605-.757.343-1.19.773-1.219 1.211-.022.34.198.668.416.803 1.447.897 2.186 1.942 2.197 3.106.014 1.602-1.363 2.828-2.521 3.576-1.557 1.004-3.013 1.836-5.071 1.836H3.748C1.681 33.797 0 32.107 0 30.028V17.75c0-2.078 1.681-3.768 3.748-3.768h8.222c1.03 0 1.867-.842 1.867-1.877V3.838c0-2.078 1.681-3.769 3.748-3.769h12.211c2.067 0 3.748 1.69 3.748 3.77v8.266c0 1.035.838 1.877 1.867 1.877h8.222c2.067 0 3.748 1.69 3.748 3.768v12.278c0 2.078-1.681 3.769-3.748 3.769h-8.222c-1.03 0-1.867.842-1.867 1.877v8.266c0 2.079-1.681 3.77-3.748 3.77" mask="url(#b)"/>
        </g>
    </g>
</svg>
