<?xml version="1.0" encoding="utf-8"?>
<!-- Generator: Adobe Illustrator 21.0.2, SVG Export Plug-In . SVG Version: 6.00 Build 0)  -->
<svg version="1.1" id="Layer_1" xmlns="http://www.w3.org/2000/svg" xmlns:xlink="http://www.w3.org/1999/xlink" x="0px" y="0px"
	 viewBox="0 0 1190.5 841.9" style="enable-background:new 0 0 1190.5 841.9;" xml:space="preserve">
<style type="text/css">
	.st0{fill:#FFFFFF;}
</style>
<g>
	<path class="st0" d="M199.2,354.5c-36.4,0-66,29.6-66,66s29.6,66,66,66s66.1-29.6,66.1-66S235.7,354.5,199.2,354.5z M186.3,377.6
		h26v19.2l-13.1,12.9l-12.9-12.9L186.3,377.6L186.3,377.6z M242.1,433.4h-29.9v30.1h-26v-30.1h-29.9v-26h29.9l12.9,12.9l12.9-12.9
		H242v26H242.1z"/>
	<polygon class="st0" points="666.8,365 666.8,431.5 684.5,449.8 666.8,468 666.8,474.9 688.4,474.9 688.4,365 	"/>
	<path class="st0" d="M287.8,393.7h20.7v9c6-7.5,13.5-11.4,22.5-11.4c10.3,0,17.4,3.6,22.6,11.9c5.7-7.8,13.5-11.9,23.1-11.9
		c16.2,0,26.7,10.1,26.7,26.8v56.8h-21.4v-52.4c0-7.9-4.6-12.4-12.1-12.4c-8.3,0-13.7,5.8-13.7,15.4v49.3h-21.2v-52.2
		c0-8.1-4.4-12.5-11.8-12.5c-8.2,0-13.7,5.8-13.7,15.6v49.2h-21.4v-81.2H287.8z"/>
	<path class="st0" d="M486.5,450.4c-4.4,16.9-18.3,27.4-37.6,27.4c-23.1,0-38.2-16.5-38.2-43.9c0-26.7,14.6-43,37.9-43
		c24.9,0,39,15.6,39,43.6c0,1.8,0,3.6-0.1,5.7h-54.3c0.6,12.6,6.2,19.3,16.8,19.3c7.4,0,12.1-2.8,14.9-9H486.5z M465,425.8
		c-0.3-11-6-16.8-16.1-16.8c-9.3,0-15,5.8-16,16.8H465z"/>
	<path class="st0" d="M571.6,474.9h-20.7v-11c-6.2,9.4-13.7,13.7-24.3,13.7c-19.7,0-33.6-16.9-33.6-43c0-26.8,14.4-43.7,33.3-43.7
		c10.4,0,18.9,4.4,24.2,12.9V365h21.1V474.9z M532.7,459c11.5,0,17.8-8.6,17.8-25.3c0-15.4-6.7-24-18.2-24c-10.7,0-17.6,8.9-17.6,24
		C514.7,450.4,521.1,459,532.7,459z"/>
	<path class="st0" d="M702.4,365h21.7v19.7h-21.7V365z M702.4,393.7h21.7v81.2h-21.7V393.7z"/>
	<path class="st0" d="M737.4,393.7h21.2v9.6c6.1-7.8,14.4-11.8,24.6-11.8c17.9,0,26.8,9.3,26.8,28.1v55.4h-21.7v-49.2
		c0-11-3.2-16.2-12.5-16.2c-10.1,0-16.7,6.4-16.7,17.1v48.2h-21.7v-81.1H737.4z"/>
	<path class="st0" d="M823.1,365h21.1v57.6l25.8-28.9h26.1l-28.3,30.1l30,51.1h-26l-19.4-34.6l-8.2,8.9v25.7h-21.1L823.1,365
		L823.1,365z"/>
	<path class="st0" d="M971.3,450.4c-4.4,16.9-18.3,27.4-37.6,27.4c-23.1,0-38.2-16.5-38.2-43.9c0-26.7,14.6-43,37.9-43
		c24.9,0,39,15.6,39,43.6c0,1.8,0,3.6-0.1,5.7H918c0.6,12.6,6.2,19.3,16.8,19.3c7.4,0,12.1-2.8,14.9-9H971.3z M949.9,425.8
		c-0.3-11-6-16.8-16.1-16.8c-9.3,0-15,5.8-16,16.8H949.9z"/>
	<path class="st0" d="M1057,474.9h-20.7v-11c-6.2,9.4-13.7,13.7-24.3,13.7c-19.7,0-33.6-16.9-33.6-43c0-26.8,14.4-43.7,33.3-43.7
		c10.4,0,18.9,4.4,24.2,12.9V365h21.1V474.9z M1018.1,459c11.5,0,17.8-8.6,17.8-25.3c0-15.4-6.7-24-18.2-24
		c-10.7,0-17.6,8.9-17.6,24C1000,450.4,1006.6,459,1018.1,459z"/>
	<path class="st0" d="M619,459.4L619,459.4c-7.6-0.4-12.6-4.6-14.6-12.2l0,0c0,0,0,0,0-0.1c-0.6-2.1-0.8-4.4-1-6.9l0,0
		c-0.4-6-0.1-12.1,0-14.2l0,0c1-11,6.5-16.8,16-16.8c10.1,0,15.7,5.8,16.1,16.8h-24.9c0,12.1,7.8,13.9,11.1,14.2H658
		c0.1-1.9,0.1-3.7,0.1-5.6c0-28.1-14.2-43.6-39-43.6c-23.5,0-37.9,16.4-37.9,43c0,27.4,15.1,43.9,38.2,43.9c15.6,0,27.6-6.8,34-18.3
		H619V459.4z"/>
</g>
</svg>
