<?xml version="1.0" encoding="utf-8"?>
<!-- Generator: Adobe Illustrator 21.0.2, SVG Export Plug-In . SVG Version: 6.00 Build 0)  -->
<svg version="1.1" id="Layer_1" xmlns="http://www.w3.org/2000/svg" xmlns:xlink="http://www.w3.org/1999/xlink" x="0px" y="0px"
	 viewBox="0 0 1190.5 841.9" style="enable-background:new 0 0 1190.5 841.9;" xml:space="preserve">
<style type="text/css">
	.st0{fill:#FFFFFF;}
</style>
<g>
	<g>
		<g>
			<path class="st0" d="M311.9,261.3l-19.8-42v45.8h-15.2v-79.8h16.3l24.9,53.2l24.9-53.2h16.3v79.8H344v-45.8l-19.8,42H311.9z"/>
			<path class="st0" d="M428.6,265.1h-56.2v-79.8h56.2v15.2h-41v18.9h37.4v15.1h-37.4v16.1h41V265.1z"/>
			<path class="st0" d="M471.3,185.3c23.4,0,35.2,11.5,35.2,40c0,27.9-11.2,39.8-35.2,39.8h-30v-79.8H471.3z M491.3,223.6
				c0-14.2-5.4-23.1-19.5-23.1h-15.2v50.1h15.4c14.2,0,19.4-10.7,19.4-24.8V223.6z"/>
			<path class="st0" d="M517.3,185.3h15.2v79.8h-15.2V185.3z"/>
			<path class="st0" d="M547.5,185.3h15.2v65.3h43.7v14.5h-58.9V185.3z"/>
			<path class="st0" d="M611.9,228.5v-3c0-28.6,9.7-41,35.2-41c26.1,0,35.5,12.4,35.5,41v3c0,29.2-11.3,37.3-35.8,37.3
				C623.5,265.8,611.9,257.8,611.9,228.5z M627.1,220.9v11.2c0,14.5,7.2,19.4,19.7,19.4c13.6,0,20.6-4.9,20.6-19.4v-11.2
				c0-13.9-5.8-21.5-20.6-21.5C633.1,199.5,627.1,207.1,627.1,220.9z"/>
			<path class="st0" d="M729.4,220.6h29.4V260l0.1,0.4c-2.8,1-5.8,1.9-9.1,2.7c-5.8,1.3-13.4,2.7-21.8,2.7
				c-25.8,0-35.8-12.7-35.8-41c0-28.2,11.8-40.3,35.8-40.3c7.9,0,15.7,1.3,21.5,3c3.3,0.9,6.4,1.8,9.4,2.8l-4.8,13.9
				c-10-4.3-17.7-4.8-26.5-4.8c-14.3,0-20.1,10.1-20.1,24v3c0,14.2,6.1,25,20.3,25c5.2,0,10.4-0.4,15.8-1.8v-14.8h-14.2V220.6z"/>
			<path class="st0" d="M770.4,185.3h15.2v79.8h-15.2V185.3z"/>
			<path class="st0" d="M856.1,265.1l-25.5-38l-14.9,14v24h-15.2v-79.8h15.2v35c12.5-11.8,25.2-23.6,37.7-35h22.4l-33.9,31.2
				l32.5,48.6H856.1z"/>
		</g>
	</g>
	<g>
		<path class="st0" d="M296,410.7c4.5-10.5,12.4-18.1,26.3-18.1c7.7,0,13.4,2.2,17.6,6.7c2.8,3,4.8,6.1,6.3,11.4H296z M322.3,374.3
			c-33,0-46.9,31.1-49.1,54.7h92.9C366.6,408.1,357.9,374.3,322.3,374.3"/>
		<path class="st0" d="M414.7,468.4H273.2c1.3,39.3,30.8,57.9,65.1,57.9c24.7,0,42.1-4.1,58.6-10.1l7.8,38.6
			c-18.3,8.3-43.4,14.3-73.8,14.3C262.4,569.1,222,524.5,222,456c0-62.1,35.6-120.5,103.3-120.5c68.6,0,91.1,59.8,91.1,109
			C416.5,455.1,415.6,463.1,414.7,468.4 M410.7,360.9c-13.4-20-39.2-43.7-85.4-43.7c-37,0-68.2,15.1-90.4,43.6
			c-19.5,25-30.2,58.9-30.2,95.2c0,79.9,49.6,131.5,126.3,131.5c38,0,64.8-8.6,80.6-15.8l13.1-5.9l-14.9-73.6l-18.4,6.7
			c-13.1,4.7-28.6,9.1-53,9.1c-13.6,0-34.4-2.9-43.4-21.3h134.3l2.6-15c0.8-4.4,2-13.7,2-27.2C433.8,412.7,425.6,383,410.7,360.9"/>
		<path class="st0" d="M869.2,503.3c0-15.2-10.1-22.5-36.2-32.6c-13.5-4.8-20.4-10.6-34.3-17.2v21.7c13.9,4.6,18.1,9,28.6,12.7
			c23.2,9,23.9,12.5,23.9,15.3c0,5.7-10.1,7-17.6,7c-10.5,0-20.9-3.6-34.8-8v19.6c13.9,3.9,24.3,6.8,35.2,6.8
			C857.3,528.6,869.2,518.1,869.2,503.3"/>
		<path class="st0" d="M870.3,413.4c-19.1-7.5-24.4-11.2-25.4-12.9c0,0-0.1-0.3-0.1-1.1c0-5.2,9.4-5.6,12.2-5.6
			c15.5,0,29.8,6.4,35.8,10.2l19.3,12.3l21-76.5l-12.1-7.1c-17-9.9-40.6-15.6-64.8-15.6c-30.9,0-56.7,10.6-74,28.4
			c3,5.6,5.8,11.6,8.1,18c13.6-17.2,36.4-28.2,65.8-28.2c23.4,0,43.8,6,56.4,13.3l-10.9,39.6c-8.7-5.5-26-12.9-44.7-12.9
			c-19.1,0-29.5,10.1-29.5,23.9c0,14.3,10,20.7,36.9,31.3c38.6,14.2,56,34.9,56.4,68c0,40.9-31.4,70.4-87.4,70.4
			c-11.8,0-20.9-1.4-34.8-3.8v18.7c13.9,2.2,23.4,3.4,34.8,3.4c62.7,0,104-34.8,104-89C936.7,444.5,899.1,424.1,870.3,413.4"/>
		<path class="st0" d="M683.4,317.1c-21.2,0-38.3,5.1-54.5,16.2c-5.5,3.6-10.8,7.7-15.6,12.5C598.1,327.7,575.5,317,550,317
			c-23.2,0-41,5.8-54.6,15.2l-0.9-11.9h-77.2c5.7,7,10.9,13.9,15.7,20.9h45.2l2.7,31.4h1.4c10.3-17.4,30.2-38,67.6-38
			c28.9,0,51.4,17.1,60.9,41.5h0.9c7.7-13.9,16.7-21.2,26.6-27.6c12.6-8.7,26.8-13.1,45.3-13.1c36.1,0,73.2,25.5,73.2,97.2v131.6
			h-55.7V440.8c0-37.3-12-59.3-38.6-59.3c-19,0-32.9,13.8-38.8,29.9c-1.8,5.1-2.7,12.4-2.7,18.9v133.9h-52.3V434.8
			c0-31.3-12.8-53.3-38.5-53.3c-20.7,0-35.9,16.5-41.3,31.7c-1.8,6-3.8,12.4-3.8,18.9v132.1h-30.4l3.8,20.9H506v-153
			c0-4.5-0.1-8.9,1-12.9c1.3-3.3,8.5-19.3,23.7-19.3c13.4,0,20.5,11.8,20.5,35v150.2h87.1V430.2c0-5.3,1.3-10.3,2-12.4
			c3.2-8.7,10.6-18,22.2-18c5.9,0,21.1,0,21.1,41v144.2h90.6V432.5C774.3,347.4,725.3,317.1,683.4,317.1"/>
	</g>
	<g>
		<path class="st0" d="M223.8,622.1H240v3.8h-11.8V637h11.3v3.8h-11.3v12.4h12.5v3.8h-16.9V622.1z"/>
		<path class="st0" d="M246.9,622.1h5.4l13.1,28.8h0.1v-28.8h4.2V657h-5.4l-13.1-28.6h-0.1V657h-4.2V622.1z"/>
		<path class="st0" d="M277,622.1h7.6c4.6,0,7.3,1.1,9.3,2.5c3.1,2.1,6.4,6.5,6.4,14.4c0,10.1-4.8,18-17.9,18H277V622.1z
			 M281.4,653.2h2.6c7.7,0,11.7-5.2,11.7-14.2c0-7.3-3.1-13.1-11.7-13.1h-2.6V653.2z"/>
		<path class="st0" d="M317.7,621.8c7.7,0,12.7,6.6,12.7,17.4c0,12-4.8,18.1-13.1,18.1c-7.7,0-12.7-6.6-12.7-17.4
			C304.7,627.9,309.5,621.8,317.7,621.8z M317.3,653.7c4.6,0,8.5-3.8,8.5-14.5c0-7-2.2-13.8-8.1-13.8c-4.6,0-8.5,3.8-8.5,14.5
			C309.3,647,311.5,653.7,317.3,653.7z"/>
		<path class="st0" d="M351,627.2c-1.6-1-3.8-1.6-5.9-1.6c-3.3,0-5.4,2.2-5.4,5.2c0,2.2,0.9,3.6,5.9,6.5c5.4,3.1,7.2,6.1,7.2,10.1
			c0,5.5-3.4,9.9-10.1,9.9c-2.8,0-5.4-0.6-7.3-1.5v-4.5c2,1.2,4.6,2.2,6.6,2.2c3.9,0,6.2-2.6,6.2-5.5c0-2.7-0.7-4.2-5.4-7.1
			c-6.3-3.8-7.7-5.9-7.7-10.4c0-5.7,4.4-8.7,9.7-8.7c2.3,0,4.7,0.5,6.3,1.1V627.2z"/>
		<path class="st0" d="M379.4,656.3c-2.1,0.6-4.3,1-6.3,1c-11,0-15.7-8.4-15.7-17.8c0-10.9,6.3-17.7,15.4-17.7c2.5,0,5,0.4,6.6,1.2
			v4.3c-1.9-1.2-4.1-1.7-6.5-1.7c-5.7,0-10.9,4.5-10.9,13c0,9,3.6,14.9,11.2,14.9c2.2,0,4.4-0.6,6.2-1.6V656.3z"/>
		<path class="st0" d="M397.3,621.8c7.7,0,12.7,6.6,12.7,17.4c0,12-4.8,18.1-13.1,18.1c-7.7,0-12.7-6.6-12.7-17.4
			C384.2,627.9,389,621.8,397.3,621.8z M396.9,653.7c4.6,0,8.5-3.8,8.5-14.5c0-7-2.2-13.8-8.1-13.8c-4.6,0-8.5,3.8-8.5,14.5
			C388.8,647,391,653.7,396.9,653.7z"/>
		<path class="st0" d="M416.2,622.1h8.4c3.5,0,5.7,1,7.5,2.7c1.7,1.7,2.7,4.1,2.7,7.2c0,6.8-3.9,10.4-11.3,10.4h-2.9V657h-4.4V622.1
			z M420.6,638.8h2.4c5.3,0,7.3-2.5,7.3-6.4c0-4.8-2.7-6.7-7.2-6.7h-2.5V638.8z"/>
		<path class="st0" d="M447.1,642.4l-10.4-20.2h5l7.7,15.4l7.7-15.4h4.8l-10.4,20.2V657h-4.4V642.4z"/>
		<path class="st0" d="M478,622.1h6.8l8.7,27.7h0.1l8.9-27.7h6.6V657H505v-30.1h-0.1L495,657h-3.2l-9.5-30.1h-0.1V657H478V622.1z"/>
		<path class="st0" d="M529.9,622.1l11.4,34.8h-4.6l-2.8-9.1h-13.3l-2.8,9.1h-4.4l11.7-34.8H529.9z M532.7,644.1l-5.3-17.4h-0.1
			l-5.5,17.4H532.7z"/>
		<path class="st0" d="M545.5,622.1h5.4l13.1,28.8h0.1v-28.8h4.2V657h-5.4l-13.1-28.6h-0.1V657h-4.2V622.1z"/>
		<path class="st0" d="M589.1,622.1l11.4,34.8h-4.6l-2.8-9.1h-13.3L577,657h-4.4l11.7-34.8H589.1z M591.9,644.1l-5.3-17.4h-0.1
			l-5.5,17.4H591.9z"/>
		<path class="st0" d="M626.7,655.5c-2,0.7-5.5,1.8-8.6,1.8c-11,0-15.7-8.4-15.7-17.8c0-10.9,6.3-17.7,15.4-17.7
			c3,0,5.8,0.4,8.2,1.5v4.4c-2.6-1.3-5.6-2.1-8.1-2.1c-5.7,0-10.9,4.5-10.9,13c0,9,3.6,14.9,11.2,14.9c1.4,0,3.2-0.4,4.3-0.9v-11
			h-5.8v-3.8h10V655.5z"/>
		<path class="st0" d="M634.4,622.1h16.2v3.8h-11.8V637H650v3.8h-11.3v12.4h12.5v3.8h-16.9V622.1z"/>
		<path class="st0" d="M657.5,622.1h6.8l8.7,27.7h0.1l8.9-27.7h6.6V657h-4.2v-30.1h-0.1l-9.9,30.1h-3.2l-9.5-30.1h-0.1V657h-4.2
			V622.1z"/>
		<path class="st0" d="M696.3,622.1h16.2v3.8h-11.8V637H712v3.8h-11.3v12.4h12.5v3.8h-16.9V622.1z"/>
		<path class="st0" d="M719.4,622.1h5.4l13.1,28.8h0.1v-28.8h4.2V657h-5.4l-13.1-28.6h-0.1V657h-4.2V622.1z"/>
		<path class="st0" d="M755,625.9h-8v-3.8h20.4v3.8h-8V657H755V625.9z"/>
		<path class="st0" d="M798.5,627.2c-1.6-1-3.8-1.6-5.9-1.6c-3.3,0-5.4,2.2-5.4,5.2c0,2.2,0.9,3.6,5.9,6.5c5.4,3.1,7.2,6.1,7.2,10.1
			c0,5.5-3.4,9.9-10.1,9.9c-2.8,0-5.4-0.6-7.3-1.5v-4.5c2,1.2,4.6,2.2,6.6,2.2c3.9,0,6.2-2.6,6.2-5.5c0-2.7-0.7-4.2-5.4-7.1
			c-6.3-3.8-7.7-5.9-7.7-10.4c0-5.7,4.4-8.7,9.7-8.7c2.3,0,4.7,0.5,6.3,1.1V627.2z"/>
		<path class="st0" d="M813.2,642.4l-10.4-20.2h5l7.7,15.4l7.7-15.4h4.8l-10.4,20.2V657h-4.4V642.4z"/>
		<path class="st0" d="M844.7,627.2c-1.6-1-3.8-1.6-5.9-1.6c-3.3,0-5.4,2.2-5.4,5.2c0,2.2,0.9,3.6,5.9,6.5c5.4,3.1,7.2,6.1,7.2,10.1
			c0,5.5-3.4,9.9-10.1,9.9c-2.8,0-5.4-0.6-7.3-1.5v-4.5c2,1.2,4.6,2.2,6.6,2.2c3.9,0,6.2-2.6,6.2-5.5c0-2.7-0.7-4.2-5.4-7.1
			c-6.3-3.8-7.7-5.9-7.7-10.4c0-5.7,4.4-8.7,9.7-8.7c2.3,0,4.7,0.5,6.3,1.1V627.2z"/>
		<path class="st0" d="M857.5,625.9h-8v-3.8h20.4v3.8h-8V657h-4.4V625.9z"/>
		<path class="st0" d="M874.6,622.1h16.2v3.8H879V637h11.3v3.8H879v12.4h12.5v3.8h-16.9V622.1z"/>
		<path class="st0" d="M897.7,622.1h6.8l8.7,27.7h0.1l8.9-27.7h6.6V657h-4.2v-30.1h-0.1l-9.9,30.1h-3.2l-9.5-30.1h-0.1V657h-4.2
			V622.1z"/>
	</g>
	<g>
		<path class="st0" d="M951,330.2h-6.4v-2.6h15.8v2.6h-6.4v18H951V330.2z"/>
		<path class="st0" d="M963.3,327.6h4.9l6.5,17.1l6.3-17.1h4.9v20.6h-2.9v-17.8h-0.1l-6.8,17.8h-2.9l-6.8-17.8h-0.1v17.8h-3V327.6z"
			/>
	</g>
</g>
</svg>
