<?xml version="1.0" encoding="utf-8"?>
<!-- Generator: Adobe Illustrator 21.0.2, SVG Export Plug-In . SVG Version: 6.00 Build 0)  -->
<svg version="1.1" id="Layer_1" xmlns="http://www.w3.org/2000/svg" xmlns:xlink="http://www.w3.org/1999/xlink" x="0px" y="0px"
	 viewBox="0 0 1190.5 841.9" style="enable-background:new 0 0 1190.5 841.9;" xml:space="preserve">
<style type="text/css">
	.st0{fill:#FFFFFF;}
	.st1{filter:url(#Adobe_OpacityMaskFilter);}
	.st2{mask:url(#b_1_);fill:#FFFFFF;}
</style>
<g>
	<path class="st0" d="M1101.7,468.3c4.4,0,6.8-2.3,6.8-5.6c0-3.7-2.6-5.4-6.8-5.4h-8.2v11H1101.7L1101.7,468.3z M1088.6,455.3
		c0-1.4,1.1-2.5,2.4-2.5h11.2c6.3,0,11.3,3.3,11.3,9.5c0,4.7-3,8.1-7.3,9.5l6.6,7.9c0.7,0.9,0.9,1.4,0.9,2.1c0,1.2-0.9,2.2-2.1,2.3
		c0,0-0.1,0-0.1,0c-1,0-1.7-0.5-2.4-1.4l-8.5-10.3h-7v9.3c0,1.4-1,2.5-2.4,2.5c-1.3,0-2.4-1-2.4-2.3c0,0,0-0.1,0-0.1L1088.6,455.3
		L1088.6,455.3z M1126.8,468.8v-0.2c0-14.9-11.5-27.2-26.8-27.2c-15.2,0-26.8,12.4-26.8,27.3v0.2c0,14.9,11.5,27.2,26.8,27.2
		C1115.1,496.1,1126.8,483.7,1126.8,468.8z M1069.7,469v-0.2c0-16.7,13.4-30.7,30.3-30.7c17.1,0,30.3,13.8,30.3,30.5v0.2
		c0,16.6-13.4,30.7-30.3,30.7C1082.9,499.4,1069.7,485.6,1069.7,469z M434.3,482.7v-0.6c0-6.6,2.3-11,7.8-16.7l80.6-92.4h-71.5
		c-8,0-14.4-6.3-14.4-14.1c0-8.1,6.3-14.4,14.4-14.4h99.9c9.5,0,16.7,5.8,16.7,13.9v0.9c0,6.6-2.3,11-7.5,16.7l-80.9,92.4H554
		c8,0,14.3,6.3,14.3,14.4c0,7.8-6.4,14.2-14.2,14.1c0,0-0.1,0-0.1,0H451.2C441.4,496.9,434.3,490.8,434.3,482.7"/>
	<path class="st0" d="M671.1,410c-2.3-22.5-15.5-40.1-38.5-40.1c-21.2,0-36.2,16.4-39.3,40.1L671.1,410L671.1,410z M636.6,500.3
		c-43.9,0-77.8-32-77.8-79.1v-0.6c0-43.6,30.7-79.4,74-79.4c48.2,0,72,39.8,72,75c0,9.8-7.5,16.7-16.4,16.7h-95
		c3.7,24.8,21.2,38.7,43.6,38.7c14.6,0,26.1-5.2,35.9-13.3c2.6-2,4.9-3.2,8.9-3.2c7.8,0,13.8,6.1,13.8,14.1c0,4.3-2,8.1-4.6,10.7
		C677.4,492.5,660.2,500.3,636.6,500.3z M709.2,481.6c-3.7-2-6.6-6.4-6.6-12.1c0-7.8,6-14.1,14.1-14.1c2.9,0,5.5,0.9,7.5,2
		c14.6,9.8,29.8,14.7,43.6,14.7c14.9,0,23.5-6.3,23.5-16.4V455c0-11.8-16.1-15.9-33.9-21.4c-22.4-6.3-47.4-15.6-47.4-44.7v-0.6
		c0-28.9,23.8-46.5,54-46.5c16.1,0,33,4.6,47.6,12.4c4.9,2.6,8.3,7.2,8.3,13.3c0,8.1-6.3,14.1-14.3,14.1c-2.9,0-4.6-0.6-6.9-1.7
		c-12.3-6.3-25-10.4-35.6-10.4c-13.5,0-21.2,6.4-21.2,15v0.6c0,11.3,16.4,15.9,34.1,21.6c22.1,6.9,47.1,17,47.1,44.4v0.6
		c0,32-24.7,47.9-56.3,47.9C747.7,499.8,726.7,493.7,709.2,481.6 M1053.1,342.8c-8.9,0-13.8,6.1-16.6,13.3l-37.9,101.3L957.8,356
		c-5-12.2-20-11.5-24.7-11.5h-62.8l7.7-4.6v-21.3c0-9.5-7.7-17.3-17.2-17.3c-9.6-0.1-17.4,7.6-17.5,17.2c0,0,0,0,0,0.1v26h-5.7
		c-8.2,0-14.9,6.6-14.9,14.8c0,0.1,0,0.1,0,0.2c-0.1,8.2,6.5,14.9,14.7,15c0.1,0,0.1,0,0.2,0h5.7v80.2c0,33.5,18.1,44.7,43.6,44.7
		c9.2,0,16.4-1.4,23.8-4c4.9-2,9.2-7.2,9.2-13.6c0-8.1-6.9-14.4-14.6-14.4c-1.1,0-4.6,0.9-8.6,0.9c-11.8,0-18.7-5.5-18.7-19v-74.7
		h64.2l-10.9,6.5l50.5,113.5l-1.2,3.2c-5.7,11.8-11.2,16.2-21.5,16.2c-4.9,0-8-0.9-12.1-2c-2-0.8-4.2-1.2-6.3-1.2
		c-7.5,0-14.1,5.8-14.1,14.4c0,8.4,5.7,12.7,10.9,14.4c7.2,2.9,14.4,4.3,24.1,4.3c24.4,0,38.2-11.5,51.1-42.7l55.4-133.6
		c0.6-1.7,1.4-5.5,1.4-8.4C1069.7,350,1062.2,342.8,1053.1,342.8"/>
	<g transform="translate(0 .221)">
		<defs>
			<filter id="Adobe_OpacityMaskFilter" filterUnits="userSpaceOnUse" x="60.2" y="261.3" width="317.2" height="319">
				<feColorMatrix  type="matrix" values="1 0 0 0 0  0 1 0 0 0  0 0 1 0 0  0 0 0 1 0"/>
			</filter>
		</defs>
		<mask maskUnits="userSpaceOnUse" x="60.2" y="261.3" width="317.2" height="319" id="b_1_">
			<g class="st1">
				<path id="a_1_" class="st0" d="M60.2,261.3h317.2v318.9H60.2L60.2,261.3z"/>
			</g>
		</mask>
		<path class="st2" d="M190,485.9c-1.6,0-4.9,1.4-11.8,8.3c-4.7,4.8-12.8,17.1-12.8,33.1V555c0,6.9,5.6,12.6,12.5,12.6h81.8
			c6.9,0,12.5-5.6,12.5-12.6v-55.3c0-13.9,11.3-25.2,25.1-25.2h55c6.9,0,12.5-5.6,12.5-12.6v-82.2c0-6.9-5.6-12.5-12.5-12.6h-55
			c-13.8,0-25.1-11.3-25.1-25.2v-55.3c0-6.9-5.6-12.5-12.5-12.6h-81.8c-6.9,0-12.5,5.6-12.5,12.6v55.3c0,13.9-11.3,25.2-25.1,25.2
			h-55c-6.9,0-12.5,5.6-12.5,12.6v82.2c0,6.9,5.6,12.6,12.5,12.6h30.4c10.4,0,17.8-4.3,27.1-10.3c7-4.5,11.1-9.4,11.1-13.2
			c0-4.1-5.5-8.1-8.7-10.1c-5.7-3.7-9.1-10.2-8.7-17c0.3-4.5,2.7-13,15.6-18.8c20.8-9.4,95.1-36.7,98.3-37.9c3.4-1.2,7-2.4,10.9-2.4
			c5,0,8,2,9.7,3.7c6.5,6.6,2.8,16.9,1.4,20.8c-0.1,0.3-12.5,35-36.2,95.4c-1.9,4.8-7.7,19.5-20.1,19.5c-8.6,0-15.4-7.1-21.4-14.7
			C193.3,487.8,191.5,485.9,190,485.9 M259.7,580.2h-81.8c-13.8,0-25.1-11.3-25.1-25.2v-27.7c0-18.8,8.9-34.4,16.4-42
			c8.5-8.6,14.5-12.1,20.7-12.1c5.3,0,10,2.7,14.5,8.3c5.2,6.6,9.1,9.9,11.6,9.9c1.9,0,5-3,8.3-11.5c23.6-60.1,35.9-94.7,36.1-95
			c1.8-5.1,1.7-6.8,1.6-7.4c-0.3-0.1-0.5-0.1-0.8-0.1c-2.1,0-5.1,1.1-6.6,1.6c-0.8,0.3-77.1,28.3-97.4,37.5c-5.1,2.3-8,5.2-8.2,8.1
			c-0.1,2.3,1.3,4.5,2.8,5.4c9.7,6,14.6,13,14.7,20.8c0.1,10.7-9.1,18.9-16.9,23.9c-10.4,6.7-20.2,12.3-34,12.3H85.3
			c-13.8,0-25.1-11.3-25.1-25.2v-82.2c0-13.9,11.3-25.2,25.1-25.2h55c6.9,0,12.5-5.6,12.5-12.6v-55.3c0-13.9,11.3-25.2,25.1-25.2
			h81.8c13.8,0,25.1,11.3,25.1,25.2v55.3c0,6.9,5.6,12.6,12.5,12.6h55c13.8,0,25.1,11.3,25.1,25.2v82.2c0,13.9-11.3,25.2-25.1,25.2
			h-55c-6.9,0-12.5,5.6-12.5,12.6V555C284.8,568.9,273.5,580.2,259.7,580.2"/>
	</g>
</g>
</svg>
