<?xml version="1.0" encoding="utf-8"?>
<!-- Generator: Adobe Illustrator 21.0.2, SVG Export Plug-In . SVG Version: 6.00 Build 0)  -->
<svg version="1.1" id="Layer_1" xmlns="http://www.w3.org/2000/svg" xmlns:xlink="http://www.w3.org/1999/xlink" x="0px" y="0px"
	 viewBox="0 0 1920 1080" style="enable-background:new 0 0 1920 1080;" xml:space="preserve">
<style type="text/css">
	.st0{display:none;}
	.st1{display:inline;}
	.st2{display:inline;clip-path:url(#SVGID_2_);}
	.st3{clip-path:url(#SVGID_4_);}
	.st4{clip-path:url(#SVGID_6_);}
	.st5{clip-path:url(#SVGID_8_);}
	.st6{clip-path:url(#SVGID_10_);}
	.st7{clip-path:url(#SVGID_12_);}
</style>
<g class="st0">
	<path class="st1" d="M979.2,233.9l-2.2,46.8c-1.5,31.2-3,62.3-4.4,93.3c-0.3,7.3-1.7,16.5-8.9,23.8c-2,2-4.4,3.7-7.1,5.2
		c-4.1,2.2-7.9,3.2-11.8,3.2c-9.3,0-15.4-6.1-19.7-10.5l-37-36.8L561.3,685.7c-7.9,7.8-18.2,12.2-29.4,12.2
		c-11.1,0-21.6-4.4-29.4-12.2L372.4,555.6L236.2,691.8c-7.8,7.8-18.1,12.1-29.2,12.1c-11.1,0-21.6-4.4-29.4-12.1l-7.8-7.8
		c-16.2-16.2-16.2-42.4,0-58.6l173.3-173.2c7.8-7.8,18.1-12.1,29.2-12.1s21.6,4.4,29.4,12.1l130.1,130.1l289.6-289.8
		c-8.4-8.3-16.9-16.7-25.2-25.1l-12-12.2c-4.7-4.7-14.7-14.7-7.6-30c1.3-3,3-5.6,5.2-7.8c6.9-6.9,15.7-7.3,22.1-7.6
		c47.9-2.2,95.7-4.6,143.6-6.7h2.7c9.4,0,16.9,2.7,21.8,7.9C977.5,216.5,979.7,224.1,979.2,233.9 M213.4,752.9
		c21.8-1.5,42-10.6,57.9-26.3l74.8-74.8V886c0,8.3-6.8,14.8-14.9,14.8H228.3c-8.3,0-14.9-6.7-14.9-14.8L213.4,752.9L213.4,752.9z
		 M397.4,650.1l70.7,70.7c16.5,16.5,38.5,25.8,61.9,26.3V886c0,8.3-6.7,14.8-14.9,14.8h-103c-8.3,0-14.8-6.7-14.8-14.8V650.1H397.4z
		 M581.4,732.4c5.2-3.4,10.1-7.3,14.7-11.8l118-118V886c0,8.3-6.8,14.8-14.9,14.8h-103c-8.3,0-14.9-6.7-14.9-14.8V732.4H581.4z
		 M765.3,551.2L888,428.5l2.2,2.2c1.9,1.7,4.4,4.2,7.8,7.1V886c0,8.3-6.7,14.8-14.9,14.8h-103c-8.3,0-14.9-6.7-14.9-14.8V551.2
		H765.3z M2569.4-89H-485.4v1234h3054.8L2569.4-89L2569.4-89z"/>
</g>
<g class="st0">
	<defs>
		<rect id="SVGID_1_" x="-620.8" y="-0.3" width="3241.5" height="1080.5"/>
	</defs>
	<clipPath id="SVGID_2_" class="st1">
		<use xlink:href="#SVGID_1_"  style="overflow:visible;"/>
	</clipPath>
	<g class="st2">
		<defs>
			<rect id="SVGID_3_" x="-620.8" y="-0.3" width="3241.5" height="1080.5"/>
		</defs>
		<clipPath id="SVGID_4_">
			<use xlink:href="#SVGID_3_"  style="overflow:visible;"/>
		</clipPath>
		<g class="st3">
			<g>
				<defs>
					<rect id="SVGID_5_" x="-637" y="-12.9" width="3273.9" height="1094.9"/>
				</defs>
				<clipPath id="SVGID_6_">
					<use xlink:href="#SVGID_5_"  style="overflow:visible;"/>
				</clipPath>
				<path class="st4" d="M317.6,417.7c0-22.8-18.5-41.3-41.3-41.3c-22.8,0-41.3,18.5-41.3,41.3c0,22.8,18.5,41.3,41.3,41.3
					C299.1,459.1,317.6,440.5,317.6,417.7 M660.5,708.6c0-51.4-41.8-93.3-93.3-93.3c-51.4,0-93.3,41.9-93.3,93.3
					c0,51.4,41.8,93.3,93.3,93.3C618.6,801.9,660.5,760.1,660.5,708.6 M827.1,729c0,17.5-14.3,31.8-31.8,31.8h-24.9
					c-6.7,0-14.6,6.1-17.1,13.3c-2.4,6.7-5.1,13.4-8.3,19.8c-3.3,6.9-2.1,16.7,2.7,21.4l17.7,17.7c12.4,12.4,12.4,32.6,0,45
					l-28.8,28.8c-6,6-14,9.3-22.5,9.3c-8.5,0-16.5-3.3-22.5-9.3l-17.7-17.7c-2.8-2.9-7.6-4.5-12.7-4.5c-3.1,0-6.2,0.7-8.7,1.9
					c-6.4,3.1-13.1,5.9-19.8,8.3c-7.2,2.6-13.3,10.4-13.3,17.1v24.9c0,17.5-14.3,31.8-31.8,31.8h-40.7c-17.5,0-31.8-14.3-31.8-31.8
					v-24.9c0-6.7-6.1-14.6-13.3-17.1c-6.7-2.4-13.4-5.2-19.8-8.3c-2.5-1.2-5.6-1.9-8.7-1.9c-5.1,0-9.8,1.7-12.7,4.6l-17.7,17.7
					c-6,6-14,9.3-22.5,9.3c-8.5,0-16.5-3.3-22.5-9.3L369,878.1c-12.4-12.4-12.4-32.6,0-45l17.7-17.7c4.8-4.8,6-14.6,2.7-21.4
					c-3.1-6.4-5.9-13.1-8.3-19.8c-2.6-7.2-10.4-13.3-17.1-13.3h-24.9c-17.5,0-31.8-14.3-31.8-31.8v-40.7c0-17.5,14.3-31.8,31.8-31.8
					h24.9c6.7,0,14.6-6.1,17.1-13.3c2.4-6.7,5.2-13.3,8.3-19.8c3.3-6.9,2.1-16.7-2.7-21.4L369,584.2c-6-6-9.3-14-9.3-22.5
					c0-8.5,3.3-16.5,9.3-22.5l28.8-28.8c6-6,14-9.3,22.5-9.3c8.5,0,16.5,3.3,22.5,9.3l17.7,17.7c2.8,2.9,7.6,4.6,12.7,4.6
					c3.1,0,6.2-0.7,8.7-1.9c6.4-3.1,13.1-5.9,19.8-8.3c7.2-2.6,13.3-10.4,13.3-17.1v-24.9c0-17.5,14.3-31.8,31.8-31.8h40.7
					c17.6,0,31.8,14.3,31.8,31.8v24.9c0,6.7,6.1,14.6,13.3,17.1c6.7,2.4,13.4,5.2,19.8,8.3c2.6,1.2,5.6,1.9,8.8,1.9
					c5.1,0,9.8-1.7,12.7-4.5l17.7-17.7c6-6,14-9.3,22.5-9.3c8.5,0,16.5,3.3,22.5,9.3l28.7,28.8c12.4,12.4,12.4,32.6,0,45L747.6,602
					c-4.8,4.8-6,14.6-2.7,21.4c3.1,6.4,5.9,13.1,8.3,19.8c2.6,7.2,10.4,13.3,17.1,13.3h24.9c17.5,0,31.8,14.3,31.8,31.8V729z
					 M411.6,427.9c0,11.7-9.5,21.2-21.2,21.2h-12.5c-1,0-3,1.4-3.6,3.1c-1.3,3.5-2.7,7-4.4,10.4c-0.8,1.6-0.4,4,0.3,4.7l8.9,8.8
					c8.3,8.3,8.3,21.7,0,30l-14.4,14.4c-4,4-9.3,6.2-15,6.2c-5.7,0-11-2.2-15-6.2l-8.9-8.9c-0.3-0.3-1.2-0.7-2.6-0.7
					c-0.8,0-1.5,0.2-2.1,0.4c-3.4,1.6-6.9,3.1-10.4,4.3c-1.7,0.6-3.1,2.6-3.1,3.6v12.5c0,11.7-9.5,21.2-21.2,21.2h-20.3
					c-11.7,0-21.2-9.5-21.2-21.2v-12.5c0-0.9-1.4-3-3.1-3.6c-3.5-1.2-7-2.7-10.4-4.3c-0.5-0.3-1.3-0.4-2.1-0.4
					c-1.4,0-2.3,0.4-2.6,0.7l-8.9,8.9c-4,4-9.3,6.2-15,6.2c-5.7,0-11-2.2-15-6.2l-14.4-14.4c-4-4-6.2-9.3-6.2-15s2.2-11,6.2-15
					l8.9-8.9c0.7-0.7,1.1-3.1,0.3-4.6c-1.6-3.4-3.1-6.9-4.4-10.4c-0.6-1.7-2.6-3.1-3.6-3.1h-12.4c-11.7,0-21.2-9.5-21.2-21.2v-20.3
					c0-11.7,9.5-21.2,21.2-21.2h12.5c0.9,0,3-1.4,3.6-3.1c1.2-3.5,2.7-7,4.4-10.4c0.8-1.6,0.4-4-0.3-4.6l-8.9-8.9
					c-8.3-8.3-8.3-21.7,0-30l14.4-14.4c4-4,9.3-6.2,15-6.2c5.7,0,11,2.2,15,6.2l8.9,8.8c0.3,0.3,1.2,0.7,2.6,0.7
					c0.8,0,1.5-0.2,2.1-0.4c3.4-1.6,6.9-3.1,10.4-4.4c1.7-0.6,3.1-2.6,3.1-3.6v-12.5c0-11.7,9.5-21.2,21.2-21.2h20.3
					c11.7,0,21.2,9.5,21.2,21.2v12.5c0,0.9,1.4,3,3.1,3.6c3.5,1.2,7,2.7,10.4,4.4c0.6,0.3,1.3,0.4,2.1,0.4c1.4,0,2.3-0.5,2.6-0.7
					l8.8-8.8c4-4,9.3-6.2,15-6.2c5.7,0,11,2.2,15,6.2l14.4,14.4c8.3,8.3,8.3,21.7,0,30l-8.9,8.9c-0.7,0.7-1.1,3.1-0.3,4.6
					c1.6,3.4,3.1,6.9,4.4,10.4c0.6,1.7,2.6,3.1,3.6,3.1h12.5c11.7,0,21.2,9.5,21.2,21.2V427.9z M2620.8-0.3H-620.8v1080.5h3241.5
					V-0.3z"/>
			</g>
		</g>
	</g>
</g>
<g>
	<defs>
		<rect id="SVGID_7_" x="-620.8" width="3241.5" height="1080.5"/>
	</defs>
	<clipPath id="SVGID_8_">
		<use xlink:href="#SVGID_7_"  style="overflow:visible;"/>
	</clipPath>
	<g class="st5">
		<defs>
			<rect id="SVGID_9_" x="-620.8" width="3241.5" height="1080.5"/>
		</defs>
		<clipPath id="SVGID_10_">
			<use xlink:href="#SVGID_9_"  style="overflow:visible;"/>
		</clipPath>
		<g class="st6">
			<g>
				<defs>
					<rect id="SVGID_11_" x="-637" y="-12.6" width="3273.9" height="1094.9"/>
				</defs>
				<clipPath id="SVGID_12_">
					<use xlink:href="#SVGID_11_"  style="overflow:visible;"/>
				</clipPath>
				<path class="st7" d="M431.4,396.1c0-15.6-12.6-28.4-28.4-28.4c-100.2,0-181.8,81.4-181.8,181.8c0,15.6,12.6,28.4,28.4,28.4
					c15.6,0,28.4-12.6,28.4-28.4c0-69,56.2-125,125-125C418.8,424.5,431.4,411.9,431.4,396.1 M654.9,548.7
					c0,68-26.9,129.6-70.7,174.9c-33.3,34.5-54.7,78.5-61.9,125.4c-3.2,20.2-20.6,35.1-41.3,35.1H324.7c-20.4,0-38.1-14.7-41-34.9
					c-7.4-46.9-29-91.5-62.3-125.8c-42.9-44.6-69.7-105.2-70.3-171.9c-1.5-140.2,110.1-253.6,250.2-254.6
					C541.3,295.7,654.9,409,654.9,548.7 M2620.8,1080.5V0H-620.8v1080.5h987.1c-15.4,0-28.6-10.3-32.6-25l-7.1-27.1
					c-22.9-3.6-40.4-23.2-40.4-47.1v-29.9c0-16,12.8-28.8,28.8-28.8h175.7c16,0.2,28.8,13.1,28.8,29v29.9
					c0,23.8-17.5,43.6-40.2,46.9l-7.4,27.1c-4,14.7-17.3,25-32.6,25H2620.8z"/>
			</g>
		</g>
	</g>
</g>
</svg>
