<?xml version="1.0" encoding="utf-8"?>
<!-- Generator: Adobe Illustrator 21.0.2, SVG Export Plug-In . SVG Version: 6.00 Build 0)  -->
<svg version="1.1" id="Layer_1" xmlns="http://www.w3.org/2000/svg" xmlns:xlink="http://www.w3.org/1999/xlink" x="0px" y="0px"
	 viewBox="0 0 1920 1080" style="enable-background:new 0 0 1920 1080;" xml:space="preserve">
<style type="text/css">
	.st0{fill:#000000;}
</style>
<g>
	<path class="st0" d="M979.2,233.9l-2.2,46.8c-1.5,31.2-3,62.3-4.4,93.3c-0.3,7.3-1.7,16.5-8.9,23.8c-2,2-4.4,3.7-7.1,5.2
		c-4.1,2.2-7.9,3.2-11.8,3.2c-9.3,0-15.4-6.1-19.7-10.5l-37-36.8L561.3,685.7c-7.9,7.8-18.2,12.2-29.4,12.2
		c-11.1,0-21.6-4.4-29.4-12.2L372.4,555.6L236.2,691.8c-7.8,7.8-18.1,12.1-29.2,12.1c-11.1,0-21.6-4.4-29.4-12.1l-7.8-7.8
		c-16.2-16.2-16.2-42.4,0-58.6l173.3-173.2c7.8-7.8,18.1-12.1,29.2-12.1c11.1,0,21.6,4.4,29.4,12.1l130.1,130.1l289.6-289.8
		c-8.4-8.3-16.9-16.7-25.2-25.1l-12-12.2c-4.7-4.7-14.7-14.7-7.6-30c1.3-3,3-5.6,5.2-7.8c6.9-6.9,15.7-7.3,22.1-7.6
		c47.9-2.2,95.7-4.6,143.6-6.7h2.7c9.4,0,16.9,2.7,21.8,7.9C977.5,216.5,979.7,224.1,979.2,233.9 M213.4,752.9
		c21.8-1.5,42-10.6,57.9-26.3l74.8-74.8V886c0,8.3-6.8,14.8-14.9,14.8H228.3c-8.3,0-14.9-6.7-14.9-14.8V752.9z M397.4,650.1
		l70.7,70.7c16.5,16.5,38.5,25.8,61.9,26.3V886c0,8.3-6.7,14.8-14.9,14.8h-103c-8.3,0-14.8-6.7-14.8-14.8V650.1z M581.4,732.4
		c5.2-3.4,10.1-7.3,14.7-11.8l118-118V886c0,8.3-6.8,14.8-14.9,14.8h-103c-8.3,0-14.9-6.7-14.9-14.8V732.4z M765.3,551.2L888,428.5
		l2.2,2.2c1.9,1.7,4.4,4.2,7.8,7.1V886c0,8.3-6.7,14.8-14.9,14.8h-103c-8.3,0-14.9-6.7-14.9-14.8V551.2z M2569.4-89H-485.4v1234
		h3054.8V-89z"/>
</g>
</svg>
