<?xml version="1.0" encoding="utf-8"?>
<!-- Generator: Adobe Illustrator 21.0.2, SVG Export Plug-In . SVG Version: 6.00 Build 0)  -->
<svg version="1.1" id="Layer_1" xmlns="http://www.w3.org/2000/svg" xmlns:xlink="http://www.w3.org/1999/xlink" x="0px" y="0px"
	 viewBox="0 0 619 320" style="enable-background:new 0 0 619 320;" xml:space="preserve">
<style type="text/css">
	.st0{fill:#B6B4DF;}
	.st1{fill:url(#SVGID_1_);}
	.st2{fill:url(#SVGID_2_);}
	.st3{fill:url(#SVGID_3_);}
	.st4{fill:url(#SVGID_4_);}
	.st5{fill:url(#SVGID_5_);}
	.st6{fill:url(#SVGID_6_);}
	.st7{fill:url(#SVGID_7_);}
	.st8{fill:url(#SVGID_8_);}
	.st9{fill:url(#SVGID_9_);}
	.st10{fill:url(#SVGID_10_);}
	.st11{fill:url(#SVGID_11_);}
	.st12{fill:url(#SVGID_12_);}
	.st13{fill:#EB6852;}
	.st14{fill:#9AB9AD;}
	.st15{fill:#A4C6D3;}
</style>
<g>
	<path class="st0" d="M112.3,284c0.1-1.1,0.1-2.8,0.1-4.2v-19.9h3v10.3h0.1c1.1-1.8,3-3,5.6-3c4.1,0,7,3.4,6.9,8.4
		c0,5.9-3.7,8.8-7.4,8.8c-2.4,0-4.3-0.9-5.5-3.1h-0.1l-0.1,2.7H112.3z M115.4,277.4c0,0.4,0.1,0.7,0.1,1.1c0.6,2.1,2.3,3.5,4.5,3.5
		c3.1,0,5-2.5,5-6.3c0-3.3-1.7-6.1-4.9-6.1c-2,0-3.9,1.4-4.6,3.7c-0.1,0.3-0.2,0.7-0.2,1.2V277.4z"/>
	<path class="st0" d="M131.8,259.9h3V284h-3V259.9z"/>
	<path class="st0" d="M154.7,275.6c0,6.1-4.2,8.7-8.2,8.7c-4.5,0-7.9-3.3-7.9-8.5c0-5.5,3.6-8.7,8.2-8.7
		C151.5,267.2,154.7,270.6,154.7,275.6z M141.7,275.8c0,3.6,2.1,6.3,5,6.3c2.9,0,5-2.7,5-6.4c0-2.8-1.4-6.3-4.9-6.3
		C143.2,269.4,141.7,272.7,141.7,275.8z"/>
	<path class="st0" d="M172.7,267.5c-0.1,1.2-0.1,2.5-0.1,4.5v9.6c0,3.8-0.7,6.1-2.3,7.5c-1.6,1.5-3.9,2-6,2c-2,0-4.1-0.5-5.5-1.4
		l0.7-2.3c1.1,0.7,2.8,1.3,4.8,1.3c3.1,0,5.3-1.6,5.3-5.7v-1.8h-0.1c-0.9,1.5-2.7,2.8-5.2,2.8c-4.1,0-7-3.5-7-8
		c0-5.6,3.6-8.7,7.4-8.7c2.9,0,4.4,1.5,5.1,2.9h0.1l0.1-2.5H172.7z M169.6,274c0-0.5,0-1-0.2-1.4c-0.5-1.7-2-3.2-4.2-3.2
		c-2.9,0-4.9,2.4-4.9,6.2c0,3.2,1.6,5.9,4.9,5.9c1.8,0,3.5-1.2,4.1-3.1c0.2-0.5,0.2-1.1,0.2-1.6V274z"/>
	<path class="st0" d="M191.7,267.5c-0.1,1.2-0.1,2.5-0.1,4.5v9.6c0,3.8-0.7,6.1-2.3,7.5c-1.6,1.5-3.9,2-6,2c-2,0-4.1-0.5-5.5-1.4
		l0.7-2.3c1.1,0.7,2.8,1.3,4.8,1.3c3.1,0,5.3-1.6,5.3-5.7v-1.8h-0.1c-0.9,1.5-2.7,2.8-5.2,2.8c-4.1,0-7-3.5-7-8
		c0-5.6,3.6-8.7,7.4-8.7c2.9,0,4.4,1.5,5.1,2.9h0.1l0.1-2.5H191.7z M188.6,274c0-0.5,0-1-0.2-1.4c-0.5-1.7-2-3.2-4.2-3.2
		c-2.9,0-4.9,2.4-4.9,6.2c0,3.2,1.6,5.9,4.9,5.9c1.8,0,3.5-1.2,4.1-3.1c0.2-0.5,0.2-1.1,0.2-1.6V274z"/>
	<path class="st0" d="M199.7,262.9c0,1-0.7,1.8-1.9,1.8c-1.1,0-1.8-0.8-1.8-1.8c0-1.1,0.8-1.9,1.9-1.9
		C198.9,261.1,199.7,261.9,199.7,262.9z M196.3,284v-16.5h3V284H196.3z"/>
	<path class="st0" d="M204.3,272c0-1.7,0-3.1-0.1-4.5h2.7l0.2,2.7h0.1c0.8-1.6,2.7-3.1,5.4-3.1c2.3,0,5.8,1.4,5.8,7v9.8h-3v-9.5
		c0-2.7-1-4.9-3.8-4.9c-2,0-3.5,1.4-4,3.1c-0.1,0.4-0.2,0.9-0.2,1.4v9.9h-3V272z"/>
	<path class="st0" d="M237.3,267.5c-0.1,1.2-0.1,2.5-0.1,4.5v9.6c0,3.8-0.7,6.1-2.3,7.5c-1.6,1.5-3.9,2-6,2c-2,0-4.1-0.5-5.5-1.4
		l0.7-2.3c1.1,0.7,2.8,1.3,4.8,1.3c3.1,0,5.3-1.6,5.3-5.7v-1.8h-0.1c-0.9,1.5-2.7,2.8-5.2,2.8c-4.1,0-7-3.5-7-8
		c0-5.6,3.6-8.7,7.4-8.7c2.9,0,4.4,1.5,5.1,2.9h0.1l0.1-2.5H237.3z M234.2,274c0-0.5,0-1-0.2-1.4c-0.5-1.7-2-3.2-4.2-3.2
		c-2.9,0-4.9,2.4-4.9,6.2c0,3.2,1.6,5.9,4.9,5.9c1.8,0,3.5-1.2,4.1-3.1c0.2-0.5,0.2-1.1,0.2-1.6V274z"/>
</g>
<g>
	<linearGradient id="SVGID_1_" gradientUnits="userSpaceOnUse" x1="115" y1="155.8627" x2="486" y2="155.8627">
		<stop  offset="0" style="stop-color:#EB6852"/>
		<stop  offset="0.3232" style="stop-color:#B6B4DF"/>
		<stop  offset="0.676" style="stop-color:#A4C6D3"/>
		<stop  offset="1" style="stop-color:#9AB9AD"/>
	</linearGradient>
	<path class="st1" d="M142.6,138.5v23c0,7.3-5.2,12-13.2,12c-4,0-7.5-1.2-10.6-3.4l2.4-4c2.4,1.8,4.9,2.8,8,2.8c4.8,0,8-2.8,8-7.2
		v-3.2c-1.7,2.8-4.6,4.3-8.4,4.3c-6.9,0-11.5-5-11.5-12.3c0-7.2,4.6-12.1,11.3-12.1c3.9,0,6.9,1.5,8.6,4.3v-4.1H142.6z M137.1,150.6
		c0-4.6-3-7.8-7.3-7.8c-4.4,0-7.4,3.3-7.4,7.8c0,4.6,3,7.9,7.4,7.9C134.1,158.4,137.1,155.2,137.1,150.6z"/>
	<linearGradient id="SVGID_2_" gradientUnits="userSpaceOnUse" x1="115" y1="151.1348" x2="486" y2="151.1348">
		<stop  offset="0" style="stop-color:#EB6852"/>
		<stop  offset="0.3232" style="stop-color:#B6B4DF"/>
		<stop  offset="0.676" style="stop-color:#A4C6D3"/>
		<stop  offset="1" style="stop-color:#9AB9AD"/>
	</linearGradient>
	<path class="st2" d="M164.6,138.3v5.3c-5.1-0.3-8.4,2.7-8.8,7.1V164h-5.5v-25.5h5.5v5.1C157.5,140.1,160.6,138.3,164.6,138.3z"/>
	<linearGradient id="SVGID_3_" gradientUnits="userSpaceOnUse" x1="115" y1="151.2305" x2="486" y2="151.2305">
		<stop  offset="0" style="stop-color:#EB6852"/>
		<stop  offset="0.3232" style="stop-color:#B6B4DF"/>
		<stop  offset="0.676" style="stop-color:#A4C6D3"/>
		<stop  offset="1" style="stop-color:#9AB9AD"/>
	</linearGradient>
	<path class="st3" d="M193.4,151.2c0,7.7-5.4,13-13.3,13c-7.9,0-13.3-5.3-13.3-13c0-7.7,5.4-12.9,13.3-12.9
		C188,138.3,193.4,143.5,193.4,151.2z M172.3,151.3c0,4.9,3.2,8.3,7.8,8.3c4.6,0,7.8-3.4,7.8-8.3c0-4.9-3.2-8.3-7.8-8.3
		C175.5,143,172.3,146.4,172.3,151.3z"/>
	<linearGradient id="SVGID_4_" gradientUnits="userSpaceOnUse" x1="115" y1="151.3511" x2="486" y2="151.3511">
		<stop  offset="0" style="stop-color:#EB6852"/>
		<stop  offset="0.3232" style="stop-color:#B6B4DF"/>
		<stop  offset="0.676" style="stop-color:#A4C6D3"/>
		<stop  offset="1" style="stop-color:#9AB9AD"/>
	</linearGradient>
	<path class="st4" d="M228,164.2c-4.1,0-8-2.2-9.6-5.5c-1.5,3.4-5.4,5.5-9.6,5.5c-6.3,0-10.6-4.3-10.6-10.8v-15h5.5v14.7
		c0,3.6,2.4,5.8,5.9,5.8c3.6,0,5.9-2.3,5.9-5.8v-14.7h5.5v14.7c0,3.6,2.4,5.8,6,5.8c3.5,0,5.8-2.3,5.8-5.8v-14.7h5.5v15
		C238.5,159.9,234.3,164.2,228,164.2z"/>
	<linearGradient id="SVGID_5_" gradientUnits="userSpaceOnUse" x1="115" y1="148.3267" x2="486" y2="148.3267">
		<stop  offset="0" style="stop-color:#EB6852"/>
		<stop  offset="0.3232" style="stop-color:#B6B4DF"/>
		<stop  offset="0.676" style="stop-color:#A4C6D3"/>
		<stop  offset="1" style="stop-color:#9AB9AD"/>
	</linearGradient>
	<path class="st5" d="M258.6,162.4c-2,1.2-4.2,1.9-6.1,1.9c-4,0-7.3-2.8-7.3-8.4v-23.5h5.5v7h7.5v4.1h-7.5v11.4c0,3,1,4.3,2.8,4.3
		c1,0,2.3-0.3,3.7-1.1L258.6,162.4z"/>
	<linearGradient id="SVGID_6_" gradientUnits="userSpaceOnUse" x1="115" y1="146.1904" x2="486" y2="146.1904">
		<stop  offset="0" style="stop-color:#EB6852"/>
		<stop  offset="0.3232" style="stop-color:#B6B4DF"/>
		<stop  offset="0.676" style="stop-color:#A4C6D3"/>
		<stop  offset="1" style="stop-color:#9AB9AD"/>
	</linearGradient>
	<path class="st6" d="M288.4,148.1V164h-5.5v-14.4c0-3.8-2.3-6.2-6.1-6.2c-4.6,0-7.3,3.5-7.3,8V164h-5.5v-35.6h5.5v15.1
		c1.8-3.6,5.1-5.2,9.5-5.2C284.8,138.3,288.4,142,288.4,148.1z"/>
	<linearGradient id="SVGID_7_" gradientUnits="userSpaceOnUse" x1="115" y1="151.2304" x2="486" y2="151.2304">
		<stop  offset="0" style="stop-color:#EB6852"/>
		<stop  offset="0.3232" style="stop-color:#B6B4DF"/>
		<stop  offset="0.676" style="stop-color:#A4C6D3"/>
		<stop  offset="1" style="stop-color:#9AB9AD"/>
	</linearGradient>
	<path class="st7" d="M334.4,138.5V164h-5.5v-4.3c-1.9,2.9-4.9,4.6-8.9,4.6c-7.3,0-12.2-5.3-12.2-13.1c0-7.6,4.8-12.9,12-12.9
		c4.1,0,7.2,1.6,9.1,4.6v-4.3H334.4z M328.9,152.2v-1.9c-0.4-4.4-3.5-7.4-7.8-7.4c-4.6,0-7.8,3.5-7.9,8.4c0,4.8,3.2,8.3,7.9,8.3
		C325.5,159.6,328.5,156.6,328.9,152.2z"/>
	<linearGradient id="SVGID_8_" gradientUnits="userSpaceOnUse" x1="115" y1="155.8627" x2="486" y2="155.8627">
		<stop  offset="0" style="stop-color:#EB6852"/>
		<stop  offset="0.3232" style="stop-color:#B6B4DF"/>
		<stop  offset="0.676" style="stop-color:#A4C6D3"/>
		<stop  offset="1" style="stop-color:#9AB9AD"/>
	</linearGradient>
	<path class="st8" d="M365.6,138.5v23c0,7.3-5.2,12-13.2,12c-4,0-7.5-1.2-10.6-3.4l2.4-4c2.4,1.8,4.9,2.8,8,2.8c4.8,0,8-2.8,8-7.2
		v-3.2c-1.7,2.8-4.6,4.3-8.4,4.3c-6.9,0-11.5-5-11.5-12.3c0-7.2,4.6-12.1,11.3-12.1c3.9,0,6.9,1.5,8.6,4.3v-4.1H365.6z M360.1,150.6
		c0-4.6-3-7.8-7.3-7.8c-4.4,0-7.4,3.3-7.4,7.8c0,4.6,3,7.9,7.4,7.9C357.1,158.4,360.1,155.2,360.1,150.6z"/>
	<linearGradient id="SVGID_9_" gradientUnits="userSpaceOnUse" x1="115" y1="151.2297" x2="486" y2="151.2297">
		<stop  offset="0" style="stop-color:#EB6852"/>
		<stop  offset="0.3232" style="stop-color:#B6B4DF"/>
		<stop  offset="0.676" style="stop-color:#A4C6D3"/>
		<stop  offset="1" style="stop-color:#9AB9AD"/>
	</linearGradient>
	<path class="st9" d="M392,156l3.2,3c-2.9,3.5-6.6,5.2-11,5.2c-7.9,0-13.3-5.2-13.3-13c0-7.5,4.9-12.9,12.8-13
		c7-0.1,11.6,4.2,12,11.1l-18.6,5.6c1.2,3,3.9,4.8,7.3,4.8C387.4,159.8,389.9,158.5,392,156z M376.4,150.9L376.4,150.9l14-4.1
		c-1.2-2.9-3.4-4.1-6.4-4.1C379.4,142.7,376.4,145.6,376.4,150.9z"/>
	<linearGradient id="SVGID_10_" gradientUnits="userSpaceOnUse" x1="115" y1="151.1348" x2="486" y2="151.1348">
		<stop  offset="0" style="stop-color:#EB6852"/>
		<stop  offset="0.3232" style="stop-color:#B6B4DF"/>
		<stop  offset="0.676" style="stop-color:#A4C6D3"/>
		<stop  offset="1" style="stop-color:#9AB9AD"/>
	</linearGradient>
	<path class="st10" d="M425.6,148.1V164H420v-14.4c0-3.8-2.3-6.2-6.1-6.2c-4.2,0-6.9,3-7.2,7V164h-5.5v-25.5h5.5v4.9
		c1.8-3.6,5.1-5.1,9.4-5.1C422,138.3,425.6,142,425.6,148.1z"/>
	<linearGradient id="SVGID_11_" gradientUnits="userSpaceOnUse" x1="115" y1="151.2305" x2="486" y2="151.2305">
		<stop  offset="0" style="stop-color:#EB6852"/>
		<stop  offset="0.3232" style="stop-color:#B6B4DF"/>
		<stop  offset="0.676" style="stop-color:#A4C6D3"/>
		<stop  offset="1" style="stop-color:#9AB9AD"/>
	</linearGradient>
	<path class="st11" d="M443.7,143.1c-4.4,0-7.6,3.3-7.6,8.2s3.2,8.2,7.6,8.2c3.2,0,5.8-1.1,7.5-3.1l3.1,3.1c-2.3,3-6,4.8-10.8,4.8
		c-7.6,0-12.9-5.2-12.9-12.9c0-7.7,5.3-13,12.9-13c4.6,0,8.2,1.5,10.6,4.2l-3,3.6C449.2,144.2,446.7,143.1,443.7,143.1z"/>
	<linearGradient id="SVGID_12_" gradientUnits="userSpaceOnUse" x1="115" y1="155.9836" x2="486" y2="155.9836">
		<stop  offset="0" style="stop-color:#EB6852"/>
		<stop  offset="0.3232" style="stop-color:#B6B4DF"/>
		<stop  offset="0.676" style="stop-color:#A4C6D3"/>
		<stop  offset="1" style="stop-color:#9AB9AD"/>
	</linearGradient>
	<path class="st12" d="M483.6,138.5v22.8c0,7.5-5,12.3-12.8,12.2c-3.8-0.1-8.2-1.6-10.8-3.8l1.5-4c2.4,1.9,5.8,3.2,8.8,3.3
		c4.8,0,7.9-2.9,7.9-7.7v-3.7c-1.7,2.9-4.5,4.4-8.5,4.4c-6.4,0-10.4-3.8-10.4-9.9v-13.5h5.5v12c0,3.9,2.3,6.2,6.1,6.2
		c4.6,0,7.2-3.3,7.2-8.4v-9.8H483.6z"/>
</g>
<g>
	<path class="st13" d="M177.8,28.6c0,0.6-0.4,1.1-1.1,1.1c-0.6,0-1.1-0.5-1.1-1.1c0-0.6,0.5-1.1,1.1-1.1
		C177.4,27.5,177.8,28,177.8,28.6z M175.9,41v-9.7h1.8V41H175.9z"/>
	<path class="st13" d="M188.9,26.8v11.7c0,0.9,0,1.8,0.1,2.5h-1.6l-0.1-1.7h0c-0.5,1.1-1.7,1.9-3.3,1.9c-2.3,0-4.1-2-4.1-4.9
		c0-3.2,2-5.2,4.3-5.2c1.5,0,2.5,0.7,2.9,1.5h0v-5.8H188.9z M187.2,35.3c0-0.2,0-0.5-0.1-0.7c-0.3-1.1-1.2-2-2.5-2
		c-1.8,0-2.9,1.6-2.9,3.7c0,2,1,3.6,2.9,3.6c1.2,0,2.3-0.8,2.6-2.1c0.1-0.2,0.1-0.5,0.1-0.8V35.3z"/>
	<path class="st13" d="M192.8,36.5c0,2.4,1.6,3.4,3.3,3.4c1.3,0,2-0.2,2.7-0.5l0.3,1.3c-0.6,0.3-1.7,0.6-3.2,0.6c-3,0-4.8-2-4.8-4.9
		c0-2.9,1.7-5.2,4.5-5.2c3.2,0,4,2.8,4,4.6c0,0.4,0,0.6-0.1,0.8H192.8z M198,35.2c0-1.1-0.5-2.9-2.4-2.9c-1.8,0-2.6,1.6-2.7,2.9H198
		z"/>
	<path class="st13" d="M201.9,33.9c0-1,0-1.8-0.1-2.6h1.6l0.1,1.6h0c0.5-0.9,1.6-1.8,3.2-1.8c1.3,0,3.4,0.8,3.4,4.1V41h-1.8v-5.6
		c0-1.6-0.6-2.9-2.2-2.9c-1.2,0-2.1,0.8-2.4,1.8c-0.1,0.2-0.1,0.5-0.1,0.8V41h-1.8V33.9z"/>
	<path class="st13" d="M215,28.5v2.8h2.5v1.3H215v5.2c0,1.2,0.3,1.9,1.3,1.9c0.5,0,0.8-0.1,1-0.1l0.1,1.3c-0.3,0.1-0.9,0.2-1.6,0.2
		c-0.8,0-1.5-0.3-1.9-0.7c-0.5-0.5-0.7-1.4-0.7-2.5v-5.3h-1.5v-1.3h1.5V29L215,28.5z"/>
	<path class="st13" d="M221.5,28.6c0,0.6-0.4,1.1-1.1,1.1c-0.6,0-1.1-0.5-1.1-1.1c0-0.6,0.5-1.1,1.1-1.1
		C221,27.5,221.5,28,221.5,28.6z M219.5,41v-9.7h1.8V41H219.5z"/>
	<path class="st13" d="M224.4,41v-8.3H223v-1.3h1.4v-0.5c0-1.4,0.3-2.6,1.1-3.4c0.7-0.6,1.5-0.9,2.4-0.9c0.6,0,1.2,0.1,1.5,0.3
		l-0.2,1.4c-0.3-0.1-0.6-0.2-1.1-0.2c-1.5,0-1.9,1.3-1.9,2.8v0.5h2.3v1.3h-2.3V41H224.4z"/>
	<path class="st13" d="M230.7,31.3l2.1,5.7c0.2,0.6,0.5,1.4,0.6,2h0c0.2-0.6,0.4-1.3,0.6-2l1.9-5.7h1.9l-2.6,6.9
		c-1.3,3.3-2.1,5-3.3,6.1c-0.9,0.8-1.7,1.1-2.2,1.1l-0.4-1.5c0.4-0.1,1-0.4,1.5-0.9c0.5-0.4,1.1-1.1,1.5-2c0.1-0.2,0.1-0.3,0.1-0.4
		c0-0.1,0-0.2-0.1-0.5l-3.6-8.9H230.7z"/>
	<path class="st13" d="M243.7,34.5c0-1.2,0-2.2-0.1-3.2h1.6l0.1,1.7h0c0.7-1.2,1.9-1.9,3.4-1.9c2.3,0,4.1,2,4.1,4.9
		c0,3.5-2.1,5.2-4.4,5.2c-1.3,0-2.4-0.6-3-1.5h0V45h-1.7V34.5z M245.4,37.1c0,0.3,0,0.5,0.1,0.7c0.3,1.2,1.4,2.1,2.6,2.1
		c1.9,0,2.9-1.5,2.9-3.7c0-1.9-1-3.6-2.9-3.6c-1.2,0-2.3,0.9-2.7,2.2c-0.1,0.2-0.1,0.5-0.1,0.7V37.1z"/>
	<path class="st13" d="M255.1,34.3c0-1.1,0-2.1-0.1-3h1.5l0.1,1.9h0.1c0.4-1.3,1.5-2.1,2.7-2.1c0.2,0,0.3,0,0.5,0.1v1.7
		c-0.2,0-0.4-0.1-0.6-0.1c-1.2,0-2.1,0.9-2.4,2.3c0,0.2-0.1,0.5-0.1,0.8V41h-1.7V34.3z"/>
	<path class="st13" d="M270.2,36.1c0,3.6-2.5,5.1-4.8,5.1c-2.6,0-4.6-1.9-4.6-5c0-3.2,2.1-5.1,4.8-5.1
		C268.3,31.1,270.2,33.1,270.2,36.1z M262.5,36.2c0,2.1,1.2,3.7,2.9,3.7c1.7,0,2.9-1.6,2.9-3.8c0-1.6-0.8-3.7-2.9-3.7
		C263.4,32.4,262.5,34.3,262.5,36.2z"/>
	<path class="st13" d="M272.1,39.2c0.5,0.3,1.4,0.7,2.3,0.7c1.3,0,1.9-0.6,1.9-1.4c0-0.8-0.5-1.3-1.8-1.8c-1.7-0.6-2.6-1.6-2.6-2.7
		c0-1.6,1.3-2.8,3.3-2.8c1,0,1.8,0.3,2.4,0.6l-0.4,1.3c-0.4-0.2-1.1-0.6-2-0.6c-1,0-1.6,0.6-1.6,1.3c0,0.8,0.6,1.2,1.8,1.6
		c1.7,0.6,2.5,1.5,2.5,2.9c0,1.7-1.3,2.9-3.6,2.9c-1.1,0-2-0.3-2.7-0.7L272.1,39.2z"/>
	<path class="st13" d="M280.3,34.5c0-1.2,0-2.2-0.1-3.2h1.6l0.1,1.7h0c0.7-1.2,1.9-1.9,3.4-1.9c2.3,0,4.1,2,4.1,4.9
		c0,3.5-2.1,5.2-4.4,5.2c-1.3,0-2.4-0.6-3-1.5h0V45h-1.7V34.5z M282,37.1c0,0.3,0,0.5,0.1,0.7c0.3,1.2,1.4,2.1,2.6,2.1
		c1.9,0,2.9-1.5,2.9-3.7c0-1.9-1-3.6-2.9-3.6c-1.2,0-2.3,0.9-2.7,2.2c-0.1,0.2-0.1,0.5-0.1,0.7V37.1z"/>
	<path class="st13" d="M292.7,36.5c0,2.4,1.6,3.4,3.3,3.4c1.3,0,2-0.2,2.7-0.5l0.3,1.3c-0.6,0.3-1.7,0.6-3.2,0.6c-3,0-4.8-2-4.8-4.9
		c0-2.9,1.7-5.2,4.5-5.2c3.2,0,4,2.8,4,4.6c0,0.4,0,0.6-0.1,0.8H292.7z M297.8,35.2c0-1.1-0.5-2.9-2.4-2.9c-1.8,0-2.6,1.6-2.7,2.9
		H297.8z"/>
	<path class="st13" d="M308.6,40.6c-0.5,0.2-1.5,0.6-2.8,0.6c-2.9,0-4.8-2-4.8-4.9c0-3,2-5.1,5.2-5.1c1,0,2,0.3,2.4,0.5l-0.4,1.4
		c-0.4-0.2-1.1-0.5-2-0.5c-2.2,0-3.4,1.6-3.4,3.7c0,2.2,1.4,3.6,3.4,3.6c1,0,1.7-0.3,2.2-0.5L308.6,40.6z"/>
	<path class="st13" d="M313,28.5v2.8h2.5v1.3H313v5.2c0,1.2,0.3,1.9,1.3,1.9c0.5,0,0.8-0.1,1-0.1l0.1,1.3c-0.3,0.1-0.9,0.2-1.6,0.2
		c-0.8,0-1.5-0.3-1.9-0.7c-0.5-0.5-0.7-1.4-0.7-2.5v-5.3h-1.5v-1.3h1.5V29L313,28.5z"/>
	<path class="st13" d="M317.3,39.2c0.5,0.3,1.4,0.7,2.3,0.7c1.3,0,1.9-0.6,1.9-1.4c0-0.8-0.5-1.3-1.8-1.8c-1.7-0.6-2.6-1.6-2.6-2.7
		c0-1.6,1.3-2.8,3.3-2.8c1,0,1.8,0.3,2.4,0.6l-0.4,1.3c-0.4-0.2-1.1-0.6-2-0.6c-1,0-1.6,0.6-1.6,1.3c0,0.8,0.6,1.2,1.8,1.6
		c1.7,0.6,2.5,1.5,2.5,2.9c0,1.7-1.3,2.9-3.6,2.9c-1.1,0-2-0.3-2.7-0.7L317.3,39.2z"/>
</g>
<g>
	<path class="st13" d="M139.8,106.2h2.2v17.7h-2.2V106.2z"/>
	<path class="st13" d="M146.9,118.3c0,3,1.9,4.2,4.1,4.2c1.6,0,2.5-0.3,3.3-0.6l0.4,1.6c-0.8,0.3-2.1,0.8-4,0.8
		c-3.7,0-5.9-2.4-5.9-6.1s2.1-6.5,5.7-6.5c3.9,0,5,3.5,5,5.7c0,0.5,0,0.8-0.1,1H146.9z M153.4,116.7c0-1.4-0.6-3.6-3-3.6
		c-2.2,0-3.2,2-3.4,3.6H153.4z"/>
	<path class="st13" d="M164.9,123.9l-0.2-1.5h-0.1c-0.7,0.9-2,1.8-3.7,1.8c-2.4,0-3.7-1.7-3.7-3.5c0-2.9,2.6-4.5,7.3-4.5V116
		c0-1-0.3-2.8-2.7-2.8c-1.1,0-2.3,0.3-3.1,0.9l-0.5-1.4c1-0.7,2.4-1.1,4-1.1c3.7,0,4.6,2.5,4.6,4.9v4.5c0,1,0.1,2.1,0.2,2.9H164.9z
		 M164.6,117.7c-2.4,0-5.1,0.4-5.1,2.7c0,1.4,0.9,2.1,2.1,2.1c1.6,0,2.6-1,2.9-2c0.1-0.2,0.1-0.5,0.1-0.7V117.7z"/>
	<path class="st13" d="M180.7,106.2v14.6c0,1.1,0,2.3,0.1,3.1h-2l-0.1-2.1h0c-0.7,1.3-2.1,2.4-4.1,2.4c-2.9,0-5.2-2.5-5.2-6.1
		c0-4,2.5-6.5,5.4-6.5c1.8,0,3.1,0.9,3.6,1.8h0.1v-7.2H180.7z M178.5,116.7c0-0.3,0-0.7-0.1-0.9c-0.3-1.4-1.5-2.5-3.2-2.5
		c-2.3,0-3.6,2-3.6,4.7c0,2.4,1.2,4.5,3.6,4.5c1.5,0,2.8-1,3.2-2.6c0.1-0.3,0.1-0.6,0.1-1V116.7z"/>
	<path class="st13" d="M189.7,115.1c0-1.2,0-2.3-0.1-3.3h1.9l0.1,2h0.1c0.6-1.1,2-2.3,4-2.3c1.7,0,4.3,1,4.3,5.1v7.2h-2.2v-7
		c0-1.9-0.7-3.6-2.8-3.6c-1.4,0-2.6,1-2.9,2.2c-0.1,0.3-0.1,0.6-0.1,1v7.3h-2.2V115.1z"/>
	<path class="st13" d="M213.7,120.6c0,1.2,0,2.3,0.1,3.3h-1.9l-0.1-2h-0.1c-0.6,1-1.8,2.2-4,2.2c-1.9,0-4.2-1-4.2-5.3v-7.1h2.2v6.7
		c0,2.3,0.7,3.8,2.7,3.8c1.5,0,2.5-1,2.9-2c0.1-0.3,0.2-0.7,0.2-1.1v-7.4h2.2V120.6z"/>
	<path class="st13" d="M217.3,115.6c0-1.4,0-2.6-0.1-3.8h1.9l0.1,2.4h0.1c0.5-1.6,1.9-2.6,3.3-2.6c0.2,0,0.4,0,0.6,0.1v2.1
		c-0.2,0-0.5-0.1-0.8-0.1c-1.5,0-2.6,1.2-2.9,2.8c-0.1,0.3-0.1,0.7-0.1,1v6.4h-2.2V115.6z"/>
	<path class="st13" d="M228.8,108.3v3.5h3.1v1.7h-3.1v6.5c0,1.5,0.4,2.3,1.6,2.3c0.6,0,1-0.1,1.3-0.1l0.1,1.6
		c-0.4,0.2-1.1,0.3-1.9,0.3c-1,0-1.8-0.3-2.4-0.9c-0.6-0.6-0.9-1.7-0.9-3.1v-6.6h-1.9v-1.7h1.9v-2.9L228.8,108.3z"/>
	<path class="st13" d="M244.5,120.6c0,1.2,0,2.3,0.1,3.3h-1.9l-0.1-2h-0.1c-0.6,1-1.8,2.2-4,2.2c-1.9,0-4.2-1-4.2-5.3v-7.1h2.2v6.7
		c0,2.3,0.7,3.8,2.7,3.8c1.5,0,2.5-1,2.9-2c0.1-0.3,0.2-0.7,0.2-1.1v-7.4h2.2V120.6z"/>
	<path class="st13" d="M248.2,115.6c0-1.4,0-2.6-0.1-3.8h1.9l0.1,2.4h0.1c0.5-1.6,1.9-2.6,3.3-2.6c0.2,0,0.4,0,0.6,0.1v2.1
		c-0.2,0-0.5-0.1-0.8-0.1c-1.5,0-2.6,1.2-2.9,2.8c-0.1,0.3-0.1,0.7-0.1,1v6.4h-2.2V115.6z"/>
	<path class="st13" d="M258.9,108.4c0,0.8-0.5,1.3-1.4,1.3c-0.8,0-1.3-0.6-1.3-1.3c0-0.8,0.6-1.4,1.4-1.4
		C258.4,107,258.9,107.6,258.9,108.4z M256.4,123.9v-12.1h2.2v12.1H256.4z"/>
	<path class="st13" d="M262.3,115.1c0-1.2,0-2.3-0.1-3.3h1.9l0.1,2h0.1c0.6-1.1,2-2.3,4-2.3c1.7,0,4.3,1,4.3,5.1v7.2h-2.2v-7
		c0-1.9-0.7-3.6-2.8-3.6c-1.4,0-2.6,1-2.9,2.2c-0.1,0.3-0.1,0.6-0.1,1v7.3h-2.2V115.1z"/>
	<path class="st13" d="M286.6,111.8c0,0.9-0.1,1.8-0.1,3.3v7c0,2.8-0.5,4.5-1.7,5.5c-1.2,1.1-2.9,1.4-4.4,1.4c-1.4,0-3-0.3-4-1
		l0.5-1.7c0.8,0.5,2,0.9,3.5,0.9c2.2,0,3.9-1.2,3.9-4.2v-1.3h0c-0.7,1.1-2,2-3.8,2c-3,0-5.1-2.5-5.1-5.9c0-4.1,2.7-6.4,5.4-6.4
		c2.1,0,3.2,1.1,3.8,2.1h0.1l0.1-1.8H286.6z M284.3,116.6c0-0.4,0-0.7-0.1-1c-0.4-1.3-1.5-2.3-3.1-2.3c-2.1,0-3.6,1.8-3.6,4.6
		c0,2.4,1.2,4.3,3.6,4.3c1.3,0,2.6-0.8,3-2.2c0.1-0.4,0.2-0.8,0.2-1.2V116.6z"/>
</g>
<g>
	<path class="st13" d="M78.5,59l-0.1-1h0c-0.4,0.6-1.3,1.2-2.4,1.2c-1.6,0-2.4-1.1-2.4-2.2c0-1.9,1.7-2.9,4.7-2.9v-0.2
		c0-0.6-0.2-1.8-1.8-1.8c-0.7,0-1.5,0.2-2,0.6l-0.3-0.9c0.6-0.4,1.6-0.7,2.5-0.7c2.4,0,2.9,1.6,2.9,3.2v2.9c0,0.7,0,1.3,0.1,1.9
		H78.5z M78.3,55c-1.5,0-3.3,0.2-3.3,1.7c0,0.9,0.6,1.3,1.3,1.3c1,0,1.6-0.6,1.9-1.3c0-0.1,0.1-0.3,0.1-0.4V55z"/>
	<path class="st13" d="M81.9,53.8c0-1,0-1.8-0.1-2.5h1.3l0.1,1.3h0c0.6-0.9,1.5-1.5,2.8-1.5c1.9,0,3.3,1.6,3.3,3.9
		c0,2.8-1.7,4.2-3.5,4.2c-1,0-1.9-0.4-2.4-1.2h0v4.2h-1.4V53.8z M83.3,55.8c0,0.2,0,0.4,0.1,0.6c0.3,1,1.1,1.6,2.1,1.6
		c1.5,0,2.4-1.2,2.4-3c0-1.6-0.8-2.9-2.3-2.9c-1,0-1.9,0.7-2.1,1.7c0,0.2-0.1,0.4-0.1,0.6V55.8z"/>
	<path class="st13" d="M91.1,53.8c0-1,0-1.8-0.1-2.5h1.3l0.1,1.3h0c0.6-0.9,1.5-1.5,2.8-1.5c1.9,0,3.3,1.6,3.3,3.9
		c0,2.8-1.7,4.2-3.5,4.2c-1,0-1.9-0.4-2.4-1.2h0v4.2h-1.4V53.8z M92.4,55.8c0,0.2,0,0.4,0.1,0.6c0.3,1,1.1,1.6,2.1,1.6
		c1.5,0,2.4-1.2,2.4-3c0-1.6-0.8-2.9-2.3-2.9c-1,0-1.9,0.7-2.1,1.7c0,0.2-0.1,0.4-0.1,0.6V55.8z"/>
	<path class="st13" d="M107.2,55.1c0,2.9-2,4.1-3.9,4.1c-2.1,0-3.7-1.5-3.7-4c0-2.6,1.7-4.1,3.8-4.1
		C105.7,51.1,107.2,52.7,107.2,55.1z M101,55.1c0,1.7,1,3,2.4,3c1.3,0,2.4-1.3,2.4-3c0-1.3-0.7-3-2.3-3
		C101.7,52.1,101,53.7,101,55.1z"/>
	<path class="st13" d="M110.5,49.1c0,0.5-0.3,0.9-0.9,0.9c-0.5,0-0.8-0.4-0.8-0.9c0-0.5,0.4-0.9,0.9-0.9
		C110.2,48.2,110.5,48.6,110.5,49.1z M108.9,59v-7.7h1.4V59H108.9z"/>
	<path class="st13" d="M112.7,53.3c0-0.8,0-1.5-0.1-2.1h1.2l0.1,1.3h0c0.4-0.7,1.3-1.5,2.6-1.5c1.1,0,2.7,0.6,2.7,3.3V59h-1.4v-4.5
		c0-1.2-0.5-2.3-1.8-2.3c-0.9,0-1.6,0.7-1.9,1.4c-0.1,0.2-0.1,0.4-0.1,0.7V59h-1.4V53.3z"/>
	<path class="st13" d="M123.2,49v2.2h2v1.1h-2v4.2c0,1,0.3,1.5,1.1,1.5c0.4,0,0.6,0,0.8-0.1l0.1,1.1c-0.3,0.1-0.7,0.2-1.2,0.2
		c-0.7,0-1.2-0.2-1.5-0.6c-0.4-0.4-0.5-1.1-0.5-2v-4.2h-1.2v-1.1h1.2v-1.9L123.2,49z"/>
	<path class="st13" d="M126.8,53.3c0-0.8,0-1.5-0.1-2.1h1.2l0.1,1.2h0c0.4-0.7,1.2-1.4,2.4-1.4c1.1,0,1.9,0.6,2.2,1.6h0
		c0.2-0.4,0.5-0.8,0.9-1c0.5-0.4,1-0.5,1.7-0.5c1,0,2.5,0.7,2.5,3.4V59h-1.4v-4.4c0-1.5-0.5-2.4-1.7-2.4c-0.8,0-1.4,0.6-1.7,1.3
		c-0.1,0.2-0.1,0.4-0.1,0.7V59h-1.4v-4.6c0-1.2-0.5-2.1-1.6-2.1c-0.9,0-1.5,0.7-1.7,1.4c-0.1,0.2-0.1,0.4-0.1,0.7V59h-1.4V53.3z"/>
	<path class="st13" d="M140.9,55.4c0,1.9,1.2,2.7,2.7,2.7c1,0,1.6-0.2,2.1-0.4l0.2,1c-0.5,0.2-1.3,0.5-2.6,0.5
		c-2.4,0-3.8-1.6-3.8-3.9s1.4-4.2,3.6-4.2c2.5,0,3.2,2.2,3.2,3.6c0,0.3,0,0.5,0,0.7H140.9z M145.1,54.4c0-0.9-0.4-2.3-2-2.3
		c-1.4,0-2,1.3-2.2,2.3H145.1z"/>
	<path class="st13" d="M148.2,53.3c0-0.8,0-1.5-0.1-2.1h1.2l0.1,1.3h0c0.4-0.7,1.3-1.5,2.6-1.5c1.1,0,2.7,0.6,2.7,3.3V59h-1.4v-4.5
		c0-1.2-0.5-2.3-1.8-2.3c-0.9,0-1.6,0.7-1.9,1.4c-0.1,0.2-0.1,0.4-0.1,0.7V59h-1.4V53.3z"/>
	<path class="st13" d="M158.7,49v2.2h2v1.1h-2v4.2c0,1,0.3,1.5,1.1,1.5c0.4,0,0.6,0,0.8-0.1l0.1,1.1c-0.3,0.1-0.7,0.2-1.2,0.2
		c-0.7,0-1.2-0.2-1.5-0.6c-0.4-0.4-0.5-1.1-0.5-2v-4.2h-1.2v-1.1h1.2v-1.9L158.7,49z"/>
	<path class="st13" d="M165.5,57.6c0.4,0.3,1.2,0.6,1.9,0.6c1,0,1.5-0.5,1.5-1.2c0-0.7-0.4-1-1.4-1.4c-1.4-0.5-2-1.3-2-2.2
		c0-1.2,1-2.3,2.7-2.3c0.8,0,1.5,0.2,1.9,0.5l-0.4,1c-0.3-0.2-0.9-0.4-1.6-0.4c-0.8,0-1.3,0.5-1.3,1.1c0,0.6,0.5,0.9,1.5,1.3
		c1.3,0.5,2,1.2,2,2.3c0,1.4-1.1,2.3-2.9,2.3c-0.8,0-1.6-0.2-2.2-0.5L165.5,57.6z"/>
	<path class="st13" d="M172.8,55.4c0,1.9,1.2,2.7,2.7,2.7c1,0,1.6-0.2,2.1-0.4l0.2,1c-0.5,0.2-1.3,0.5-2.6,0.5
		c-2.4,0-3.8-1.6-3.8-3.9s1.4-4.2,3.6-4.2c2.5,0,3.2,2.2,3.2,3.6c0,0.3,0,0.5,0,0.7H172.8z M176.9,54.4c0-0.9-0.4-2.3-2-2.3
		c-1.4,0-2,1.3-2.2,2.3H176.9z"/>
	<path class="st13" d="M181.7,49v2.2h2v1.1h-2v4.2c0,1,0.3,1.5,1.1,1.5c0.4,0,0.6,0,0.8-0.1l0.1,1.1c-0.3,0.1-0.7,0.2-1.2,0.2
		c-0.7,0-1.2-0.2-1.5-0.6c-0.4-0.4-0.5-1.1-0.5-2v-4.2h-1.2v-1.1h1.2v-1.9L181.7,49z"/>
	<path class="st13" d="M187,49v2.2h2v1.1h-2v4.2c0,1,0.3,1.5,1.1,1.5c0.4,0,0.6,0,0.8-0.1l0.1,1.1c-0.3,0.1-0.7,0.2-1.2,0.2
		c-0.7,0-1.2-0.2-1.5-0.6c-0.4-0.4-0.5-1.1-0.5-2v-4.2h-1.2v-1.1h1.2v-1.9L187,49z"/>
	<path class="st13" d="M192.2,49.1c0,0.5-0.3,0.9-0.9,0.9c-0.5,0-0.8-0.4-0.8-0.9c0-0.5,0.4-0.9,0.9-0.9
		C191.8,48.2,192.2,48.6,192.2,49.1z M190.6,59v-7.7h1.4V59H190.6z"/>
	<path class="st13" d="M194.3,53.3c0-0.8,0-1.5-0.1-2.1h1.2l0.1,1.3h0c0.4-0.7,1.3-1.5,2.6-1.5c1.1,0,2.7,0.6,2.7,3.3V59h-1.4v-4.5
		c0-1.2-0.5-2.3-1.8-2.3c-0.9,0-1.6,0.7-1.9,1.4c-0.1,0.2-0.1,0.4-0.1,0.7V59h-1.4V53.3z"/>
	<path class="st13" d="M209.9,51.3c0,0.6-0.1,1.2-0.1,2.1v4.5c0,1.8-0.4,2.9-1.1,3.5c-0.8,0.7-1.8,0.9-2.8,0.9c-0.9,0-2-0.2-2.6-0.6
		l0.4-1.1c0.5,0.3,1.3,0.6,2.3,0.6c1.4,0,2.5-0.8,2.5-2.7v-0.9h0c-0.4,0.7-1.3,1.3-2.5,1.3c-1.9,0-3.3-1.6-3.3-3.8
		c0-2.6,1.7-4.1,3.5-4.1c1.3,0,2.1,0.7,2.4,1.3h0l0.1-1.2H209.9z M208.4,54.3c0-0.2,0-0.4-0.1-0.6c-0.3-0.8-0.9-1.5-2-1.5
		c-1.3,0-2.3,1.1-2.3,2.9c0,1.5,0.8,2.8,2.3,2.8c0.9,0,1.6-0.5,2-1.4c0.1-0.2,0.1-0.5,0.1-0.8V54.3z"/>
</g>
<g>
	<path class="st13" d="M220.9,52.8c0-0.6,0-1.1,0-1.6h0.9l0.1,1h0c0.3-0.6,1-1.1,1.9-1.1c0.8,0,2.1,0.5,2.1,2.5V57h-1.1v-3.3
		c0-0.9-0.3-1.7-1.3-1.7c-0.7,0-1.2,0.5-1.4,1.1c0,0.1-0.1,0.3-0.1,0.5V57h-1.1V52.8z"/>
	<path class="st13" d="M228.1,54.3c0,1.4,0.9,2,2,2c0.8,0,1.2-0.1,1.6-0.3l0.2,0.8c-0.4,0.2-1,0.4-1.9,0.4c-1.8,0-2.9-1.2-2.9-2.9
		s1-3.1,2.7-3.1c1.9,0,2.4,1.7,2.4,2.7c0,0.2,0,0.4,0,0.5H228.1z M231.2,53.5c0-0.7-0.3-1.7-1.5-1.7c-1.1,0-1.5,1-1.6,1.7H231.2z"/>
	<path class="st13" d="M234,51.2l0.8,3c0.2,0.6,0.3,1.2,0.4,1.8h0c0.1-0.6,0.3-1.2,0.5-1.8l0.9-3h0.9l0.9,2.9
		c0.2,0.7,0.4,1.3,0.5,1.9h0c0.1-0.6,0.3-1.2,0.4-1.9l0.8-2.9h1l-1.9,5.8h-1l-0.9-2.8c-0.2-0.6-0.4-1.2-0.5-1.9h0
		c-0.1,0.7-0.3,1.3-0.5,1.9l-0.9,2.8h-1l-1.8-5.8H234z"/>
	<path class="st13" d="M244.9,52.8c0-0.6,0-1.1,0-1.6h0.9l0,0.9h0c0.3-0.6,0.9-1.1,1.8-1.1c0.8,0,1.4,0.5,1.6,1.2h0
		c0.2-0.3,0.4-0.6,0.6-0.8c0.3-0.3,0.7-0.4,1.3-0.4c0.8,0,1.9,0.5,1.9,2.5V57h-1v-3.3c0-1.1-0.4-1.8-1.3-1.8c-0.6,0-1.1,0.4-1.2,1
		c0,0.1-0.1,0.3-0.1,0.5V57h-1v-3.5c0-0.9-0.4-1.6-1.2-1.6c-0.7,0-1.1,0.5-1.3,1.1c-0.1,0.2-0.1,0.3-0.1,0.5V57h-1V52.8z"/>
	<path class="st13" d="M258.1,57l-0.1-0.7h0c-0.3,0.5-0.9,0.9-1.8,0.9c-1.2,0-1.8-0.8-1.8-1.7c0-1.4,1.2-2.2,3.5-2.2v-0.1
		c0-0.5-0.1-1.3-1.3-1.3c-0.5,0-1.1,0.2-1.5,0.4l-0.2-0.7c0.5-0.3,1.2-0.5,1.9-0.5c1.8,0,2.2,1.2,2.2,2.4v2.2c0,0.5,0,1,0.1,1.4
		H258.1z M258,54c-1.2,0-2.5,0.2-2.5,1.3c0,0.7,0.5,1,1,1c0.8,0,1.2-0.5,1.4-1c0-0.1,0.1-0.2,0.1-0.3V54z"/>
	<path class="st13" d="M260.7,53c0-0.7,0-1.3,0-1.8h0.9l0,1.1h0c0.3-0.8,0.9-1.3,1.6-1.3c0.1,0,0.2,0,0.3,0v1c-0.1,0-0.2,0-0.4,0
		c-0.7,0-1.3,0.6-1.4,1.4c0,0.1,0,0.3,0,0.5V57h-1V53z"/>
	<path class="st13" d="M265.7,53.9L265.7,53.9c0.2-0.2,0.4-0.5,0.5-0.7l1.7-2h1.3l-2.2,2.4l2.6,3.4h-1.3l-2-2.8l-0.5,0.6V57h-1v-8.5
		h1V53.9z"/>
	<path class="st13" d="M270.9,54.3c0,1.4,0.9,2,2,2c0.8,0,1.2-0.1,1.6-0.3l0.2,0.8c-0.4,0.2-1,0.4-1.9,0.4c-1.8,0-2.9-1.2-2.9-2.9
		s1-3.1,2.7-3.1c1.9,0,2.4,1.7,2.4,2.7c0,0.2,0,0.4,0,0.5H270.9z M274,53.5c0-0.7-0.3-1.7-1.5-1.7c-1.1,0-1.5,1-1.6,1.7H274z"/>
	<path class="st13" d="M277.6,49.5v1.7h1.5V52h-1.5v3.1c0,0.7,0.2,1.1,0.8,1.1c0.3,0,0.5,0,0.6-0.1l0,0.8c-0.2,0.1-0.5,0.1-0.9,0.1
		c-0.5,0-0.9-0.2-1.1-0.4c-0.3-0.3-0.4-0.8-0.4-1.5V52h-0.9v-0.8h0.9v-1.4L277.6,49.5z"/>
	<path class="st13" d="M288.1,54c0,2.1-1.5,3.1-2.9,3.1c-1.6,0-2.8-1.2-2.8-3c0-1.9,1.3-3.1,2.9-3.1C287,51.1,288.1,52.3,288.1,54z
		 M283.5,54.1c0,1.3,0.7,2.2,1.8,2.2c1,0,1.8-0.9,1.8-2.3c0-1-0.5-2.2-1.7-2.2C284,51.9,283.5,53,283.5,54.1z"/>
	<path class="st13" d="M289.4,53.1c0-0.7,0-1.3,0-1.9h0.9l0,1h0c0.4-0.7,1.1-1.1,2.1-1.1c1.4,0,2.5,1.2,2.5,3c0,2.1-1.3,3.1-2.6,3.1
		c-0.8,0-1.4-0.3-1.8-0.9h0v3.2h-1V53.1z M290.5,54.6c0,0.2,0,0.3,0,0.4c0.2,0.7,0.8,1.2,1.6,1.2c1.1,0,1.8-0.9,1.8-2.2
		c0-1.2-0.6-2.2-1.7-2.2c-0.7,0-1.4,0.5-1.6,1.3c0,0.1-0.1,0.3-0.1,0.4V54.6z"/>
	<path class="st13" d="M296.3,53.1c0-0.7,0-1.3,0-1.9h0.9l0,1h0c0.4-0.7,1.1-1.1,2.1-1.1c1.4,0,2.5,1.2,2.5,3c0,2.1-1.3,3.1-2.6,3.1
		c-0.8,0-1.4-0.3-1.8-0.9h0v3.2h-1V53.1z M297.3,54.6c0,0.2,0,0.3,0,0.4c0.2,0.7,0.8,1.2,1.6,1.2c1.1,0,1.8-0.9,1.8-2.2
		c0-1.2-0.6-2.2-1.7-2.2c-0.7,0-1.4,0.5-1.6,1.3c0,0.1-0.1,0.3-0.1,0.4V54.6z"/>
	<path class="st13" d="M308.3,54c0,2.1-1.5,3.1-2.9,3.1c-1.6,0-2.8-1.2-2.8-3c0-1.9,1.3-3.1,2.9-3.1C307.2,51.1,308.3,52.3,308.3,54
		z M303.7,54.1c0,1.3,0.7,2.2,1.8,2.2c1,0,1.8-0.9,1.8-2.3c0-1-0.5-2.2-1.7-2.2C304.3,51.9,303.7,53,303.7,54.1z"/>
	<path class="st13" d="M309.7,53c0-0.7,0-1.3,0-1.8h0.9l0,1.1h0c0.3-0.8,0.9-1.3,1.6-1.3c0.1,0,0.2,0,0.3,0v1c-0.1,0-0.2,0-0.4,0
		c-0.7,0-1.3,0.6-1.4,1.4c0,0.1,0,0.3,0,0.5V57h-1V53z"/>
	<path class="st13" d="M315.2,49.5v1.7h1.5V52h-1.5v3.1c0,0.7,0.2,1.1,0.8,1.1c0.3,0,0.5,0,0.6-0.1l0,0.8c-0.2,0.1-0.5,0.1-0.9,0.1
		c-0.5,0-0.9-0.2-1.1-0.4c-0.3-0.3-0.4-0.8-0.4-1.5V52h-0.9v-0.8h0.9v-1.4L315.2,49.5z"/>
	<path class="st13" d="M322.7,55.4c0,0.6,0,1.1,0,1.6h-0.9l-0.1-0.9h0c-0.3,0.5-0.9,1.1-1.9,1.1c-0.9,0-2-0.5-2-2.5v-3.4h1.1v3.2
		c0,1.1,0.3,1.8,1.3,1.8c0.7,0,1.2-0.5,1.4-1c0.1-0.2,0.1-0.3,0.1-0.5v-3.6h1.1V55.4z"/>
	<path class="st13" d="M324.5,52.8c0-0.6,0-1.1,0-1.6h0.9l0.1,1h0c0.3-0.6,1-1.1,1.9-1.1c0.8,0,2.1,0.5,2.1,2.5V57h-1.1v-3.3
		c0-0.9-0.3-1.7-1.3-1.7c-0.7,0-1.2,0.5-1.4,1.1c0,0.1-0.1,0.3-0.1,0.5V57h-1.1V52.8z"/>
	<path class="st13" d="M332.3,49.6c0,0.4-0.3,0.6-0.7,0.6c-0.4,0-0.6-0.3-0.6-0.6c0-0.4,0.3-0.7,0.7-0.7
		C332.1,48.9,332.3,49.2,332.3,49.6z M331.1,57v-5.8h1.1V57H331.1z"/>
	<path class="st13" d="M335.2,49.5v1.7h1.5V52h-1.5v3.1c0,0.7,0.2,1.1,0.8,1.1c0.3,0,0.5,0,0.6-0.1l0,0.8c-0.2,0.1-0.5,0.1-0.9,0.1
		c-0.5,0-0.9-0.2-1.1-0.4c-0.3-0.3-0.4-0.8-0.4-1.5V52h-0.9v-0.8h0.9v-1.4L335.2,49.5z"/>
	<path class="st13" d="M339.1,49.6c0,0.4-0.3,0.6-0.7,0.6c-0.4,0-0.6-0.3-0.6-0.6c0-0.4,0.3-0.7,0.7-0.7
		C338.8,48.9,339.1,49.2,339.1,49.6z M337.9,57v-5.8h1.1V57H337.9z"/>
	<path class="st13" d="M341.3,54.3c0,1.4,0.9,2,2,2c0.8,0,1.2-0.1,1.6-0.3l0.2,0.8c-0.4,0.2-1,0.4-1.9,0.4c-1.8,0-2.9-1.2-2.9-2.9
		s1-3.1,2.7-3.1c1.9,0,2.4,1.7,2.4,2.7c0,0.2,0,0.4,0,0.5H341.3z M344.4,53.5c0-0.7-0.3-1.7-1.5-1.7c-1.1,0-1.5,1-1.6,1.7H344.4z"/>
	<path class="st13" d="M346.6,55.9c0.3,0.2,0.9,0.4,1.4,0.4c0.8,0,1.1-0.4,1.1-0.9c0-0.5-0.3-0.8-1.1-1.1c-1-0.4-1.5-0.9-1.5-1.6
		c0-0.9,0.8-1.7,2-1.7c0.6,0,1.1,0.2,1.4,0.4l-0.3,0.8c-0.2-0.1-0.6-0.3-1.2-0.3c-0.6,0-1,0.4-1,0.8c0,0.5,0.3,0.7,1.1,1
		c1,0.4,1.5,0.9,1.5,1.8c0,1-0.8,1.7-2.2,1.7c-0.6,0-1.2-0.2-1.6-0.4L346.6,55.9z"/>
</g>
<g>
	<path class="st13" d="M149.2,95.8c0-1,0-1.8-0.1-2.5h1.3l0.1,1.3h0c0.6-0.9,1.5-1.5,2.8-1.5c1.9,0,3.3,1.6,3.3,3.9
		c0,2.8-1.7,4.2-3.5,4.2c-1,0-1.9-0.4-2.4-1.2h0v4.2h-1.4V95.8z M150.6,97.8c0,0.2,0,0.4,0.1,0.6c0.3,1,1.1,1.6,2.1,1.6
		c1.5,0,2.4-1.2,2.4-3c0-1.6-0.8-2.9-2.3-2.9c-1,0-1.9,0.7-2.1,1.7c0,0.2-0.1,0.4-0.1,0.6V97.8z"/>
	<path class="st13" d="M159.8,91.1c0,0.5-0.3,0.9-0.9,0.9c-0.5,0-0.8-0.4-0.8-0.9c0-0.5,0.4-0.9,0.9-0.9
		C159.5,90.2,159.8,90.6,159.8,91.1z M158.3,101v-7.7h1.4v7.7H158.3z"/>
	<path class="st13" d="M162,95.8c0-1,0-1.8-0.1-2.5h1.3l0.1,1.3h0c0.6-0.9,1.5-1.5,2.8-1.5c1.9,0,3.3,1.6,3.3,3.9
		c0,2.8-1.7,4.2-3.5,4.2c-1,0-1.9-0.4-2.4-1.2h0v4.2H162V95.8z M163.4,97.8c0,0.2,0,0.4,0.1,0.6c0.3,1,1.1,1.6,2.1,1.6
		c1.5,0,2.4-1.2,2.4-3c0-1.6-0.8-2.9-2.3-2.9c-1,0-1.9,0.7-2.1,1.7c0,0.2-0.1,0.4-0.1,0.6V97.8z"/>
	<path class="st13" d="M171.9,97.4c0,1.9,1.2,2.7,2.7,2.7c1,0,1.6-0.2,2.1-0.4l0.2,1c-0.5,0.2-1.3,0.5-2.6,0.5
		c-2.4,0-3.8-1.6-3.8-3.9s1.4-4.2,3.6-4.2c2.5,0,3.2,2.2,3.2,3.6c0,0.3,0,0.5,0,0.7H171.9z M176,96.4c0-0.9-0.4-2.3-2-2.3
		c-1.4,0-2,1.3-2.2,2.3H176z"/>
	<path class="st13" d="M179.1,89.6h1.4V101h-1.4V89.6z"/>
	<path class="st13" d="M184.5,91.1c0,0.5-0.3,0.9-0.9,0.9c-0.5,0-0.8-0.4-0.8-0.9c0-0.5,0.4-0.9,0.9-0.9
		C184.1,90.2,184.5,90.6,184.5,91.1z M182.9,101v-7.7h1.4v7.7H182.9z"/>
	<path class="st13" d="M186.7,95.3c0-0.8,0-1.5-0.1-2.1h1.2l0.1,1.3h0c0.4-0.7,1.3-1.5,2.6-1.5c1.1,0,2.7,0.6,2.7,3.3v4.6h-1.4v-4.5
		c0-1.2-0.5-2.3-1.8-2.3c-0.9,0-1.6,0.7-1.9,1.4c-0.1,0.2-0.1,0.4-0.1,0.7v4.7h-1.4V95.3z"/>
	<path class="st13" d="M196.3,97.4c0,1.9,1.2,2.7,2.7,2.7c1,0,1.6-0.2,2.1-0.4l0.2,1c-0.5,0.2-1.3,0.5-2.6,0.5
		c-2.4,0-3.8-1.6-3.8-3.9s1.4-4.2,3.6-4.2c2.5,0,3.2,2.2,3.2,3.6c0,0.3,0,0.5,0,0.7H196.3z M200.4,96.4c0-0.9-0.4-2.3-2-2.3
		c-1.4,0-2,1.3-2.2,2.3H200.4z"/>
	<path class="st13" d="M206.9,95.3c0-0.8,0-1.5-0.1-2.1h1.2l0.1,1.2h0c0.4-0.7,1.2-1.4,2.4-1.4c1.1,0,1.9,0.6,2.2,1.6h0
		c0.2-0.4,0.5-0.8,0.9-1c0.5-0.4,1-0.5,1.7-0.5c1,0,2.5,0.7,2.5,3.4v4.6h-1.4v-4.4c0-1.5-0.5-2.4-1.7-2.4c-0.8,0-1.4,0.6-1.7,1.3
		c-0.1,0.2-0.1,0.4-0.1,0.7v4.8h-1.4v-4.6c0-1.2-0.5-2.1-1.6-2.1c-0.9,0-1.5,0.7-1.7,1.4c-0.1,0.2-0.1,0.4-0.1,0.7v4.7h-1.4V95.3z"
		/>
	<path class="st13" d="M224.6,101l-0.1-1h0c-0.4,0.6-1.3,1.2-2.4,1.2c-1.6,0-2.4-1.1-2.4-2.2c0-1.9,1.7-2.9,4.7-2.9v-0.2
		c0-0.6-0.2-1.8-1.8-1.8c-0.7,0-1.5,0.2-2,0.6l-0.3-0.9c0.6-0.4,1.6-0.7,2.5-0.7c2.4,0,2.9,1.6,2.9,3.2v2.9c0,0.7,0,1.3,0.1,1.9
		H224.6z M224.4,97c-1.5,0-3.3,0.2-3.3,1.7c0,0.9,0.6,1.3,1.3,1.3c1,0,1.6-0.6,1.9-1.3c0-0.1,0.1-0.3,0.1-0.4V97z"/>
	<path class="st13" d="M228,95.3c0-0.8,0-1.5-0.1-2.1h1.2l0.1,1.3h0c0.4-0.7,1.3-1.5,2.6-1.5c1.1,0,2.7,0.6,2.7,3.3v4.6h-1.4v-4.5
		c0-1.2-0.5-2.3-1.8-2.3c-0.9,0-1.6,0.7-1.9,1.4c-0.1,0.2-0.1,0.4-0.1,0.7v4.7H228V95.3z"/>
	<path class="st13" d="M241.2,101l-0.1-1h0c-0.4,0.6-1.3,1.2-2.4,1.2c-1.6,0-2.4-1.1-2.4-2.2c0-1.9,1.7-2.9,4.7-2.9v-0.2
		c0-0.6-0.2-1.8-1.8-1.8c-0.7,0-1.5,0.2-2,0.6l-0.3-0.9c0.6-0.4,1.6-0.7,2.5-0.7c2.4,0,2.9,1.6,2.9,3.2v2.9c0,0.7,0,1.3,0.1,1.9
		H241.2z M241,97c-1.5,0-3.3,0.2-3.3,1.7c0,0.9,0.6,1.3,1.3,1.3c1,0,1.6-0.6,1.9-1.3c0-0.1,0.1-0.3,0.1-0.4V97z"/>
	<path class="st13" d="M251.3,93.3c0,0.6-0.1,1.2-0.1,2.1v4.5c0,1.8-0.4,2.9-1.1,3.5c-0.8,0.7-1.8,0.9-2.8,0.9c-0.9,0-2-0.2-2.6-0.6
		l0.4-1.1c0.5,0.3,1.3,0.6,2.3,0.6c1.4,0,2.5-0.8,2.5-2.7v-0.9h0c-0.4,0.7-1.3,1.3-2.5,1.3c-1.9,0-3.3-1.6-3.3-3.8
		c0-2.6,1.7-4.1,3.5-4.1c1.3,0,2.1,0.7,2.4,1.3h0l0.1-1.2H251.3z M249.8,96.3c0-0.2,0-0.4-0.1-0.6c-0.3-0.8-0.9-1.5-2-1.5
		c-1.3,0-2.3,1.1-2.3,2.9c0,1.5,0.8,2.8,2.3,2.8c0.9,0,1.6-0.5,2-1.4c0.1-0.2,0.1-0.5,0.1-0.8V96.3z"/>
	<path class="st13" d="M254.3,97.4c0,1.9,1.2,2.7,2.7,2.7c1,0,1.6-0.2,2.1-0.4l0.2,1c-0.5,0.2-1.3,0.5-2.6,0.5
		c-2.4,0-3.8-1.6-3.8-3.9s1.4-4.2,3.6-4.2c2.5,0,3.2,2.2,3.2,3.6c0,0.3,0,0.5,0,0.7H254.3z M258.4,96.4c0-0.9-0.4-2.3-2-2.3
		c-1.4,0-2,1.3-2.2,2.3H258.4z"/>
	<path class="st13" d="M261.6,95.3c0-0.8,0-1.5-0.1-2.1h1.2l0.1,1.2h0c0.4-0.7,1.2-1.4,2.4-1.4c1.1,0,1.9,0.6,2.2,1.6h0
		c0.2-0.4,0.5-0.8,0.9-1c0.5-0.4,1-0.5,1.7-0.5c1,0,2.5,0.7,2.5,3.4v4.6h-1.4v-4.4c0-1.5-0.5-2.4-1.7-2.4c-0.8,0-1.4,0.6-1.7,1.3
		c-0.1,0.2-0.1,0.4-0.1,0.7v4.8h-1.4v-4.6c0-1.2-0.5-2.1-1.6-2.1c-0.9,0-1.5,0.7-1.7,1.4c-0.1,0.2-0.1,0.4-0.1,0.7v4.7h-1.4V95.3z"
		/>
	<path class="st13" d="M275.7,97.4c0,1.9,1.2,2.7,2.7,2.7c1,0,1.6-0.2,2.1-0.4l0.2,1c-0.5,0.2-1.3,0.5-2.6,0.5
		c-2.4,0-3.8-1.6-3.8-3.9s1.4-4.2,3.6-4.2c2.5,0,3.2,2.2,3.2,3.6c0,0.3,0,0.5,0,0.7H275.7z M279.8,96.4c0-0.9-0.4-2.3-2-2.3
		c-1.4,0-2,1.3-2.2,2.3H279.8z"/>
	<path class="st13" d="M282.9,95.3c0-0.8,0-1.5-0.1-2.1h1.2l0.1,1.3h0c0.4-0.7,1.3-1.5,2.6-1.5c1.1,0,2.7,0.6,2.7,3.3v4.6h-1.4v-4.5
		c0-1.2-0.5-2.3-1.8-2.3c-0.9,0-1.6,0.7-1.9,1.4c-0.1,0.2-0.1,0.4-0.1,0.7v4.7h-1.4V95.3z"/>
	<path class="st13" d="M293.4,91v2.2h2v1.1h-2v4.2c0,1,0.3,1.5,1.1,1.5c0.4,0,0.6,0,0.8-0.1l0.1,1.1c-0.3,0.1-0.7,0.2-1.2,0.2
		c-0.7,0-1.2-0.2-1.5-0.6c-0.4-0.4-0.5-1.1-0.5-2v-4.2h-1.2v-1.1h1.2v-1.9L293.4,91z"/>
</g>
<g>
	<path class="st13" d="M98.5,79.8c0.6,0.4,1.8,0.9,2.9,0.9c1.6,0,2.3-0.8,2.3-1.8c0-1-0.6-1.6-2.2-2.2c-2.2-0.8-3.2-2-3.2-3.4
		c0-1.9,1.6-3.5,4.2-3.5c1.2,0,2.3,0.3,3,0.8l-0.6,1.6c-0.5-0.3-1.3-0.7-2.5-0.7c-1.3,0-2,0.8-2,1.6c0,1,0.7,1.5,2.3,2
		c2.1,0.8,3.2,1.8,3.2,3.6c0,2.1-1.6,3.6-4.5,3.6c-1.3,0-2.5-0.3-3.4-0.8L98.5,79.8z"/>
	<path class="st13" d="M115.4,82l-0.2-1.5h-0.1c-0.7,0.9-2,1.8-3.7,1.8c-2.4,0-3.7-1.7-3.7-3.5c0-2.9,2.6-4.5,7.3-4.5v-0.2
		c0-1-0.3-2.8-2.7-2.8c-1.1,0-2.3,0.3-3.1,0.9l-0.5-1.4c1-0.7,2.4-1.1,4-1.1c3.7,0,4.6,2.5,4.6,4.9v4.5c0,1,0.1,2.1,0.2,2.9H115.4z
		 M115.1,75.8c-2.4,0-5.1,0.4-5.1,2.7c0,1.4,0.9,2.1,2.1,2.1c1.6,0,2.6-1,2.9-2c0.1-0.2,0.1-0.5,0.1-0.7V75.8z"/>
	<path class="st13" d="M120.8,64.3h2.2V82h-2.2V64.3z"/>
	<path class="st13" d="M127.9,76.4c0,3,1.9,4.2,4.1,4.2c1.6,0,2.5-0.3,3.3-0.6l0.4,1.6c-0.8,0.3-2.1,0.8-4,0.8
		c-3.7,0-5.9-2.4-5.9-6.1s2.1-6.5,5.7-6.5c3.9,0,5,3.5,5,5.7c0,0.5,0,0.8-0.1,1H127.9z M134.3,74.8c0-1.4-0.6-3.6-3-3.6
		c-2.2,0-3.2,2-3.4,3.6H134.3z"/>
	<path class="st13" d="M138.9,79.8c0.6,0.4,1.8,0.9,2.9,0.9c1.6,0,2.3-0.8,2.3-1.8c0-1-0.6-1.6-2.2-2.2c-2.2-0.8-3.2-2-3.2-3.4
		c0-1.9,1.6-3.5,4.2-3.5c1.2,0,2.3,0.3,3,0.8l-0.6,1.6c-0.5-0.3-1.3-0.7-2.5-0.7c-1.3,0-2,0.8-2,1.6c0,1,0.7,1.5,2.3,2
		c2.1,0.8,3.2,1.8,3.2,3.6c0,2.1-1.6,3.6-4.5,3.6c-1.3,0-2.5-0.3-3.4-0.8L138.9,79.8z"/>
	<path class="st13" d="M155.6,76.4c0,3,1.9,4.2,4.1,4.2c1.6,0,2.5-0.3,3.3-0.6l0.4,1.6c-0.8,0.3-2.1,0.8-4,0.8
		c-3.7,0-5.9-2.4-5.9-6.1s2.1-6.5,5.7-6.5c3.9,0,5,3.5,5,5.7c0,0.5,0,0.8-0.1,1H155.6z M162.1,74.8c0-1.4-0.6-3.6-3-3.6
		c-2.2,0-3.2,2-3.4,3.6H162.1z"/>
	<path class="st13" d="M166.9,73.2c0-1.2,0-2.3-0.1-3.3h1.9l0.1,2h0.1c0.6-1.1,2-2.3,4-2.3c1.7,0,4.3,1,4.3,5.1V82H175v-7
		c0-1.9-0.7-3.6-2.8-3.6c-1.4,0-2.6,1-2.9,2.2c-0.1,0.3-0.1,0.6-0.1,1V82h-2.2V73.2z"/>
	<path class="st13" d="M187.5,82l-0.2-1.5h-0.1c-0.7,0.9-2,1.8-3.7,1.8c-2.4,0-3.7-1.7-3.7-3.5c0-2.9,2.6-4.5,7.3-4.5v-0.2
		c0-1-0.3-2.8-2.7-2.8c-1.1,0-2.3,0.3-3.1,0.9l-0.5-1.4c1-0.7,2.4-1.1,4-1.1c3.7,0,4.6,2.5,4.6,4.9v4.5c0,1,0.1,2.1,0.2,2.9H187.5z
		 M187.2,75.8c-2.4,0-5.1,0.4-5.1,2.7c0,1.4,0.9,2.1,2.1,2.1c1.6,0,2.6-1,2.9-2c0.1-0.2,0.1-0.5,0.1-0.7V75.8z"/>
	<path class="st13" d="M192.7,82c0-0.8,0.1-2,0.1-3.1V64.3h2.2v7.6h0c0.8-1.3,2.2-2.2,4.1-2.2c3,0,5.1,2.5,5.1,6.2
		c0,4.3-2.7,6.5-5.4,6.5c-1.7,0-3.1-0.7-4-2.3h-0.1l-0.1,2H192.7z M195,77.2c0,0.3,0,0.5,0.1,0.8c0.4,1.5,1.7,2.6,3.3,2.6
		c2.3,0,3.7-1.9,3.7-4.6c0-2.4-1.2-4.5-3.6-4.5c-1.5,0-2.9,1-3.3,2.7c0,0.2-0.1,0.5-0.1,0.9V77.2z"/>
	<path class="st13" d="M207.1,64.3h2.2V82h-2.2V64.3z"/>
	<path class="st13" d="M214.2,76.4c0,3,1.9,4.2,4.1,4.2c1.6,0,2.5-0.3,3.3-0.6l0.4,1.6c-0.8,0.3-2.1,0.8-4,0.8
		c-3.7,0-5.9-2.4-5.9-6.1s2.1-6.5,5.7-6.5c3.9,0,5,3.5,5,5.7c0,0.5,0,0.8-0.1,1H214.2z M220.6,74.8c0-1.4-0.6-3.6-3-3.6
		c-2.2,0-3.2,2-3.4,3.6H220.6z"/>
	<path class="st13" d="M225.5,73.2c0-1.2,0-2.3-0.1-3.3h1.9l0.1,1.9h0.1c0.7-1.1,1.8-2.2,3.8-2.2c1.6,0,2.9,1,3.4,2.4h0
		c0.4-0.7,0.9-1.2,1.3-1.6c0.7-0.5,1.5-0.8,2.7-0.8c1.6,0,4,1,4,5.2V82h-2.1v-6.8c0-2.3-0.8-3.7-2.6-3.7c-1.2,0-2.2,0.9-2.6,2
		c-0.1,0.3-0.2,0.7-0.2,1.1V82h-2.1v-7.2c0-1.9-0.8-3.3-2.5-3.3c-1.4,0-2.4,1.1-2.7,2.2c-0.1,0.3-0.2,0.7-0.2,1.1V82h-2.1V73.2z"/>
	<path class="st13" d="M247.6,76.4c0,3,1.9,4.2,4.1,4.2c1.6,0,2.5-0.3,3.3-0.6l0.4,1.6c-0.8,0.3-2.1,0.8-4,0.8
		c-3.7,0-5.9-2.4-5.9-6.1s2.1-6.5,5.7-6.5c3.9,0,5,3.5,5,5.7c0,0.5-0.1,0.8-0.1,1H247.6z M254,74.8c0-1.4-0.6-3.6-3-3.6
		c-2.2,0-3.2,2-3.4,3.6H254z"/>
	<path class="st13" d="M258.9,73.2c0-1.2,0-2.3-0.1-3.3h1.9l0.1,2h0c0.6-1.1,2-2.3,4-2.3c1.7,0,4.3,1,4.3,5.1V82H267v-7
		c0-1.9-0.7-3.6-2.8-3.6c-1.4,0-2.6,1-2.9,2.2c-0.1,0.3-0.1,0.6-0.1,1V82h-2.2V73.2z"/>
	<path class="st13" d="M275.3,66.4v3.5h3.1v1.7h-3.1v6.5c0,1.5,0.4,2.3,1.6,2.3c0.6,0,1-0.1,1.3-0.1l0.1,1.6
		c-0.4,0.2-1.1,0.3-1.9,0.3c-1,0-1.8-0.3-2.4-0.9c-0.6-0.6-0.8-1.7-0.8-3.1v-6.6h-1.9v-1.7h1.9V67L275.3,66.4z"/>
</g>
<g>
	<path class="st13" d="M31.6,111.2c1.1,0.7,3,1.5,4.9,1.5c2.7,0,3.9-1.3,3.9-3c0-1.8-1-2.7-3.8-3.7c-3.7-1.3-5.4-3.3-5.4-5.8
		c0-3.3,2.6-6,7-6c2.1,0,3.9,0.6,5,1.3l-0.9,2.7C41.5,97.7,40,97,38.2,97c-2.2,0-3.4,1.3-3.4,2.8c0,1.7,1.2,2.4,3.9,3.4
		c3.5,1.3,5.3,3.1,5.3,6.1c0,3.6-2.8,6.1-7.6,6.1c-2.2,0-4.3-0.5-5.7-1.4L31.6,111.2z"/>
	<path class="st13" d="M60,115l-0.3-2.6h-0.1c-1.1,1.6-3.3,3-6.2,3c-4.1,0-6.2-2.9-6.2-5.8c0-4.9,4.4-7.6,12.2-7.6v-0.4
		c0-1.7-0.5-4.7-4.6-4.7c-1.9,0-3.9,0.6-5.3,1.5L48.6,96c1.7-1.1,4.1-1.8,6.7-1.8c6.2,0,7.7,4.2,7.7,8.3v7.6c0,1.8,0.1,3.5,0.3,4.9
		H60z M59.4,104.6c-4-0.1-8.6,0.6-8.6,4.6c0,2.4,1.6,3.5,3.5,3.5c2.6,0,4.3-1.7,4.9-3.4c0.1-0.4,0.2-0.8,0.2-1.2V104.6z"/>
	<path class="st13" d="M68.9,85.2h3.7V115h-3.7V85.2z"/>
	<path class="st13" d="M80.9,105.5c0.1,5,3.3,7.1,7,7.1c2.6,0,4.2-0.5,5.6-1l0.6,2.6c-1.3,0.6-3.5,1.3-6.8,1.3
		c-6.3,0-10-4.1-10-10.2c0-6.1,3.6-11,9.5-11c6.6,0,8.4,5.8,8.4,9.6c0,0.8-0.1,1.3-0.1,1.7H80.9z M91.8,102.9c0-2.4-1-6-5.1-6
		c-3.7,0-5.4,3.4-5.7,6H91.8z"/>
	<path class="st13" d="M99.4,111.2c1.1,0.7,3,1.5,4.9,1.5c2.7,0,3.9-1.3,3.9-3c0-1.8-1-2.7-3.8-3.7c-3.7-1.3-5.4-3.3-5.4-5.8
		c0-3.3,2.6-6,7-6c2.1,0,3.9,0.6,5,1.3l-0.9,2.7c-0.8-0.5-2.3-1.2-4.2-1.2c-2.2,0-3.4,1.3-3.4,2.8c0,1.7,1.2,2.4,3.9,3.4
		c3.5,1.3,5.3,3.1,5.3,6.1c0,3.6-2.8,6.1-7.6,6.1c-2.2,0-4.3-0.5-5.7-1.4L99.4,111.2z"/>
</g>
<g>
	<path class="st14" d="M361.1,87.3v22.8c0,1.7,0,3.6,0.2,4.9h-3.1l-0.2-3.3H358c-1.1,2.1-3.4,3.7-6.4,3.7c-4.6,0-8.1-3.9-8.1-9.6
		c0-6.3,3.9-10.1,8.5-10.1c2.9,0,4.8,1.4,5.7,2.9h0.1V87.3H361.1z M357.7,103.8c0-0.4,0-1-0.2-1.4c-0.5-2.2-2.4-4-5-4
		c-3.5,0-5.7,3.1-5.7,7.3c0,3.8,1.9,7,5.6,7c2.3,0,4.4-1.5,5-4.1c0.1-0.5,0.2-0.9,0.2-1.5V103.8z"/>
	<path class="st14" d="M377.3,115l-0.3-2.4h-0.1c-1.1,1.5-3.1,2.8-5.8,2.8c-3.8,0-5.8-2.7-5.8-5.4c0-4.6,4.1-7.1,11.3-7v-0.4
		c0-1.6-0.4-4.4-4.3-4.4c-1.8,0-3.6,0.5-4.9,1.4l-0.8-2.3c1.6-1,3.8-1.7,6.2-1.7c5.8,0,7.2,3.9,7.2,7.7v7.1c0,1.6,0.1,3.2,0.3,4.5
		H377.3z M376.8,105.4c-3.7-0.1-8,0.6-8,4.3c0,2.2,1.5,3.3,3.2,3.3c2.5,0,4-1.6,4.6-3.2c0.1-0.4,0.2-0.7,0.2-1.1V105.4z"/>
	<path class="st14" d="M389.6,90.7v5.4h4.9v2.6h-4.9v10.2c0,2.3,0.7,3.7,2.6,3.7c0.9,0,1.6-0.1,2-0.2l0.2,2.6
		c-0.7,0.3-1.7,0.5-3,0.5c-1.6,0-2.9-0.5-3.7-1.4c-1-1-1.3-2.7-1.3-4.9V98.7h-2.9v-2.6h2.9v-4.5L389.6,90.7z"/>
	<path class="st14" d="M408.8,115l-0.3-2.4h-0.1c-1.1,1.5-3.1,2.8-5.8,2.8c-3.8,0-5.8-2.7-5.8-5.4c0-4.6,4.1-7.1,11.3-7v-0.4
		c0-1.6-0.4-4.4-4.3-4.4c-1.8,0-3.6,0.5-4.9,1.4l-0.8-2.3c1.6-1,3.8-1.7,6.2-1.7c5.8,0,7.2,3.9,7.2,7.7v7.1c0,1.6,0.1,3.2,0.3,4.5
		H408.8z M408.3,105.4c-3.7-0.1-8,0.6-8,4.3c0,2.2,1.5,3.3,3.2,3.3c2.5,0,4-1.6,4.6-3.2c0.1-0.4,0.2-0.7,0.2-1.1V105.4z"/>
	<path class="st14" d="M425.3,115c0.1-1.3,0.2-3.2,0.2-4.9V87.3h3.4v11.9h0.1c1.2-2.1,3.4-3.5,6.4-3.5c4.7,0,8,3.9,8,9.6
		c0,6.7-4.3,10.1-8.5,10.1c-2.7,0-4.9-1.1-6.3-3.5h-0.1l-0.2,3.1H425.3z M428.9,107.4c0,0.4,0.1,0.9,0.2,1.2c0.7,2.4,2.7,4,5.1,4
		c3.6,0,5.7-2.9,5.7-7.3c0-3.8-2-7-5.6-7c-2.3,0-4.5,1.6-5.2,4.2c-0.1,0.4-0.2,0.9-0.2,1.4V107.4z"/>
	<path class="st14" d="M463.4,109.9c0,2,0,3.7,0.2,5.1h-3l-0.2-3.1h-0.1c-0.9,1.5-2.9,3.5-6.2,3.5c-3,0-6.5-1.6-6.5-8.3v-11h3.4
		v10.5c0,3.6,1.1,6,4.2,6c2.3,0,3.9-1.6,4.5-3.1c0.2-0.5,0.3-1.1,0.3-1.8V96.1h3.4V109.9z"/>
	<path class="st14" d="M473,90.8c0,1.2-0.8,2.1-2.2,2.1c-1.2,0-2.1-0.9-2.1-2.1c0-1.2,0.9-2.1,2.1-2.1C472.1,88.7,473,89.6,473,90.8
		z M469.1,115V96.1h3.4V115H469.1z"/>
	<path class="st14" d="M478.3,87.3h3.4V115h-3.4V87.3z"/>
	<path class="st14" d="M503.8,87.3v22.8c0,1.7,0,3.6,0.2,4.9h-3.1l-0.2-3.3h-0.1c-1.1,2.1-3.4,3.7-6.4,3.7c-4.6,0-8.1-3.9-8.1-9.6
		c0-6.3,3.9-10.1,8.5-10.1c2.9,0,4.8,1.4,5.7,2.9h0.1V87.3H503.8z M500.3,103.8c0-0.4,0-1-0.2-1.4c-0.5-2.2-2.4-4-5-4
		c-3.5,0-5.7,3.1-5.7,7.3c0,3.8,1.9,7,5.6,7c2.3,0,4.4-1.5,5-4.1c0.1-0.5,0.2-0.9,0.2-1.5V103.8z"/>
	<path class="st14" d="M509,111.5c1,0.7,2.8,1.4,4.5,1.4c2.5,0,3.7-1.2,3.7-2.8c0-1.6-1-2.5-3.5-3.5c-3.4-1.2-5-3.1-5-5.3
		c0-3,2.5-5.5,6.5-5.5c1.9,0,3.6,0.5,4.6,1.2l-0.9,2.5c-0.7-0.5-2.1-1.1-3.9-1.1c-2,0-3.2,1.2-3.2,2.6c0,1.6,1.1,2.3,3.6,3.2
		c3.3,1.2,5,2.9,5,5.7c0,3.3-2.6,5.7-7.1,5.7c-2.1,0-4-0.5-5.3-1.3L509,111.5z"/>
</g>
<g>
	<path class="st14" d="M392.2,125.3c0-0.8,0-1.5-0.1-2.1h1.2l0.1,1.2h0c0.4-0.7,1.2-1.4,2.4-1.4c1.1,0,1.9,0.6,2.2,1.6h0
		c0.2-0.4,0.5-0.8,0.9-1c0.5-0.4,1-0.5,1.7-0.5c1,0,2.5,0.7,2.5,3.4v4.6h-1.4v-4.4c0-1.5-0.5-2.4-1.7-2.4c-0.8,0-1.4,0.6-1.7,1.3
		c-0.1,0.2-0.1,0.4-0.1,0.7v4.8H397v-4.6c0-1.2-0.5-2.1-1.6-2.1c-0.9,0-1.5,0.7-1.7,1.4c-0.1,0.2-0.1,0.4-0.1,0.7v4.7h-1.4V125.3z"
		/>
	<path class="st14" d="M409.8,131l-0.1-1h0c-0.4,0.6-1.3,1.2-2.4,1.2c-1.6,0-2.4-1.1-2.4-2.2c0-1.9,1.7-2.9,4.7-2.9v-0.2
		c0-0.6-0.2-1.8-1.8-1.8c-0.7,0-1.5,0.2-2,0.6l-0.3-0.9c0.6-0.4,1.6-0.7,2.5-0.7c2.4,0,2.9,1.6,2.9,3.2v2.9c0,0.7,0,1.3,0.1,1.9
		H409.8z M409.6,127c-1.5,0-3.3,0.2-3.3,1.7c0,0.9,0.6,1.3,1.3,1.3c1,0,1.6-0.6,1.9-1.3c0-0.1,0.1-0.3,0.1-0.4V127z"/>
	<path class="st14" d="M413.2,125.7c0-0.9,0-1.7-0.1-2.4h1.2l0,1.5h0.1c0.4-1,1.2-1.7,2.1-1.7c0.2,0,0.3,0,0.4,0v1.3
		c-0.1,0-0.3,0-0.5,0c-1,0-1.7,0.8-1.9,1.8c0,0.2-0.1,0.4-0.1,0.7v4.1h-1.4V125.7z"/>
	<path class="st14" d="M419.9,126.8L419.9,126.8c0.2-0.3,0.5-0.6,0.7-0.9l2.3-2.7h1.7l-3,3.2l3.4,4.6h-1.7l-2.7-3.7l-0.7,0.8v2.9
		h-1.4v-11.4h1.4V126.8z"/>
	<path class="st14" d="M426.8,127.4c0,1.9,1.2,2.7,2.7,2.7c1,0,1.6-0.2,2.1-0.4l0.2,1c-0.5,0.2-1.3,0.5-2.6,0.5
		c-2.4,0-3.8-1.6-3.8-3.9s1.4-4.2,3.6-4.2c2.5,0,3.2,2.2,3.2,3.6c0,0.3,0,0.5,0,0.7H426.8z M430.9,126.4c0-0.9-0.4-2.3-2-2.3
		c-1.4,0-2,1.3-2.2,2.3H430.9z"/>
	<path class="st14" d="M435.7,121v2.2h2v1.1h-2v4.2c0,1,0.3,1.5,1.1,1.5c0.4,0,0.6,0,0.8-0.1l0.1,1.1c-0.3,0.1-0.7,0.2-1.2,0.2
		c-0.7,0-1.2-0.2-1.5-0.6c-0.4-0.4-0.5-1.1-0.5-2v-4.2h-1.2v-1.1h1.2v-1.9L435.7,121z"/>
	<path class="st14" d="M444.3,121.1c0,0.5-0.3,0.9-0.9,0.9c-0.5,0-0.8-0.4-0.8-0.9c0-0.5,0.4-0.9,0.9-0.9
		C444,120.2,444.3,120.6,444.3,121.1z M442.7,131v-7.7h1.4v7.7H442.7z"/>
	<path class="st14" d="M446.5,125.3c0-0.8,0-1.5-0.1-2.1h1.2l0.1,1.3h0c0.4-0.7,1.3-1.5,2.6-1.5c1.1,0,2.7,0.6,2.7,3.3v4.6h-1.4
		v-4.5c0-1.2-0.5-2.3-1.8-2.3c-0.9,0-1.6,0.7-1.9,1.4c-0.1,0.2-0.1,0.4-0.1,0.7v4.7h-1.4V125.3z"/>
	<path class="st14" d="M457,121v2.2h2v1.1h-2v4.2c0,1,0.3,1.5,1.1,1.5c0.4,0,0.6,0,0.8-0.1l0.1,1.1c-0.3,0.1-0.7,0.2-1.2,0.2
		c-0.7,0-1.2-0.2-1.5-0.6c-0.4-0.4-0.5-1.1-0.5-2v-4.2h-1.2v-1.1h1.2v-1.9L457,121z"/>
	<path class="st14" d="M461.3,127.4c0,1.9,1.2,2.7,2.7,2.7c1,0,1.6-0.2,2.1-0.4l0.2,1c-0.5,0.2-1.3,0.5-2.6,0.5
		c-2.4,0-3.8-1.6-3.8-3.9s1.4-4.2,3.6-4.2c2.5,0,3.2,2.2,3.2,3.6c0,0.3,0,0.5,0,0.7H461.3z M465.4,126.4c0-0.9-0.4-2.3-2-2.3
		c-1.4,0-2,1.3-2.2,2.3H465.4z"/>
	<path class="st14" d="M468.5,119.6h1.4V131h-1.4V119.6z"/>
	<path class="st14" d="M472.3,119.6h1.4V131h-1.4V119.6z"/>
	<path class="st14" d="M477.6,121.1c0,0.5-0.3,0.9-0.9,0.9c-0.5,0-0.8-0.4-0.8-0.9c0-0.5,0.4-0.9,0.9-0.9
		C477.3,120.2,477.6,120.6,477.6,121.1z M476.1,131v-7.7h1.4v7.7H476.1z"/>
	<path class="st14" d="M486.5,123.3c0,0.6-0.1,1.2-0.1,2.1v4.5c0,1.8-0.4,2.9-1.1,3.5c-0.8,0.7-1.8,0.9-2.8,0.9
		c-0.9,0-2-0.2-2.6-0.6l0.4-1.1c0.5,0.3,1.3,0.6,2.3,0.6c1.4,0,2.5-0.8,2.5-2.7v-0.9h0c-0.4,0.7-1.3,1.3-2.5,1.3
		c-1.9,0-3.3-1.6-3.3-3.8c0-2.6,1.7-4.1,3.5-4.1c1.3,0,2.1,0.7,2.4,1.3h0l0.1-1.2H486.5z M485,126.3c0-0.2,0-0.4-0.1-0.6
		c-0.3-0.8-0.9-1.5-2-1.5c-1.3,0-2.3,1.1-2.3,2.9c0,1.5,0.8,2.8,2.3,2.8c0.9,0,1.6-0.5,2-1.4c0.1-0.2,0.1-0.5,0.1-0.8V126.3z"/>
	<path class="st14" d="M489.5,127.4c0,1.9,1.2,2.7,2.7,2.7c1,0,1.6-0.2,2.1-0.4l0.2,1c-0.5,0.2-1.3,0.5-2.6,0.5
		c-2.4,0-3.8-1.6-3.8-3.9s1.4-4.2,3.6-4.2c2.5,0,3.2,2.2,3.2,3.6c0,0.3,0,0.5,0,0.7H489.5z M493.7,126.4c0-0.9-0.4-2.3-2-2.3
		c-1.4,0-2,1.3-2.2,2.3H493.7z"/>
	<path class="st14" d="M496.8,125.3c0-0.8,0-1.5-0.1-2.1h1.2l0.1,1.3h0c0.4-0.7,1.3-1.5,2.6-1.5c1.1,0,2.7,0.6,2.7,3.3v4.6h-1.4
		v-4.5c0-1.2-0.5-2.3-1.8-2.3c-0.9,0-1.6,0.7-1.9,1.4c-0.1,0.2-0.1,0.4-0.1,0.7v4.7h-1.4V125.3z"/>
	<path class="st14" d="M511.2,130.7c-0.4,0.2-1.2,0.4-2.2,0.4c-2.3,0-3.9-1.6-3.9-4c0-2.4,1.6-4.1,4.2-4.1c0.8,0,1.6,0.2,2,0.4
		l-0.3,1.1c-0.3-0.2-0.9-0.4-1.6-0.4c-1.8,0-2.7,1.3-2.7,2.9c0,1.8,1.2,2.9,2.7,2.9c0.8,0,1.3-0.2,1.7-0.4L511.2,130.7z"/>
	<path class="st14" d="M513.5,127.4c0,1.9,1.2,2.7,2.7,2.7c1,0,1.6-0.2,2.1-0.4l0.2,1c-0.5,0.2-1.3,0.5-2.6,0.5
		c-2.4,0-3.8-1.6-3.8-3.9s1.4-4.2,3.6-4.2c2.5,0,3.2,2.2,3.2,3.6c0,0.3,0,0.5,0,0.7H513.5z M517.6,126.4c0-0.9-0.4-2.3-2-2.3
		c-1.4,0-2,1.3-2.2,2.3H517.6z"/>
</g>
<g>
	<path class="st14" d="M393.5,54.7c-0.4,0.2-1.3,0.5-2.5,0.5c-2.6,0-4.3-1.8-4.3-4.4c0-2.7,1.8-4.6,4.7-4.6c0.9,0,1.8,0.2,2.2,0.5
		l-0.4,1.2c-0.4-0.2-1-0.4-1.8-0.4c-2,0-3.1,1.5-3.1,3.3c0,2,1.3,3.3,3,3.3c0.9,0,1.5-0.2,1.9-0.4L393.5,54.7z"/>
	<path class="st14" d="M403.2,50.6c0,3.2-2.2,4.6-4.3,4.6c-2.4,0-4.2-1.7-4.2-4.5c0-2.9,1.9-4.6,4.3-4.6
		C401.5,46.1,403.2,47.9,403.2,50.6z M396.2,50.7c0,1.9,1.1,3.3,2.6,3.3c1.5,0,2.6-1.4,2.6-3.4c0-1.5-0.7-3.3-2.6-3.3
		C397.1,47.3,396.2,49,396.2,50.7z"/>
	<path class="st14" d="M405.2,48.6c0-0.9,0-1.6-0.1-2.4h1.4l0.1,1.4h0.1c0.5-0.8,1.3-1.6,2.7-1.6c1.2,0,2.1,0.7,2.5,1.7h0
		c0.3-0.5,0.6-0.9,1-1.1c0.5-0.4,1.1-0.6,1.9-0.6c1.2,0,2.9,0.8,2.9,3.8V55H416v-4.9c0-1.7-0.6-2.7-1.9-2.7c-0.9,0-1.6,0.7-1.9,1.4
		c-0.1,0.2-0.1,0.5-0.1,0.8V55h-1.5v-5.2c0-1.4-0.6-2.4-1.8-2.4c-1,0-1.7,0.8-2,1.6c-0.1,0.2-0.1,0.5-0.1,0.8V55h-1.5V48.6z"/>
	<path class="st14" d="M420.2,49.1c0-1.1,0-2-0.1-2.8h1.4l0.1,1.5h0c0.6-1.1,1.7-1.7,3.1-1.7c2.1,0,3.7,1.8,3.7,4.4
		c0,3.1-1.9,4.7-4,4.7c-1.2,0-2.2-0.5-2.7-1.4h0v4.7h-1.6V49.1z M421.7,51.5c0,0.2,0,0.5,0.1,0.6c0.3,1.1,1.2,1.9,2.4,1.9
		c1.7,0,2.6-1.4,2.6-3.4c0-1.7-0.9-3.2-2.6-3.2c-1.1,0-2.1,0.8-2.4,2c-0.1,0.2-0.1,0.4-0.1,0.6V51.5z"/>
	<path class="st14" d="M431.3,50.9c0,2.1,1.4,3,3,3c1.1,0,1.8-0.2,2.4-0.5l0.3,1.1c-0.6,0.3-1.5,0.5-2.9,0.5c-2.7,0-4.3-1.8-4.3-4.4
		s1.5-4.7,4.1-4.7c2.8,0,3.6,2.5,3.6,4.1c0,0.3,0,0.6-0.1,0.7H431.3z M435.9,49.8c0-1-0.4-2.6-2.2-2.6c-1.6,0-2.3,1.5-2.4,2.6H435.9
		z"/>
	<path class="st14" d="M441.3,43.8v2.5h2.3v1.2h-2.3v4.7c0,1.1,0.3,1.7,1.2,1.7c0.4,0,0.7-0.1,0.9-0.1l0.1,1.2
		c-0.3,0.1-0.8,0.2-1.4,0.2c-0.7,0-1.3-0.2-1.7-0.7c-0.5-0.5-0.6-1.2-0.6-2.3v-4.8h-1.4v-1.2h1.4v-2.1L441.3,43.8z"/>
	<path class="st14" d="M447.1,43.8c0,0.5-0.4,1-1,1c-0.6,0-1-0.4-1-1c0-0.6,0.4-1,1-1C446.8,42.8,447.1,43.3,447.1,43.8z M445.4,55
		v-8.7h1.6V55H445.4z"/>
	<path class="st14" d="M451.5,43.8v2.5h2.3v1.2h-2.3v4.7c0,1.1,0.3,1.7,1.2,1.7c0.4,0,0.7-0.1,0.9-0.1l0.1,1.2
		c-0.3,0.1-0.8,0.2-1.4,0.2c-0.7,0-1.3-0.2-1.7-0.7c-0.5-0.5-0.6-1.2-0.6-2.3v-4.8h-1.4v-1.2h1.4v-2.1L451.5,43.8z"/>
	<path class="st14" d="M463.3,50.6c0,3.2-2.2,4.6-4.3,4.6c-2.4,0-4.2-1.7-4.2-4.5c0-2.9,1.9-4.6,4.3-4.6
		C461.6,46.1,463.3,47.9,463.3,50.6z M456.4,50.7c0,1.9,1.1,3.3,2.6,3.3c1.5,0,2.6-1.4,2.6-3.4c0-1.5-0.7-3.3-2.6-3.3
		C457.2,47.3,456.4,49,456.4,50.7z"/>
	<path class="st14" d="M465.3,49c0-1,0-1.9-0.1-2.7h1.4l0.1,1.7h0.1c0.4-1.2,1.4-1.9,2.4-1.9c0.2,0,0.3,0,0.5,0.1v1.5
		c-0.2,0-0.3-0.1-0.5-0.1c-1.1,0-1.9,0.8-2.1,2c0,0.2-0.1,0.5-0.1,0.7V55h-1.6V49z"/>
	<path class="st14" d="M475,49c0-1,0-1.9-0.1-2.7h1.4l0.1,1.7h0.1c0.4-1.2,1.4-1.9,2.4-1.9c0.2,0,0.3,0,0.4,0.1v1.5
		c-0.2,0-0.3-0.1-0.5-0.1c-1.1,0-1.9,0.8-2.1,2c0,0.2-0.1,0.5-0.1,0.7V55H475V49z"/>
	<path class="st14" d="M481.6,50.9c0,2.1,1.4,3,3,3c1.1,0,1.8-0.2,2.4-0.5l0.3,1.1c-0.6,0.3-1.5,0.5-2.9,0.5c-2.7,0-4.3-1.8-4.3-4.4
		s1.5-4.7,4.1-4.7c2.8,0,3.6,2.5,3.6,4.1c0,0.3,0,0.6-0.1,0.7H481.6z M486.3,49.8c0-1-0.4-2.6-2.2-2.6c-1.6,0-2.3,1.5-2.4,2.6H486.3
		z"/>
	<path class="st14" d="M489.5,53.4c0.5,0.3,1.3,0.6,2.1,0.6c1.2,0,1.7-0.6,1.7-1.3c0-0.8-0.5-1.2-1.6-1.6c-1.6-0.6-2.3-1.4-2.3-2.5
		c0-1.4,1.1-2.6,3-2.6c0.9,0,1.7,0.3,2.1,0.5l-0.4,1.2c-0.3-0.2-1-0.5-1.8-0.5c-0.9,0-1.5,0.5-1.5,1.2c0,0.7,0.5,1,1.7,1.5
		c1.5,0.6,2.3,1.3,2.3,2.6c0,1.5-1.2,2.6-3.3,2.6c-1,0-1.8-0.2-2.4-0.6L489.5,53.4z"/>
	<path class="st14" d="M497.8,50.9c0,2.1,1.4,3,3,3c1.1,0,1.8-0.2,2.4-0.5l0.3,1.1c-0.6,0.3-1.5,0.5-2.9,0.5c-2.7,0-4.3-1.8-4.3-4.4
		s1.5-4.7,4.1-4.7c2.8,0,3.6,2.5,3.6,4.1c0,0.3,0,0.6-0.1,0.7H497.8z M502.4,49.8c0-1-0.4-2.6-2.2-2.6c-1.6,0-2.3,1.5-2.4,2.6H502.4
		z"/>
	<path class="st14" d="M510.7,55l-0.1-1.1h-0.1c-0.5,0.7-1.4,1.3-2.7,1.3c-1.8,0-2.7-1.2-2.7-2.5c0-2.1,1.9-3.3,5.2-3.2v-0.2
		c0-0.7-0.2-2-2-2c-0.8,0-1.7,0.3-2.3,0.6l-0.4-1c0.7-0.5,1.8-0.8,2.9-0.8c2.7,0,3.3,1.8,3.3,3.6v3.3c0,0.8,0,1.5,0.1,2.1H510.7z
		 M510.5,50.6c-1.7,0-3.7,0.3-3.7,2c0,1,0.7,1.5,1.5,1.5c1.1,0,1.9-0.7,2.1-1.5c0.1-0.2,0.1-0.3,0.1-0.5V50.6z"/>
	<path class="st14" d="M514.6,49c0-1,0-1.9-0.1-2.7h1.4l0.1,1.7h0.1c0.4-1.2,1.4-1.9,2.4-1.9c0.2,0,0.3,0,0.5,0.1v1.5
		c-0.2,0-0.3-0.1-0.5-0.1c-1.1,0-1.9,0.8-2.1,2c0,0.2-0.1,0.5-0.1,0.7V55h-1.6V49z"/>
	<path class="st14" d="M526.5,54.7c-0.4,0.2-1.3,0.5-2.5,0.5c-2.6,0-4.3-1.8-4.3-4.4c0-2.7,1.8-4.6,4.7-4.6c0.9,0,1.8,0.2,2.2,0.5
		l-0.4,1.2c-0.4-0.2-1-0.4-1.8-0.4c-2,0-3.1,1.5-3.1,3.3c0,2,1.3,3.3,3,3.3c0.9,0,1.5-0.2,1.9-0.4L526.5,54.7z"/>
	<path class="st14" d="M528.3,42.2h1.6v5.4h0c0.3-0.5,0.6-0.8,1.1-1.1c0.5-0.3,1-0.5,1.6-0.5c1.2,0,3,0.7,3,3.7V55h-1.6v-5
		c0-1.4-0.5-2.6-2-2.6c-1,0-1.8,0.7-2.1,1.6c-0.1,0.2-0.1,0.5-0.1,0.8V55h-1.6V42.2z"/>
</g>
<g>
	<path class="st14" d="M333.8,71.2c0-1.2,0-2.3-0.1-3.3h1.9l0.1,1.9h0.1c0.7-1.1,1.8-2.2,3.8-2.2c1.6,0,2.9,1,3.4,2.4h0.1
		c0.4-0.7,0.8-1.2,1.3-1.6c0.7-0.5,1.5-0.8,2.7-0.8c1.6,0,4,1,4,5.2V80h-2.1v-6.8c0-2.3-0.9-3.7-2.6-3.7c-1.2,0-2.2,0.9-2.6,2
		c-0.1,0.3-0.2,0.7-0.2,1.1V80h-2.1v-7.2c0-1.9-0.8-3.3-2.5-3.3c-1.4,0-2.4,1.1-2.7,2.2c-0.1,0.3-0.2,0.7-0.2,1.1V80h-2.1V71.2z"/>
	<path class="st14" d="M361.4,80l-0.2-1.5h-0.1c-0.7,0.9-2,1.8-3.7,1.8c-2.5,0-3.7-1.7-3.7-3.5c0-2.9,2.6-4.5,7.3-4.5v-0.2
		c0-1-0.3-2.8-2.8-2.8c-1.1,0-2.3,0.3-3.1,0.9l-0.5-1.4c1-0.7,2.4-1.1,4-1.1c3.7,0,4.6,2.5,4.6,4.9v4.5c0,1,0,2.1,0.2,2.9H361.4z
		 M361,73.8c-2.4,0-5.1,0.4-5.1,2.7c0,1.4,1,2.1,2.1,2.1c1.6,0,2.6-1,2.9-2c0.1-0.2,0.1-0.5,0.1-0.7V73.8z"/>
	<path class="st14" d="M366.7,71.7c0-1.4,0-2.6-0.1-3.8h1.9l0.1,2.4h0.1c0.5-1.6,1.9-2.6,3.3-2.6c0.2,0,0.4,0,0.6,0.1v2.1
		c-0.2,0-0.4-0.1-0.8-0.1c-1.5,0-2.6,1.2-2.9,2.8c0,0.3-0.1,0.7-0.1,1V80h-2.2V71.7z"/>
	<path class="st14" d="M377.2,73.5L377.2,73.5c0.3-0.4,0.8-0.9,1.1-1.4l3.5-4.2h2.6l-4.7,5l5.3,7.1h-2.7l-4.2-5.8l-1.1,1.2V80H375
		V62.3h2.2V73.5z"/>
	<path class="st14" d="M387.9,74.4c0.1,3,2,4.2,4.1,4.2c1.6,0,2.5-0.3,3.3-0.6l0.4,1.6c-0.8,0.3-2.1,0.8-4,0.8
		c-3.7,0-5.9-2.4-5.9-6.1s2.1-6.5,5.7-6.5c3.9,0,5,3.5,5,5.7c0,0.5,0,0.8-0.1,1H387.9z M394.4,72.8c0-1.4-0.6-3.6-3-3.6
		c-2.2,0-3.2,2-3.4,3.6H394.4z"/>
	<path class="st14" d="M401.9,64.4v3.5h3.1v1.7h-3.1v6.5c0,1.5,0.4,2.3,1.6,2.3c0.6,0,1-0.1,1.3-0.1l0.1,1.6
		c-0.4,0.2-1.1,0.3-1.9,0.3c-1,0-1.8-0.3-2.4-0.9c-0.6-0.6-0.8-1.7-0.8-3.1v-6.6h-1.9v-1.7h1.9V65L401.9,64.4z"/>
	<path class="st14" d="M413,80V69.6h-1.7v-1.7h1.7v-0.6c0-1.7,0.4-3.2,1.4-4.2c0.8-0.8,1.9-1.1,2.9-1.1c0.8,0,1.4,0.2,1.9,0.3
		L419,64c-0.3-0.2-0.8-0.3-1.4-0.3c-1.9,0-2.3,1.6-2.3,3.5v0.7h2.9v1.7h-2.9V80H413z"/>
	<path class="st14" d="M430.7,73.9c0,4.5-3.1,6.4-6,6.4c-3.3,0-5.8-2.4-5.8-6.2c0-4,2.6-6.4,6-6.4C428.4,67.6,430.7,70.2,430.7,73.9
		z M421.1,74c0,2.6,1.5,4.6,3.7,4.6c2.1,0,3.7-2,3.7-4.7c0-2-1-4.6-3.6-4.6S421.1,71.7,421.1,74z"/>
	<path class="st14" d="M433.5,71.7c0-1.4,0-2.6-0.1-3.8h1.9l0.1,2.4h0.1c0.5-1.6,1.9-2.6,3.3-2.6c0.2,0,0.4,0,0.6,0.1v2.1
		c-0.2,0-0.4-0.1-0.8-0.1c-1.5,0-2.6,1.2-2.9,2.8c0,0.3-0.1,0.7-0.1,1V80h-2.2V71.7z"/>
	<path class="st14" d="M442.7,74.4c0.1,3,2,4.2,4.1,4.2c1.6,0,2.5-0.3,3.3-0.6l0.4,1.6c-0.8,0.3-2.1,0.8-4,0.8
		c-3.7,0-5.9-2.4-5.9-6.1s2.1-6.5,5.7-6.5c3.9,0,5,3.5,5,5.7c0,0.5,0,0.8-0.1,1H442.7z M449.1,72.8c0-1.4-0.6-3.6-3-3.6
		c-2.2,0-3.2,2-3.4,3.6H449.1z"/>
	<path class="st14" d="M462.6,79.5c-0.6,0.3-1.8,0.7-3.5,0.7c-3.6,0-6-2.5-6-6.2c0-3.7,2.5-6.4,6.5-6.4c1.3,0,2.4,0.3,3,0.6
		l-0.5,1.7c-0.5-0.3-1.4-0.6-2.5-0.6c-2.8,0-4.3,2-4.3,4.6c0,2.8,1.8,4.5,4.2,4.5c1.2,0,2.1-0.3,2.7-0.6L462.6,79.5z"/>
	<path class="st14" d="M471.9,80l-0.2-1.5h-0.1c-0.7,0.9-2,1.8-3.7,1.8c-2.5,0-3.7-1.7-3.7-3.5c0-2.9,2.6-4.5,7.3-4.5v-0.2
		c0-1-0.3-2.8-2.8-2.8c-1.1,0-2.3,0.3-3.1,0.9l-0.5-1.4c1-0.7,2.4-1.1,4-1.1c3.7,0,4.6,2.5,4.6,4.9v4.5c0,1,0,2.1,0.2,2.9H471.9z
		 M471.5,73.8c-2.4,0-5.1,0.4-5.1,2.7c0,1.4,1,2.1,2.1,2.1c1.6,0,2.6-1,2.9-2c0.1-0.2,0.1-0.5,0.1-0.7V73.8z"/>
	<path class="st14" d="M476.9,77.8c0.7,0.4,1.8,0.9,2.9,0.9c1.6,0,2.3-0.8,2.3-1.8c0-1-0.6-1.6-2.2-2.2c-2.2-0.8-3.2-2-3.2-3.4
		c0-1.9,1.6-3.5,4.2-3.5c1.2,0,2.3,0.3,3,0.8l-0.5,1.6c-0.5-0.3-1.3-0.7-2.5-0.7c-1.3,0-2,0.8-2,1.6c0,1,0.7,1.5,2.3,2
		c2.1,0.8,3.2,1.8,3.2,3.6c0,2.1-1.6,3.6-4.5,3.6c-1.3,0-2.5-0.3-3.4-0.8L476.9,77.8z"/>
	<path class="st14" d="M489.8,64.4v3.5h3.1v1.7h-3.1v6.5c0,1.5,0.4,2.3,1.6,2.3c0.6,0,1-0.1,1.3-0.1l0.1,1.6
		c-0.4,0.2-1.1,0.3-1.9,0.3c-1,0-1.8-0.3-2.4-0.9c-0.6-0.6-0.8-1.7-0.8-3.1v-6.6h-1.9v-1.7h1.9V65L489.8,64.4z"/>
	<path class="st14" d="M495.1,77.8c0.7,0.4,1.8,0.9,2.9,0.9c1.6,0,2.3-0.8,2.3-1.8c0-1-0.6-1.6-2.2-2.2c-2.2-0.8-3.2-2-3.2-3.4
		c0-1.9,1.6-3.5,4.2-3.5c1.2,0,2.3,0.3,3,0.8l-0.5,1.6c-0.5-0.3-1.3-0.7-2.5-0.7c-1.3,0-2,0.8-2,1.6c0,1,0.7,1.5,2.3,2
		c2.1,0.8,3.2,1.8,3.2,3.6c0,2.1-1.6,3.6-4.5,3.6c-1.3,0-2.5-0.3-3.4-0.8L495.1,77.8z"/>
</g>
<g>
	<path class="st0" d="M242.5,193.8c1.9-0.3,4.5-0.6,7.7-0.6c4,0,6.9,0.9,8.7,2.6c1.7,1.5,2.7,3.7,2.7,6.5c0,2.8-0.8,5-2.4,6.6
		c-2.1,2.3-5.6,3.4-9.5,3.4c-1.2,0-2.3,0-3.2-0.3v12.4h-4V193.8z M246.5,208.7c0.9,0.2,2,0.3,3.3,0.3c4.8,0,7.8-2.3,7.8-6.6
		c0-4.1-2.9-6.1-7.3-6.1c-1.7,0-3.1,0.1-3.8,0.3V208.7z"/>
	<path class="st0" d="M267,193.8c2-0.4,4.9-0.6,7.7-0.6c4.3,0,7,0.8,9,2.5c1.6,1.4,2.4,3.5,2.4,5.9c0,4.1-2.6,6.8-5.8,7.9v0.1
		c2.4,0.8,3.8,3,4.6,6.3c1,4.3,1.7,7.3,2.4,8.5H283c-0.5-0.9-1.2-3.5-2.1-7.4c-0.9-4.3-2.6-5.9-6.2-6H271v13.4h-4V193.8z M271,208
		h4.1c4.3,0,7-2.3,7-5.9c0-4-2.9-5.8-7.1-5.8c-1.9,0-3.3,0.2-4,0.4V208z"/>
</g>
<g>
	<path class="st0" d="M75.9,215v2.2h2v1.1h-2v4.2c0,1,0.3,1.5,1.1,1.5c0.4,0,0.6,0,0.8-0.1l0.1,1.1c-0.3,0.1-0.7,0.2-1.2,0.2
		c-0.7,0-1.2-0.2-1.5-0.6c-0.4-0.4-0.5-1.1-0.5-2v-4.2h-1.2v-1.1h1.2v-1.9L75.9,215z"/>
	<path class="st0" d="M79.5,213.6h1.4v4.8h0c0.2-0.4,0.6-0.8,1-1c0.4-0.2,0.9-0.4,1.4-0.4c1,0,2.7,0.6,2.7,3.3v4.6h-1.4v-4.5
		c0-1.2-0.5-2.3-1.8-2.3c-0.9,0-1.6,0.6-1.9,1.4c-0.1,0.2-0.1,0.4-0.1,0.7v4.7h-1.4V213.6z"/>
	<path class="st0" d="M95.4,221.1c0,2.9-2,4.1-3.9,4.1c-2.1,0-3.7-1.5-3.7-4c0-2.6,1.7-4.1,3.8-4.1
		C93.9,217.1,95.4,218.7,95.4,221.1z M89.2,221.1c0,1.7,1,3,2.4,3c1.3,0,2.4-1.3,2.4-3c0-1.3-0.7-3-2.3-3
		C89.9,218.1,89.2,219.7,89.2,221.1z"/>
	<path class="st0" d="M103.6,222.9c0,0.8,0,1.5,0.1,2.1h-1.2l-0.1-1.3h0c-0.4,0.6-1.2,1.4-2.6,1.4c-1.2,0-2.7-0.7-2.7-3.4v-4.5h1.4
		v4.3c0,1.5,0.4,2.5,1.7,2.5c0.9,0,1.6-0.7,1.9-1.3c0.1-0.2,0.1-0.5,0.1-0.7v-4.8h1.4V222.9z"/>
	<path class="st0" d="M112.6,217.3c0,0.6-0.1,1.2-0.1,2.1v4.5c0,1.8-0.4,2.9-1.1,3.5c-0.8,0.7-1.8,0.9-2.8,0.9c-0.9,0-2-0.2-2.6-0.6
		l0.4-1.1c0.5,0.3,1.3,0.6,2.3,0.6c1.4,0,2.5-0.8,2.5-2.7v-0.9h0c-0.4,0.7-1.3,1.3-2.5,1.3c-1.9,0-3.3-1.6-3.3-3.8
		c0-2.6,1.7-4.1,3.5-4.1c1.3,0,2.1,0.7,2.4,1.3h0l0.1-1.2H112.6z M111.2,220.3c0-0.2,0-0.4-0.1-0.6c-0.3-0.8-0.9-1.5-2-1.5
		c-1.3,0-2.3,1.1-2.3,2.9c0,1.5,0.8,2.8,2.3,2.8c0.9,0,1.6-0.5,2-1.4c0.1-0.2,0.1-0.5,0.1-0.8V220.3z"/>
	<path class="st0" d="M114.9,213.6h1.4v4.8h0c0.2-0.4,0.6-0.8,1-1c0.4-0.2,0.9-0.4,1.4-0.4c1,0,2.7,0.6,2.7,3.3v4.6h-1.4v-4.5
		c0-1.2-0.5-2.3-1.8-2.3c-0.9,0-1.6,0.6-1.9,1.4c-0.1,0.2-0.1,0.4-0.1,0.7v4.7h-1.4V213.6z"/>
	<path class="st0" d="M125.4,215v2.2h2v1.1h-2v4.2c0,1,0.3,1.5,1.1,1.5c0.4,0,0.6,0,0.8-0.1l0.1,1.1c-0.3,0.1-0.7,0.2-1.2,0.2
		c-0.7,0-1.2-0.2-1.5-0.6c-0.4-0.4-0.5-1.1-0.5-2v-4.2h-1.2v-1.1h1.2v-1.9L125.4,215z"/>
	<path class="st0" d="M132.4,213.6h1.4V225h-1.4V213.6z"/>
	<path class="st0" d="M137,221.4c0,1.9,1.2,2.7,2.7,2.7c1,0,1.6-0.2,2.1-0.4l0.2,1c-0.5,0.2-1.3,0.5-2.6,0.5c-2.4,0-3.8-1.6-3.8-3.9
		s1.4-4.2,3.6-4.2c2.5,0,3.2,2.2,3.2,3.6c0,0.3,0,0.5,0,0.7H137z M141.1,220.4c0-0.9-0.4-2.3-2-2.3c-1.4,0-2,1.3-2.2,2.3H141.1z"/>
	<path class="st0" d="M148.5,225l-0.1-1h0c-0.4,0.6-1.3,1.2-2.4,1.2c-1.6,0-2.4-1.1-2.4-2.2c0-1.9,1.7-2.9,4.7-2.9v-0.2
		c0-0.6-0.2-1.8-1.8-1.8c-0.7,0-1.5,0.2-2,0.6l-0.3-0.9c0.6-0.4,1.6-0.7,2.5-0.7c2.4,0,2.9,1.6,2.9,3.2v2.9c0,0.7,0,1.3,0.1,1.9
		H148.5z M148.3,221c-1.5,0-3.3,0.2-3.3,1.7c0,0.9,0.6,1.3,1.3,1.3c1,0,1.6-0.6,1.9-1.3c0-0.1,0.1-0.3,0.1-0.4V221z"/>
	<path class="st0" d="M158.6,213.6v9.4c0,0.7,0,1.5,0.1,2h-1.3l-0.1-1.3h0c-0.4,0.9-1.4,1.5-2.6,1.5c-1.9,0-3.3-1.6-3.3-3.9
		c0-2.6,1.6-4.2,3.5-4.2c1.2,0,2,0.6,2.3,1.2h0v-4.6H158.6z M157.2,220.4c0-0.2,0-0.4-0.1-0.6c-0.2-0.9-1-1.6-2-1.6
		c-1.5,0-2.3,1.3-2.3,3c0,1.6,0.8,2.9,2.3,2.9c0.9,0,1.8-0.6,2.1-1.7c0-0.2,0.1-0.4,0.1-0.6V220.4z"/>
	<path class="st0" d="M161.7,221.4c0,1.9,1.2,2.7,2.7,2.7c1,0,1.6-0.2,2.1-0.4l0.2,1c-0.5,0.2-1.3,0.5-2.6,0.5
		c-2.4,0-3.8-1.6-3.8-3.9s1.4-4.2,3.6-4.2c2.5,0,3.2,2.2,3.2,3.6c0,0.3,0,0.5,0,0.7H161.7z M165.8,220.4c0-0.9-0.4-2.3-2-2.3
		c-1.4,0-2,1.3-2.2,2.3H165.8z"/>
	<path class="st0" d="M168.9,219.7c0-0.9,0-1.7-0.1-2.4h1.2l0,1.5h0.1c0.4-1,1.2-1.7,2.1-1.7c0.2,0,0.3,0,0.4,0v1.3
		c-0.1,0-0.3,0-0.5,0c-1,0-1.7,0.8-1.9,1.8c0,0.2-0.1,0.4-0.1,0.7v4.1h-1.4V219.7z"/>
	<path class="st0" d="M174,223.6c0.4,0.3,1.2,0.6,1.9,0.6c1,0,1.5-0.5,1.5-1.2c0-0.7-0.4-1-1.4-1.4c-1.4-0.5-2-1.3-2-2.2
		c0-1.2,1-2.3,2.7-2.3c0.8,0,1.5,0.2,1.9,0.5l-0.4,1c-0.3-0.2-0.9-0.4-1.6-0.4c-0.8,0-1.3,0.5-1.3,1.1c0,0.6,0.5,0.9,1.5,1.3
		c1.3,0.5,2,1.2,2,2.3c0,1.4-1.1,2.3-2.9,2.3c-0.8,0-1.6-0.2-2.2-0.5L174,223.6z"/>
	<path class="st0" d="M180.5,213.6h1.4v4.8h0c0.2-0.4,0.6-0.8,1-1c0.4-0.2,0.9-0.4,1.4-0.4c1,0,2.7,0.6,2.7,3.3v4.6h-1.4v-4.5
		c0-1.2-0.5-2.3-1.8-2.3c-0.9,0-1.6,0.6-1.9,1.4c-0.1,0.2-0.1,0.4-0.1,0.7v4.7h-1.4V213.6z"/>
	<path class="st0" d="M191,215.1c0,0.5-0.3,0.9-0.9,0.9c-0.5,0-0.8-0.4-0.8-0.9c0-0.5,0.4-0.9,0.9-0.9
		C190.6,214.2,191,214.6,191,215.1z M189.4,225v-7.7h1.4v7.7H189.4z"/>
	<path class="st0" d="M193.1,219.8c0-1,0-1.8-0.1-2.5h1.3l0.1,1.3h0c0.6-0.9,1.5-1.5,2.8-1.5c1.9,0,3.3,1.6,3.3,3.9
		c0,2.8-1.7,4.2-3.5,4.2c-1,0-1.9-0.4-2.4-1.2h0v4.2h-1.4V219.8z M194.5,221.8c0,0.2,0,0.4,0.1,0.6c0.3,1,1.1,1.6,2.1,1.6
		c1.5,0,2.4-1.2,2.4-3c0-1.6-0.8-2.9-2.3-2.9c-1,0-1.9,0.7-2.1,1.7c0,0.2-0.1,0.4-0.1,0.6V221.8z"/>
</g>
<g>
	<path class="st0" d="M52.8,250.4c0.8,0.5,2.1,1,3.4,1c1.9,0,2.7-0.9,2.7-2.1c0-1.2-0.7-1.9-2.6-2.6c-2.5-0.9-3.7-2.3-3.7-4
		c0-2.3,1.8-4.1,4.8-4.1c1.4,0,2.7,0.4,3.5,0.9l-0.6,1.9c-0.6-0.3-1.6-0.8-2.9-0.8c-1.5,0-2.3,0.9-2.3,1.9c0,1.2,0.8,1.7,2.7,2.4
		c2.4,0.9,3.7,2.1,3.7,4.2c0,2.5-1.9,4.2-5.3,4.2c-1.5,0-3-0.4-3.9-1L52.8,250.4z"/>
	<path class="st0" d="M77.3,245.9c0,5.2-3.6,7.5-7,7.5c-3.8,0-6.7-2.8-6.7-7.2c0-4.7,3.1-7.5,7-7.5
		C74.6,238.6,77.3,241.6,77.3,245.9z M66.2,246c0,3.1,1.8,5.4,4.3,5.4c2.4,0,4.3-2.3,4.3-5.5c0-2.4-1.2-5.4-4.2-5.4
		S66.2,243.3,66.2,246z"/>
	<path class="st0" d="M90.5,252.5c-0.7,0.3-2.1,0.8-4,0.8c-4.2,0-7-2.9-7-7.2c0-4.3,3-7.5,7.5-7.5c1.5,0,2.8,0.4,3.5,0.7l-0.6,2
		c-0.6-0.3-1.6-0.7-3-0.7c-3.2,0-5,2.4-5,5.3c0,3.2,2.1,5.2,4.9,5.2c1.5,0,2.4-0.4,3.1-0.7L90.5,252.5z"/>
	<path class="st0" d="M96.4,235c0,0.9-0.6,1.6-1.6,1.6c-0.9,0-1.5-0.7-1.5-1.6c0-0.9,0.7-1.6,1.6-1.6
		C95.7,233.4,96.4,234.1,96.4,235z M93.5,253v-14h2.6v14H93.5z"/>
	<path class="st0" d="M108.1,253l-0.2-1.8h-0.1c-0.8,1.1-2.3,2.1-4.3,2.1c-2.8,0-4.3-2-4.3-4c0-3.4,3-5.2,8.4-5.2v-0.3
		c0-1.2-0.3-3.2-3.2-3.2c-1.3,0-2.7,0.4-3.7,1l-0.6-1.7c1.2-0.8,2.8-1.2,4.6-1.2c4.3,0,5.3,2.9,5.3,5.7v5.2c0,1.2,0.1,2.4,0.2,3.4
		H108.1z M107.7,245.8c-2.8-0.1-5.9,0.4-5.9,3.2c0,1.7,1.1,2.4,2.4,2.4c1.8,0,3-1.2,3.4-2.3c0.1-0.3,0.1-0.6,0.1-0.8V245.8z"/>
	<path class="st0" d="M114.3,232.4h2.6V253h-2.6V232.4z"/>
	<path class="st0" d="M127.3,242.8c0-1.5,0-2.6-0.1-3.8h2.2l0.1,2.3h0.1c0.8-1.3,2.1-2.6,4.4-2.6c1.9,0,3.4,1.2,4,2.8h0.1
		c0.4-0.8,1-1.4,1.6-1.8c0.8-0.6,1.8-1,3.1-1c1.9,0,4.6,1.2,4.6,6.1v8.3h-2.5v-7.9c0-2.7-1-4.3-3-4.3c-1.5,0-2.6,1.1-3,2.3
		c-0.1,0.3-0.2,0.8-0.2,1.3v8.7h-2.5v-8.4c0-2.2-1-3.9-2.9-3.9c-1.6,0-2.8,1.3-3.2,2.6c-0.1,0.4-0.2,0.8-0.2,1.2v8.5h-2.5V242.8z"/>
	<path class="st0" d="M152.9,246.4c0.1,3.5,2.3,4.9,4.8,4.9c1.8,0,2.9-0.3,3.9-0.7l0.4,1.8c-0.9,0.4-2.4,0.9-4.7,0.9
		c-4.3,0-6.9-2.8-6.9-7.1c0-4.2,2.5-7.6,6.6-7.6c4.6,0,5.8,4,5.8,6.6c0,0.5-0.1,0.9-0.1,1.2H152.9z M160.4,244.6
		c0-1.6-0.7-4.1-3.5-4.1c-2.6,0-3.7,2.4-3.9,4.1H160.4z"/>
	<path class="st0" d="M178.1,232.4v17c0,1.2,0,2.7,0.1,3.6h-2.3l-0.1-2.4h-0.1c-0.8,1.6-2.5,2.8-4.8,2.8c-3.4,0-6-2.9-6-7.1
		c0-4.7,2.9-7.5,6.3-7.5c2.1,0,3.6,1,4.2,2.1h0.1v-8.4H178.1z M175.6,244.7c0-0.3,0-0.8-0.1-1.1c-0.4-1.6-1.8-3-3.7-3
		c-2.6,0-4.2,2.3-4.2,5.4c0,2.8,1.4,5.2,4.1,5.2c1.7,0,3.3-1.1,3.7-3c0.1-0.3,0.1-0.7,0.1-1.1V244.7z"/>
	<path class="st0" d="M185.2,235c0,0.9-0.6,1.6-1.6,1.6c-0.9,0-1.5-0.7-1.5-1.6c0-0.9,0.7-1.6,1.6-1.6
		C184.6,233.4,185.2,234.1,185.2,235z M182.3,253v-14h2.6v14H182.3z"/>
	<path class="st0" d="M196.9,253l-0.2-1.8h-0.1c-0.8,1.1-2.3,2.1-4.3,2.1c-2.8,0-4.3-2-4.3-4c0-3.4,3-5.2,8.4-5.2v-0.3
		c0-1.2-0.3-3.2-3.2-3.2c-1.3,0-2.7,0.4-3.7,1l-0.6-1.7c1.2-0.8,2.8-1.2,4.6-1.2c4.3,0,5.3,2.9,5.3,5.7v5.2c0,1.2,0.1,2.4,0.2,3.4
		H196.9z M196.5,245.8c-2.8-0.1-5.9,0.4-5.9,3.2c0,1.7,1.1,2.4,2.4,2.4c1.8,0,3-1.2,3.4-2.3c0.1-0.3,0.1-0.6,0.1-0.8V245.8z"/>
</g>
<g>
	<path class="st0" d="M149.2,177.3c0-0.8,0-1.5-0.1-2.1h1.2l0.1,1.3h0c0.4-0.7,1.3-1.5,2.6-1.5c1.1,0,2.7,0.6,2.7,3.3v4.6h-1.4v-4.5
		c0-1.2-0.5-2.3-1.8-2.3c-0.9,0-1.6,0.7-1.9,1.4c-0.1,0.2-0.1,0.4-0.1,0.7v4.7h-1.4V177.3z"/>
	<path class="st0" d="M158.8,179.4c0,1.9,1.2,2.7,2.7,2.7c1,0,1.6-0.2,2.1-0.4l0.2,1c-0.5,0.2-1.3,0.5-2.6,0.5
		c-2.4,0-3.8-1.6-3.8-3.9s1.4-4.2,3.6-4.2c2.5,0,3.2,2.2,3.2,3.6c0,0.3,0,0.5,0,0.7H158.8z M163,178.4c0-0.9-0.4-2.3-2-2.3
		c-1.4,0-2,1.3-2.2,2.3H163z"/>
	<path class="st0" d="M166.6,175.3l1,3.9c0.2,0.9,0.4,1.7,0.6,2.5h0c0.2-0.8,0.4-1.6,0.7-2.4l1.3-4h1.2l1.2,3.9
		c0.3,0.9,0.5,1.7,0.7,2.5h0c0.1-0.8,0.3-1.6,0.6-2.5l1.1-3.9h1.4l-2.5,7.7h-1.3l-1.2-3.7c-0.3-0.9-0.5-1.6-0.7-2.5h0
		c-0.2,0.9-0.4,1.7-0.7,2.6l-1.2,3.7h-1.3l-2.3-7.7H166.6z"/>
	<path class="st0" d="M177.6,181.6c0.4,0.3,1.2,0.6,1.9,0.6c1,0,1.5-0.5,1.5-1.2c0-0.7-0.4-1-1.4-1.4c-1.4-0.5-2-1.3-2-2.2
		c0-1.2,1-2.3,2.7-2.3c0.8,0,1.5,0.2,1.9,0.5l-0.4,1c-0.3-0.2-0.9-0.4-1.6-0.4c-0.8,0-1.3,0.5-1.3,1.1c0,0.6,0.5,0.9,1.5,1.3
		c1.3,0.5,2,1.2,2,2.3c0,1.4-1.1,2.3-2.9,2.3c-0.8,0-1.6-0.2-2.2-0.5L177.6,181.6z"/>
	<path class="st0" d="M191.8,183l-0.1-1h0c-0.4,0.6-1.3,1.2-2.4,1.2c-1.6,0-2.4-1.1-2.4-2.2c0-1.9,1.7-2.9,4.7-2.9v-0.2
		c0-0.6-0.2-1.8-1.8-1.8c-0.7,0-1.5,0.2-2,0.6l-0.3-0.9c0.6-0.4,1.6-0.7,2.5-0.7c2.4,0,2.9,1.6,2.9,3.2v2.9c0,0.7,0,1.3,0.1,1.9
		H191.8z M191.6,179c-1.5,0-3.3,0.2-3.3,1.7c0,0.9,0.6,1.3,1.3,1.3c1,0,1.6-0.6,1.9-1.3c0-0.1,0.1-0.3,0.1-0.4V179z"/>
	<path class="st0" d="M195.2,177.3c0-0.8,0-1.5-0.1-2.1h1.2l0.1,1.3h0c0.4-0.7,1.3-1.5,2.6-1.5c1.1,0,2.7,0.6,2.7,3.3v4.6h-1.4v-4.5
		c0-1.2-0.5-2.3-1.8-2.3c-0.9,0-1.6,0.7-1.9,1.4c-0.1,0.2-0.1,0.4-0.1,0.7v4.7h-1.4V177.3z"/>
	<path class="st0" d="M204.1,177.3c0-0.8,0-1.5-0.1-2.1h1.2l0.1,1.3h0c0.4-0.7,1.3-1.5,2.6-1.5c1.1,0,2.7,0.6,2.7,3.3v4.6h-1.4v-4.5
		c0-1.2-0.5-2.3-1.8-2.3c-0.9,0-1.6,0.7-1.9,1.4c-0.1,0.2-0.1,0.4-0.1,0.7v4.7h-1.4V177.3z"/>
	<path class="st0" d="M220,179.1c0,2.9-2,4.1-3.9,4.1c-2.1,0-3.7-1.5-3.7-4c0-2.6,1.7-4.1,3.8-4.1C218.5,175.1,220,176.7,220,179.1z
		 M213.8,179.1c0,1.7,1,3,2.4,3c1.3,0,2.4-1.3,2.4-3c0-1.3-0.7-3-2.3-3C214.5,176.1,213.8,177.7,213.8,179.1z"/>
	<path class="st0" d="M228.2,180.9c0,0.8,0,1.5,0.1,2.1H227l-0.1-1.3h0c-0.4,0.6-1.2,1.4-2.6,1.4c-1.2,0-2.7-0.7-2.7-3.4v-4.5h1.4
		v4.3c0,1.5,0.4,2.5,1.7,2.5c0.9,0,1.6-0.7,1.9-1.3c0.1-0.2,0.1-0.5,0.1-0.7v-4.8h1.4V180.9z"/>
	<path class="st0" d="M230.5,177.3c0-0.8,0-1.5-0.1-2.1h1.2l0.1,1.3h0c0.4-0.7,1.3-1.5,2.6-1.5c1.1,0,2.7,0.6,2.7,3.3v4.6h-1.4v-4.5
		c0-1.2-0.5-2.3-1.8-2.3c-0.9,0-1.6,0.7-1.9,1.4c-0.1,0.2-0.1,0.4-0.1,0.7v4.7h-1.4V177.3z"/>
	<path class="st0" d="M244.9,182.7c-0.4,0.2-1.2,0.4-2.2,0.4c-2.3,0-3.9-1.6-3.9-4c0-2.4,1.6-4.1,4.2-4.1c0.8,0,1.6,0.2,2,0.4
		l-0.3,1.1c-0.3-0.2-0.9-0.4-1.6-0.4c-1.8,0-2.7,1.3-2.7,2.9c0,1.8,1.2,2.9,2.7,2.9c0.8,0,1.3-0.2,1.7-0.4L244.9,182.7z"/>
	<path class="st0" d="M247.3,179.4c0,1.9,1.2,2.7,2.7,2.7c1,0,1.6-0.2,2.1-0.4l0.2,1c-0.5,0.2-1.3,0.5-2.6,0.5
		c-2.4,0-3.8-1.6-3.8-3.9s1.4-4.2,3.6-4.2c2.5,0,3.2,2.2,3.2,3.6c0,0.3,0,0.5,0,0.7H247.3z M251.4,178.4c0-0.9-0.4-2.3-2-2.3
		c-1.4,0-2,1.3-2.2,2.3H251.4z"/>
	<path class="st0" d="M254.5,177.3c0-0.8,0-1.5-0.1-2.1h1.2l0.1,1.2h0c0.4-0.7,1.2-1.4,2.4-1.4c1.1,0,1.9,0.6,2.2,1.6h0
		c0.2-0.4,0.5-0.8,0.9-1c0.5-0.4,1-0.5,1.7-0.5c1,0,2.5,0.7,2.5,3.4v4.6h-1.4v-4.4c0-1.5-0.5-2.4-1.7-2.4c-0.8,0-1.4,0.6-1.7,1.3
		c-0.1,0.2-0.1,0.4-0.1,0.7v4.8h-1.4v-4.6c0-1.2-0.5-2.1-1.6-2.1c-0.9,0-1.5,0.7-1.7,1.4c-0.1,0.2-0.1,0.4-0.1,0.7v4.7h-1.4V177.3z"
		/>
	<path class="st0" d="M268.6,179.4c0,1.9,1.2,2.7,2.7,2.7c1,0,1.6-0.2,2.1-0.4l0.2,1c-0.5,0.2-1.3,0.5-2.6,0.5
		c-2.4,0-3.8-1.6-3.8-3.9s1.4-4.2,3.6-4.2c2.5,0,3.2,2.2,3.2,3.6c0,0.3,0,0.5,0,0.7H268.6z M272.8,178.4c0-0.9-0.4-2.3-2-2.3
		c-1.4,0-2,1.3-2.2,2.3H272.8z"/>
	<path class="st0" d="M275.9,177.3c0-0.8,0-1.5-0.1-2.1h1.2l0.1,1.3h0c0.4-0.7,1.3-1.5,2.6-1.5c1.1,0,2.7,0.6,2.7,3.3v4.6h-1.4v-4.5
		c0-1.2-0.5-2.3-1.8-2.3c-0.9,0-1.6,0.7-1.9,1.4c-0.1,0.2-0.1,0.4-0.1,0.7v4.7h-1.4V177.3z"/>
	<path class="st0" d="M286.4,173v2.2h2v1.1h-2v4.2c0,1,0.3,1.5,1.1,1.5c0.4,0,0.6,0,0.8-0.1l0.1,1.1c-0.3,0.1-0.7,0.2-1.2,0.2
		c-0.7,0-1.2-0.2-1.5-0.6c-0.4-0.4-0.5-1.1-0.5-2v-4.2h-1.2v-1.1h1.2v-1.9L286.4,173z"/>
	<path class="st0" d="M289.8,181.6c0.4,0.3,1.2,0.6,1.9,0.6c1,0,1.5-0.5,1.5-1.2c0-0.7-0.4-1-1.4-1.4c-1.4-0.5-2-1.3-2-2.2
		c0-1.2,1-2.3,2.7-2.3c0.8,0,1.5,0.2,1.9,0.5l-0.4,1c-0.3-0.2-0.9-0.4-1.6-0.4c-0.8,0-1.3,0.5-1.3,1.1c0,0.6,0.5,0.9,1.5,1.3
		c1.3,0.5,2,1.2,2,2.3c0,1.4-1.1,2.3-2.9,2.3c-0.8,0-1.6-0.2-2.2-0.5L289.8,181.6z"/>
</g>
<g>
	<path class="st0" d="M30.4,206.5c-0.6,0.3-1.8,0.7-3.5,0.7c-3.6,0-6-2.5-6-6.2c0-3.7,2.5-6.4,6.5-6.4c1.3,0,2.4,0.3,3,0.6L30,197
		c-0.5-0.3-1.3-0.6-2.5-0.6c-2.8,0-4.3,2-4.3,4.6c0,2.8,1.8,4.5,4.2,4.5c1.2,0,2.1-0.3,2.7-0.6L30.4,206.5z"/>
	<path class="st0" d="M43.8,200.9c0,4.5-3.1,6.4-6,6.4c-3.3,0-5.8-2.4-5.8-6.2c0-4,2.6-6.4,6-6.4C41.5,194.6,43.8,197.2,43.8,200.9z
		 M34.2,201c0,2.6,1.5,4.6,3.7,4.6c2.1,0,3.7-2,3.7-4.7c0-2-1-4.6-3.6-4.6C35.3,196.3,34.2,198.7,34.2,201z"/>
	<path class="st0" d="M46.6,198.2c0-1.2,0-2.3-0.1-3.3h1.9l0.1,1.9h0.1c0.7-1.1,1.8-2.2,3.8-2.2c1.6,0,2.9,1,3.4,2.4h0
		c0.4-0.7,0.9-1.2,1.3-1.6c0.7-0.5,1.5-0.8,2.7-0.8c1.6,0,4,1,4,5.2v7.1h-2.1v-6.8c0-2.3-0.8-3.7-2.6-3.7c-1.2,0-2.2,0.9-2.6,2
		c-0.1,0.3-0.2,0.7-0.2,1.1v7.5h-2.1v-7.2c0-1.9-0.9-3.3-2.5-3.3c-1.4,0-2.4,1.1-2.7,2.2c-0.1,0.3-0.2,0.7-0.2,1.1v7.3h-2.1V198.2z"
		/>
	<path class="st0" d="M67.4,198.2c0-1.2,0-2.3-0.1-3.3h1.9l0.1,1.9h0.1c0.7-1.1,1.8-2.2,3.8-2.2c1.6,0,2.9,1,3.4,2.4h0
		c0.4-0.7,0.9-1.2,1.3-1.6c0.7-0.5,1.5-0.8,2.7-0.8c1.6,0,4,1,4,5.2v7.1h-2.1v-6.8c0-2.3-0.8-3.7-2.6-3.7c-1.2,0-2.2,0.9-2.6,2
		c-0.1,0.3-0.2,0.7-0.2,1.1v7.5H75v-7.2c0-1.9-0.8-3.3-2.5-3.3c-1.4,0-2.4,1.1-2.7,2.2c-0.1,0.3-0.2,0.7-0.2,1.1v7.3h-2.1V198.2z"/>
	<path class="st0" d="M98.4,203.7c0,1.2,0,2.3,0.1,3.3h-1.9l-0.1-2h-0.1c-0.6,1-1.8,2.2-4,2.2c-1.9,0-4.2-1-4.2-5.3v-7.1h2.2v6.7
		c0,2.3,0.7,3.8,2.7,3.8c1.5,0,2.5-1,2.9-2c0.1-0.3,0.2-0.7,0.2-1.1v-7.4h2.2V203.7z"/>
	<path class="st0" d="M102.1,198.2c0-1.2,0-2.3-0.1-3.3h1.9l0.1,2h0.1c0.6-1.1,2-2.3,4-2.3c1.7,0,4.3,1,4.3,5.1v7.2h-2.2v-7
		c0-1.9-0.7-3.6-2.8-3.6c-1.4,0-2.6,1-2.9,2.2c-0.1,0.3-0.1,0.6-0.1,1v7.3h-2.2V198.2z"/>
	<path class="st0" d="M118.4,191.5c0,0.8-0.5,1.3-1.4,1.3c-0.8,0-1.3-0.6-1.3-1.3c0-0.8,0.6-1.4,1.4-1.4
		C117.9,190.1,118.4,190.7,118.4,191.5z M115.9,207v-12.1h2.2V207H115.9z"/>
	<path class="st0" d="M130.4,206.5c-0.6,0.3-1.8,0.7-3.5,0.7c-3.6,0-6-2.5-6-6.2c0-3.7,2.5-6.4,6.5-6.4c1.3,0,2.4,0.3,3,0.6L130,197
		c-0.5-0.3-1.3-0.6-2.5-0.6c-2.8,0-4.3,2-4.3,4.6c0,2.8,1.8,4.5,4.2,4.5c1.2,0,2.1-0.3,2.7-0.6L130.4,206.5z"/>
	<path class="st0" d="M139.7,207l-0.2-1.5h-0.1c-0.7,0.9-2,1.8-3.7,1.8c-2.4,0-3.7-1.7-3.7-3.5c0-2.9,2.6-4.5,7.3-4.5v-0.2
		c0-1-0.3-2.8-2.7-2.8c-1.1,0-2.3,0.3-3.1,0.9l-0.5-1.4c1-0.7,2.4-1.1,4-1.1c3.7,0,4.6,2.5,4.6,4.9v4.5c0,1,0.1,2.1,0.2,2.9H139.7z
		 M139.4,200.8c-2.4,0-5.1,0.4-5.1,2.7c0,1.4,0.9,2.1,2.1,2.1c1.6,0,2.6-1,2.9-2c0.1-0.2,0.1-0.5,0.1-0.7V200.8z"/>
	<path class="st0" d="M147.6,191.4v3.5h3.1v1.7h-3.1v6.5c0,1.5,0.4,2.3,1.6,2.3c0.6,0,1-0.1,1.3-0.1l0.1,1.6
		c-0.4,0.2-1.1,0.3-1.9,0.3c-1,0-1.8-0.3-2.4-0.9c-0.6-0.6-0.9-1.7-0.9-3.1v-6.6h-1.9v-1.7h1.9V192L147.6,191.4z"/>
	<path class="st0" d="M155.7,191.5c0,0.8-0.5,1.3-1.4,1.3c-0.8,0-1.3-0.6-1.3-1.3c0-0.8,0.6-1.4,1.4-1.4
		C155.1,190.1,155.7,190.7,155.7,191.5z M153.2,207v-12.1h2.2V207H153.2z"/>
	<path class="st0" d="M170,200.9c0,4.5-3.1,6.4-6,6.4c-3.3,0-5.8-2.4-5.8-6.2c0-4,2.6-6.4,6-6.4C167.7,194.6,170,197.2,170,200.9z
		 M160.4,201c0,2.6,1.5,4.6,3.7,4.6c2.1,0,3.7-2,3.7-4.7c0-2-1-4.6-3.6-4.6S160.4,198.7,160.4,201z"/>
	<path class="st0" d="M172.8,198.2c0-1.2,0-2.3-0.1-3.3h1.9l0.1,2h0c0.6-1.1,2-2.3,4-2.3c1.7,0,4.3,1,4.3,5.1v7.2h-2.2v-7
		c0-1.9-0.7-3.6-2.8-3.6c-1.4,0-2.6,1-2.9,2.2c-0.1,0.3-0.1,0.6-0.1,1v7.3h-2.2V198.2z"/>
	<path class="st0" d="M186.4,204.8c0.7,0.4,1.8,0.9,2.9,0.9c1.6,0,2.3-0.8,2.3-1.8c0-1-0.6-1.6-2.2-2.2c-2.2-0.8-3.2-2-3.2-3.4
		c0-1.9,1.6-3.5,4.2-3.5c1.2,0,2.3,0.3,3,0.8l-0.5,1.6c-0.5-0.3-1.3-0.7-2.5-0.7c-1.3,0-2,0.8-2,1.6c0,1,0.7,1.5,2.3,2
		c2.1,0.8,3.2,1.8,3.2,3.6c0,2.1-1.6,3.6-4.5,3.6c-1.3,0-2.5-0.3-3.4-0.8L186.4,204.8z"/>
</g>
<g>
	<path class="st15" d="M396,241.1c0-1.4,0-2.5-0.1-3.7h2.2l0.1,2.2h0.1c0.8-1.3,2-2.5,4.3-2.5c1.8,0,3.2,1.1,3.8,2.7h0.1
		c0.4-0.8,1-1.3,1.5-1.8c0.8-0.6,1.7-1,3-1c1.8,0,4.5,1.2,4.5,5.9v8H413v-7.7c0-2.6-1-4.2-2.9-4.2c-1.4,0-2.5,1-2.9,2.2
		c-0.1,0.3-0.2,0.8-0.2,1.2v8.4h-2.4v-8.1c0-2.2-1-3.7-2.8-3.7c-1.5,0-2.7,1.2-3.1,2.5c-0.1,0.4-0.2,0.8-0.2,1.2v8.2H396V241.1z"/>
	<path class="st15" d="M426.9,251l-0.2-1.7h-0.1c-0.8,1.1-2.2,2-4.1,2c-2.7,0-4.1-1.9-4.1-3.9c0-3.3,2.9-5.1,8.1-5v-0.3
		c0-1.1-0.3-3.1-3.1-3.1c-1.3,0-2.6,0.4-3.5,1l-0.6-1.6c1.1-0.7,2.7-1.2,4.5-1.2c4.1,0,5.2,2.8,5.2,5.5v5.1c0,1.2,0.1,2.3,0.2,3.2
		H426.9z M426.5,244.1c-2.7-0.1-5.7,0.4-5.7,3.1c0,1.6,1.1,2.4,2.3,2.4c1.8,0,2.9-1.1,3.3-2.3c0.1-0.3,0.1-0.5,0.1-0.8V244.1z"/>
	<path class="st15" d="M432.9,241.7c0-1.6,0-3-0.1-4.2h2.2l0.1,2.7h0.1c0.6-1.8,2.1-3,3.8-3c0.3,0,0.5,0,0.7,0.1v2.3
		c-0.3-0.1-0.5-0.1-0.8-0.1c-1.7,0-3,1.3-3.3,3.2c-0.1,0.3-0.1,0.7-0.1,1.1v7.2h-2.4V241.7z"/>
	<path class="st15" d="M444.6,243.7L444.6,243.7c0.4-0.5,0.9-1.1,1.3-1.5l4-4.7h3l-5.2,5.6l6,8h-3l-4.7-6.5l-1.3,1.4v5.1h-2.4v-19.9
		h2.4V243.7z"/>
	<path class="st15" d="M456.7,244.7c0.1,3.3,2.2,4.7,4.6,4.7c1.8,0,2.8-0.3,3.8-0.7l0.4,1.8c-0.9,0.4-2.4,0.8-4.5,0.8
		c-4.2,0-6.7-2.7-6.7-6.8s2.4-7.3,6.4-7.3c4.4,0,5.6,3.9,5.6,6.4c0,0.5-0.1,0.9-0.1,1.1H456.7z M463.9,242.9c0-1.6-0.6-4-3.4-4
		c-2.5,0-3.6,2.3-3.8,4H463.9z"/>
	<path class="st15" d="M472.3,233.6v3.9h3.5v1.9h-3.5v7.3c0,1.7,0.5,2.6,1.8,2.6c0.6,0,1.1-0.1,1.4-0.2l0.1,1.8
		c-0.5,0.2-1.2,0.3-2.2,0.3c-1.1,0-2.1-0.4-2.7-1c-0.7-0.7-1-1.9-1-3.5v-7.4h-2.1v-1.9h2.1v-3.2L472.3,233.6z"/>
	<path class="st15" d="M481.3,233.6c0,0.8-0.6,1.5-1.6,1.5c-0.9,0-1.5-0.7-1.5-1.5c0-0.9,0.6-1.5,1.5-1.5
		C480.7,232.1,481.3,232.8,481.3,233.6z M478.6,251v-13.6h2.5V251H478.6z"/>
	<path class="st15" d="M485.1,241.1c0-1.4,0-2.5-0.1-3.7h2.2l0.1,2.2h0.1c0.7-1.3,2.2-2.5,4.5-2.5c1.9,0,4.8,1.1,4.8,5.8v8.1h-2.5
		v-7.8c0-2.2-0.8-4-3.1-4c-1.6,0-2.9,1.1-3.3,2.5c-0.1,0.3-0.2,0.7-0.2,1.1v8.1h-2.5V241.1z"/>
	<path class="st15" d="M512.4,237.4c-0.1,1-0.1,2.1-0.1,3.7v7.9c0,3.1-0.6,5-1.9,6.2c-1.3,1.2-3.2,1.6-4.9,1.6
		c-1.6,0-3.4-0.4-4.5-1.1l0.6-1.9c0.9,0.6,2.3,1.1,4,1.1c2.5,0,4.4-1.3,4.4-4.7v-1.5h-0.1c-0.8,1.3-2.2,2.3-4.3,2.3
		c-3.4,0-5.8-2.9-5.8-6.6c0-4.6,3-7.2,6.1-7.2c2.4,0,3.6,1.2,4.2,2.4h0.1l0.1-2H512.4z M509.8,242.8c0-0.4,0-0.8-0.1-1.1
		c-0.4-1.4-1.7-2.6-3.4-2.6c-2.4,0-4,2-4,5.1c0,2.7,1.3,4.9,4,4.9c1.5,0,2.9-1,3.4-2.5c0.1-0.4,0.2-0.9,0.2-1.3V242.8z"/>
</g>
<g>
	<path class="st15" d="M266.2,257.4c-0.8,0.4-2.5,1-4.7,1c-5,0-8.2-3.4-8.2-8.4c0-5.1,3.5-8.7,8.8-8.7c1.8,0,3.3,0.4,4.1,0.8
		l-0.7,2.3c-0.7-0.4-1.8-0.8-3.5-0.8c-3.8,0-5.8,2.8-5.8,6.2c0,3.8,2.4,6.2,5.7,6.2c1.7,0,2.8-0.4,3.7-0.8L266.2,257.4z"/>
	<path class="st15" d="M269.7,246.7c0-1.9,0-3.6-0.1-5.1h2.6l0.1,3.2h0.1c0.7-2.2,2.5-3.6,4.6-3.6c0.3,0,0.6,0,0.9,0.1v2.8
		c-0.3-0.1-0.6-0.1-1-0.1c-2.1,0-3.6,1.6-4,3.8c-0.1,0.4-0.1,0.9-0.1,1.4v8.8h-3V246.7z"/>
	<path class="st15" d="M282.2,250.3c0.1,4,2.7,5.7,5.6,5.7c2.1,0,3.4-0.4,4.6-0.8l0.5,2.1c-1.1,0.5-2.9,1-5.5,1
		c-5.1,0-8.1-3.3-8.1-8.3c0-5,2.9-8.9,7.7-8.9c5.4,0,6.8,4.7,6.8,7.8c0,0.6-0.1,1.1-0.1,1.4H282.2z M290.9,248.2
		c0-1.9-0.8-4.9-4.1-4.9c-3,0-4.4,2.8-4.6,4.9H290.9z"/>
	<path class="st15" d="M306.6,258l-0.2-2.1h-0.1c-0.9,1.3-2.7,2.4-5,2.4c-3.3,0-5-2.3-5-4.7c0-4,3.5-6.2,9.9-6.1v-0.3
		c0-1.4-0.4-3.8-3.7-3.8c-1.5,0-3.1,0.5-4.3,1.2l-0.7-2c1.4-0.9,3.3-1.5,5.4-1.5c5,0,6.3,3.4,6.3,6.7v6.2c0,1.4,0.1,2.8,0.3,3.9
		H306.6z M306.2,249.6c-3.3-0.1-7,0.5-7,3.7c0,1.9,1.3,2.9,2.8,2.9c2.1,0,3.5-1.4,4-2.8c0.1-0.3,0.2-0.6,0.2-1V249.6z"/>
	<path class="st15" d="M317.4,236.8v4.7h4.3v2.3h-4.3v8.9c0,2,0.6,3.2,2.2,3.2c0.8,0,1.4-0.1,1.7-0.2l0.1,2.2
		c-0.6,0.2-1.5,0.4-2.7,0.4c-1.4,0-2.5-0.4-3.2-1.3c-0.8-0.9-1.2-2.3-1.2-4.3v-9h-2.5v-2.3h2.5v-3.9L317.4,236.8z"/>
	<path class="st15" d="M328.4,236.9c0,1-0.7,1.8-1.9,1.8c-1.1,0-1.8-0.8-1.8-1.8c0-1.1,0.8-1.9,1.9-1.9
		C327.6,235.1,328.4,235.9,328.4,236.9z M325,258v-16.5h3V258H325z"/>
	<path class="st15" d="M334.1,241.5l3.2,9.2c0.5,1.5,1,2.9,1.3,4.2h0.1c0.4-1.4,0.9-2.7,1.4-4.2l3.2-9.2h3.1l-6.5,16.5h-2.9
		l-6.3-16.5H334.1z"/>
	<path class="st15" d="M350.7,250.3c0.1,4,2.7,5.7,5.6,5.7c2.1,0,3.4-0.4,4.6-0.8l0.5,2.1c-1.1,0.5-2.9,1-5.5,1
		c-5.1,0-8.1-3.3-8.1-8.3c0-5,2.9-8.9,7.7-8.9c5.4,0,6.8,4.7,6.8,7.8c0,0.6-0.1,1.1-0.1,1.4H350.7z M359.4,248.2
		c0-1.9-0.8-4.9-4.1-4.9c-3,0-4.4,2.8-4.6,4.9H359.4z"/>
</g>
<g>
	<path class="st15" d="M309.4,277.6c-0.5,0.2-1.5,0.6-2.8,0.6c-2.9,0-4.8-2-4.8-4.9c0-3,2-5.1,5.2-5.1c1,0,2,0.3,2.4,0.5L309,270
		c-0.4-0.2-1.1-0.5-2-0.5c-2.2,0-3.4,1.6-3.4,3.7c0,2.2,1.4,3.6,3.4,3.6c1,0,1.7-0.3,2.2-0.5L309.4,277.6z"/>
	<path class="st15" d="M320.1,273.1c0,3.6-2.5,5.1-4.8,5.1c-2.6,0-4.6-1.9-4.6-5c0-3.2,2.1-5.1,4.8-5.1
		C318.2,268.1,320.1,270.1,320.1,273.1z M312.4,273.2c0,2.1,1.2,3.7,2.9,3.7c1.7,0,2.9-1.6,2.9-3.8c0-1.6-0.8-3.7-2.9-3.7
		C313.3,269.4,312.4,271.3,312.4,273.2z"/>
	<path class="st15" d="M322.3,263.8h1.8V278h-1.8V263.8z"/>
	<path class="st15" d="M327,263.8h1.8V278H327V263.8z"/>
	<path class="st15" d="M337.1,278l-0.1-1.2h-0.1c-0.5,0.8-1.6,1.4-3,1.4c-2,0-3-1.4-3-2.8c0-2.3,2.1-3.6,5.8-3.6v-0.2
		c0-0.8-0.2-2.2-2.2-2.2c-0.9,0-1.8,0.3-2.5,0.7l-0.4-1.2c0.8-0.5,2-0.9,3.2-0.9c3,0,3.7,2,3.7,4v3.6c0,0.8,0,1.7,0.2,2.3H337.1z
		 M336.8,273.1c-1.9,0-4.1,0.3-4.1,2.2c0,1.1,0.8,1.7,1.7,1.7c1.3,0,2.1-0.8,2.3-1.6c0.1-0.2,0.1-0.4,0.1-0.6V273.1z"/>
	<path class="st15" d="M343.4,265.5v2.8h2.5v1.3h-2.5v5.2c0,1.2,0.3,1.9,1.3,1.9c0.5,0,0.8-0.1,1-0.1l0.1,1.3
		c-0.3,0.1-0.9,0.2-1.6,0.2c-0.8,0-1.5-0.3-1.9-0.7c-0.5-0.5-0.7-1.4-0.7-2.5v-5.3h-1.5v-1.3h1.5V266L343.4,265.5z"/>
	<path class="st15" d="M348.8,273.5c0,2.4,1.6,3.4,3.3,3.4c1.3,0,2-0.2,2.7-0.5l0.3,1.3c-0.6,0.3-1.7,0.6-3.2,0.6
		c-3,0-4.8-2-4.8-4.9c0-2.9,1.7-5.2,4.5-5.2c3.2,0,4,2.8,4,4.6c0,0.4,0,0.6-0.1,0.8H348.8z M353.9,272.2c0-1.1-0.5-2.9-2.4-2.9
		c-1.8,0-2.6,1.6-2.7,2.9H353.9z"/>
	<path class="st15" d="M357.8,271.3c0-1.1,0-2.1-0.1-3h1.5l0.1,1.9h0.1c0.4-1.3,1.5-2.1,2.7-2.1c0.2,0,0.3,0,0.5,0.1v1.7
		c-0.2,0-0.4-0.1-0.6-0.1c-1.2,0-2.1,0.9-2.4,2.3c0,0.2-0.1,0.5-0.1,0.8v5.2h-1.7V271.3z"/>
	<path class="st15" d="M369.6,278l-0.1-1.2h-0.1c-0.5,0.8-1.6,1.4-3,1.4c-2,0-3-1.4-3-2.8c0-2.3,2.1-3.6,5.8-3.6v-0.2
		c0-0.8-0.2-2.2-2.2-2.2c-0.9,0-1.8,0.3-2.5,0.7l-0.4-1.2c0.8-0.5,2-0.9,3.2-0.9c3,0,3.7,2,3.7,4v3.6c0,0.8,0,1.7,0.2,2.3H369.6z
		 M369.3,273.1c-1.9,0-4.1,0.3-4.1,2.2c0,1.1,0.8,1.7,1.7,1.7c1.3,0,2.1-0.8,2.3-1.6c0.1-0.2,0.1-0.4,0.1-0.6V273.1z"/>
	<path class="st15" d="M373.9,263.8h1.8V278h-1.8V263.8z"/>
</g>
<g>
	<path class="st15" d="M406.2,264.9l2,5.6c0.3,0.9,0.6,1.7,0.8,2.5h0.1c0.2-0.8,0.5-1.6,0.8-2.5l1.9-5.6h1.9l-3.9,9.9H408l-3.8-9.9
		H406.2z"/>
	<path class="st15" d="M417.4,262.1c0,0.6-0.4,1.1-1.2,1.1c-0.6,0-1.1-0.5-1.1-1.1c0-0.6,0.5-1.1,1.1-1.1
		C417,261,417.4,261.5,417.4,262.1z M415.4,274.9v-9.9h1.8v9.9H415.4z"/>
	<path class="st15" d="M428.8,260.3v12c0,0.9,0,1.9,0.1,2.6h-1.6l-0.1-1.7h0c-0.6,1.1-1.8,2-3.4,2c-2.4,0-4.3-2-4.3-5.1
		c0-3.3,2-5.3,4.5-5.3c1.5,0,2.5,0.7,3,1.5h0v-5.9H428.8z M427,269c0-0.2,0-0.5-0.1-0.8c-0.3-1.2-1.3-2.1-2.6-2.1
		c-1.9,0-3,1.6-3,3.8c0,2,1,3.7,2.9,3.7c1.2,0,2.3-0.8,2.7-2.2c0.1-0.2,0.1-0.5,0.1-0.8V269z"/>
	<path class="st15" d="M432.8,270.2c0,2.4,1.6,3.5,3.4,3.5c1.3,0,2.1-0.2,2.8-0.5l0.3,1.3c-0.6,0.3-1.7,0.6-3.3,0.6
		c-3.1,0-4.9-2-4.9-5s1.8-5.4,4.7-5.4c3.2,0,4.1,2.9,4.1,4.7c0,0.4,0,0.7-0.1,0.8H432.8z M438.1,268.9c0-1.2-0.5-2.9-2.5-2.9
		c-1.8,0-2.6,1.7-2.8,2.9H438.1z"/>
	<path class="st15" d="M451.1,269.8c0,3.7-2.5,5.3-5,5.3c-2.7,0-4.8-2-4.8-5.1c0-3.3,2.2-5.3,4.9-5.3
		C449.1,264.7,451.1,266.8,451.1,269.8z M443.2,269.9c0,2.2,1.3,3.8,3,3.8c1.7,0,3-1.6,3-3.9c0-1.7-0.8-3.8-3-3.8
		S443.2,268,443.2,269.9z"/>
	<path class="st15" d="M453.1,273c0.5,0.3,1.5,0.7,2.4,0.7c1.3,0,1.9-0.7,1.9-1.5c0-0.9-0.5-1.3-1.9-1.8c-1.8-0.6-2.6-1.6-2.6-2.8
		c0-1.6,1.3-2.9,3.4-2.9c1,0,1.9,0.3,2.4,0.6l-0.5,1.3c-0.4-0.2-1.1-0.6-2-0.6c-1.1,0-1.7,0.6-1.7,1.4c0,0.8,0.6,1.2,1.9,1.7
		c1.7,0.7,2.6,1.5,2.6,3c0,1.7-1.4,3-3.7,3c-1.1,0-2.1-0.3-2.8-0.7L453.1,273z"/>
	<path class="st15" d="M474.6,274.9c-0.4-0.4-0.8-0.8-1.3-1.4c-1.2,1.1-2.5,1.6-4,1.6c-2.7,0-4.3-1.8-4.3-3.9c0-1.9,1.1-3.2,2.7-4
		v-0.1c-0.7-0.9-1.2-1.9-1.2-2.9c0-1.7,1.2-3.4,3.5-3.4c1.7,0,3.1,1.2,3.1,2.9c0,1.5-0.8,2.6-3,3.7v0.1c1.2,1.4,2.5,2.9,3.4,3.9
		c0.6-1,1.1-2.3,1.3-4h1.6c-0.4,2.2-1,3.9-2,5.1c0.7,0.8,1.5,1.6,2.3,2.4H474.6z M472.4,272.5c-0.8-0.9-2.4-2.6-3.9-4.4
		c-0.7,0.5-1.8,1.4-1.8,2.8c0,1.6,1.2,2.8,2.8,2.8C470.7,273.7,471.8,273.2,472.4,272.5z M468.2,264c0,1,0.5,1.7,1,2.5
		c1.4-0.8,2.3-1.5,2.3-2.7c0-0.8-0.5-1.8-1.6-1.8C468.8,262,468.2,263,468.2,264z"/>
	<path class="st15" d="M488.1,274.9l-0.1-1.3h-0.1c-0.6,0.8-1.6,1.5-3,1.5c-2,0-3-1.4-3-2.9c0-2.4,2.1-3.7,6-3.7v-0.2
		c0-0.8-0.2-2.3-2.3-2.3c-0.9,0-1.9,0.3-2.6,0.7l-0.4-1.2c0.8-0.5,2-0.9,3.3-0.9c3,0,3.8,2.1,3.8,4.1v3.7c0,0.9,0,1.7,0.2,2.4H488.1
		z M487.9,269.8c-2,0-4.2,0.3-4.2,2.2c0,1.2,0.8,1.7,1.7,1.7c1.3,0,2.1-0.8,2.4-1.7c0.1-0.2,0.1-0.4,0.1-0.6V269.8z"/>
	<path class="st15" d="M492.5,267.6c0-1,0-1.9-0.1-2.7h1.6l0.1,1.6h0c0.5-0.9,1.6-1.9,3.3-1.9c1.4,0,3.5,0.8,3.5,4.2v5.9h-1.8v-5.7
		c0-1.6-0.6-2.9-2.3-2.9c-1.2,0-2.1,0.8-2.4,1.8c-0.1,0.2-0.1,0.5-0.1,0.8v6h-1.8V267.6z"/>
	<path class="st15" d="M506,262.1c0,0.6-0.4,1.1-1.2,1.1c-0.6,0-1.1-0.5-1.1-1.1c0-0.6,0.5-1.1,1.1-1.1
		C505.5,261,506,261.5,506,262.1z M503.9,274.9v-9.9h1.8v9.9H503.9z"/>
	<path class="st15" d="M508.8,267.6c0-1,0-1.9-0.1-2.7h1.6l0.1,1.6h0.1c0.6-0.9,1.5-1.8,3.1-1.8c1.4,0,2.4,0.8,2.8,2h0
		c0.3-0.6,0.7-1,1.1-1.3c0.6-0.5,1.3-0.7,2.2-0.7c1.3,0,3.3,0.9,3.3,4.3v5.9h-1.8v-5.6c0-1.9-0.7-3.1-2.2-3.1c-1,0-1.8,0.8-2.1,1.6
		c-0.1,0.2-0.1,0.6-0.1,0.9v6.1H515v-6c0-1.6-0.7-2.7-2.1-2.7c-1.1,0-2,0.9-2.2,1.8c-0.1,0.3-0.1,0.6-0.1,0.9v6h-1.8V267.6z"/>
	<path class="st15" d="M531.4,274.9l-0.1-1.3h-0.1c-0.6,0.8-1.6,1.5-3,1.5c-2,0-3-1.4-3-2.9c0-2.4,2.1-3.7,6-3.7v-0.2
		c0-0.8-0.2-2.3-2.3-2.3c-0.9,0-1.9,0.3-2.6,0.7l-0.4-1.2c0.8-0.5,2-0.9,3.3-0.9c3,0,3.8,2.1,3.8,4.1v3.7c0,0.9,0,1.7,0.2,2.4H531.4
		z M531.1,269.8c-2,0-4.2,0.3-4.2,2.2c0,1.2,0.8,1.7,1.7,1.7c1.3,0,2.1-0.8,2.4-1.7c0.1-0.2,0.1-0.4,0.1-0.6V269.8z"/>
	<path class="st15" d="M537.9,262.1v2.9h2.6v1.4h-2.6v5.4c0,1.2,0.3,1.9,1.4,1.9c0.5,0,0.8-0.1,1-0.1l0.1,1.4
		c-0.3,0.1-0.9,0.2-1.6,0.2c-0.8,0-1.5-0.3-2-0.8c-0.5-0.5-0.7-1.4-0.7-2.6v-5.4h-1.5v-1.4h1.5v-2.4L537.9,262.1z"/>
	<path class="st15" d="M544.5,262.1c0,0.6-0.4,1.1-1.2,1.1c-0.6,0-1.1-0.5-1.1-1.1c0-0.6,0.5-1.1,1.1-1.1
		C544.1,261,544.5,261.5,544.5,262.1z M542.5,274.9v-9.9h1.8v9.9H542.5z"/>
	<path class="st15" d="M556.3,269.8c0,3.7-2.5,5.3-5,5.3c-2.7,0-4.8-2-4.8-5.1c0-3.3,2.2-5.3,4.9-5.3
		C554.4,264.7,556.3,266.8,556.3,269.8z M548.4,269.9c0,2.2,1.3,3.8,3,3.8c1.7,0,3-1.6,3-3.9c0-1.7-0.8-3.8-3-3.8
		S548.4,268,548.4,269.9z"/>
	<path class="st15" d="M558.6,267.6c0-1,0-1.9-0.1-2.7h1.6l0.1,1.6h0c0.5-0.9,1.6-1.9,3.3-1.9c1.4,0,3.5,0.8,3.5,4.2v5.9h-1.8v-5.7
		c0-1.6-0.6-2.9-2.3-2.9c-1.2,0-2.1,0.8-2.4,1.8c-0.1,0.2-0.1,0.5-0.1,0.8v6h-1.8V267.6z"/>
</g>
<g>
	<path class="st15" d="M450.6,215.2c0.1,4.5,3,6.4,6.3,6.4c2.4,0,3.8-0.4,5.1-0.9l0.6,2.4c-1.2,0.5-3.2,1.1-6.1,1.1
		c-5.7,0-9-3.7-9-9.3s3.3-9.9,8.6-9.9c6,0,7.6,5.3,7.6,8.7c0,0.7-0.1,1.2-0.1,1.6H450.6z M460.4,212.8c0-2.1-0.9-5.4-4.6-5.4
		c-3.4,0-4.9,3.1-5.1,5.4H460.4z"/>
	<path class="st15" d="M467.8,210.4c0-1.9,0-3.5-0.2-5h2.9l0.2,3h0.1c1-1.7,2.7-3.4,5.8-3.4c2.5,0,4.4,1.5,5.2,3.7h0.1
		c0.6-1,1.3-1.8,2.1-2.4c1.1-0.8,2.3-1.3,4.1-1.3c2.4,0,6,1.6,6,8v10.8h-3.3v-10.4c0-3.5-1.3-5.7-4-5.7c-1.9,0-3.4,1.4-4,3
		c-0.2,0.5-0.3,1.1-0.3,1.7v11.4h-3.3v-11c0-2.9-1.3-5.1-3.8-5.1c-2.1,0-3.6,1.7-4.1,3.3c-0.2,0.5-0.3,1.1-0.3,1.6v11.1h-3.3V210.4z
		"/>
	<path class="st15" d="M509.7,223.8l-0.3-2.3h-0.1c-1,1.4-3,2.7-5.6,2.7c-3.7,0-5.6-2.6-5.6-5.3c0-4.4,4-6.9,11.1-6.8v-0.4
		c0-1.5-0.4-4.3-4.2-4.3c-1.7,0-3.5,0.5-4.8,1.4l-0.8-2.2c1.5-1,3.7-1.6,6-1.6c5.6,0,7,3.8,7,7.5v6.9c0,1.6,0.1,3.2,0.3,4.4H509.7z
		 M509.2,214.4c-3.6-0.1-7.8,0.6-7.8,4.1c0,2.2,1.4,3.2,3.2,3.2c2.4,0,3.9-1.5,4.4-3.1c0.1-0.3,0.2-0.7,0.2-1.1V214.4z"/>
	<path class="st15" d="M521.5,200.3c0,1.1-0.8,2.1-2.1,2.1c-1.2,0-2-0.9-2-2.1c0-1.2,0.9-2.1,2.1-2.1
		C520.7,198.2,521.5,199.1,521.5,200.3z M517.8,223.8v-18.4h3.3v18.4H517.8z"/>
	<path class="st15" d="M526.7,196.8h3.3v27h-3.3V196.8z"/>
</g>
<g>
	<path class="st15" d="M372.2,190.6l-0.1-1.3h-0.1c-0.6,0.8-1.7,1.5-3.1,1.5c-2.1,0-3.1-1.4-3.1-2.9c0-2.5,2.2-3.8,6.1-3.8V184
		c0-0.8-0.2-2.4-2.3-2.4c-0.9,0-1.9,0.3-2.6,0.8l-0.4-1.2c0.8-0.5,2.1-0.9,3.3-0.9c3.1,0,3.9,2.1,3.9,4.2v3.8c0,0.9,0,1.7,0.2,2.4
		H372.2z M371.9,185.4c-2,0-4.3,0.3-4.3,2.3c0,1.2,0.8,1.8,1.7,1.8c1.3,0,2.2-0.8,2.5-1.7c0.1-0.2,0.1-0.4,0.1-0.6V185.4z"/>
	<path class="st15" d="M385.4,175.7V188c0,0.9,0,1.9,0.1,2.6h-1.7l-0.1-1.8h0c-0.6,1.1-1.8,2-3.5,2c-2.5,0-4.3-2.1-4.3-5.2
		c0-3.4,2.1-5.5,4.6-5.5c1.6,0,2.6,0.7,3.1,1.6h0v-6.1H385.4z M383.6,184.6c0-0.2,0-0.5-0.1-0.8c-0.3-1.2-1.3-2.1-2.7-2.1
		c-1.9,0-3,1.7-3,3.9c0,2.1,1,3.8,3,3.8c1.2,0,2.4-0.8,2.7-2.2c0.1-0.3,0.1-0.5,0.1-0.8V184.6z"/>
	<path class="st15" d="M389.2,180.5l2,5.7c0.3,0.9,0.6,1.8,0.8,2.6h0.1c0.2-0.8,0.5-1.7,0.9-2.6l2-5.7h1.9l-4,10.2h-1.8l-3.9-10.2
		H389.2z"/>
	<path class="st15" d="M399.4,185.9c0,2.5,1.6,3.5,3.5,3.5c1.3,0,2.1-0.2,2.8-0.5l0.3,1.3c-0.7,0.3-1.8,0.6-3.4,0.6
		c-3.1,0-5-2.1-5-5.1s1.8-5.5,4.8-5.5c3.3,0,4.2,2.9,4.2,4.8c0,0.4,0,0.7-0.1,0.9H399.4z M404.8,184.6c0-1.2-0.5-3-2.6-3
		c-1.9,0-2.7,1.7-2.8,3H404.8z"/>
	<path class="st15" d="M408.9,183.6c0-1.2,0-2.2-0.1-3.2h1.6l0.1,2h0.1c0.5-1.4,1.6-2.2,2.8-2.2c0.2,0,0.4,0,0.5,0.1v1.7
		c-0.2,0-0.4-0.1-0.6-0.1c-1.3,0-2.2,1-2.5,2.4c0,0.3-0.1,0.5-0.1,0.9v5.4h-1.8V183.6z"/>
	<path class="st15" d="M418.5,177.5v2.9h2.6v1.4h-2.6v5.5c0,1.3,0.4,2,1.4,2c0.5,0,0.8-0.1,1.1-0.1l0.1,1.4
		c-0.4,0.1-0.9,0.3-1.6,0.3c-0.9,0-1.6-0.3-2-0.8c-0.5-0.5-0.7-1.4-0.7-2.6v-5.5h-1.6v-1.4h1.6V178L418.5,177.5z"/>
	<path class="st15" d="M425.3,177.6c0,0.6-0.4,1.1-1.2,1.1c-0.7,0-1.1-0.5-1.1-1.1c0-0.7,0.5-1.2,1.2-1.2
		C424.8,176.5,425.3,177,425.3,177.6z M423.2,190.6v-10.2h1.8v10.2H423.2z"/>
	<path class="st15" d="M427.9,188.7c0.5,0.4,1.5,0.7,2.4,0.7c1.3,0,2-0.7,2-1.5c0-0.9-0.5-1.4-1.9-1.9c-1.8-0.7-2.7-1.7-2.7-2.9
		c0-1.6,1.3-3,3.5-3c1,0,1.9,0.3,2.5,0.6l-0.5,1.3c-0.4-0.3-1.1-0.6-2.1-0.6c-1.1,0-1.7,0.6-1.7,1.4c0,0.8,0.6,1.2,1.9,1.7
		c1.8,0.7,2.7,1.6,2.7,3.1c0,1.8-1.4,3-3.8,3c-1.1,0-2.1-0.3-2.9-0.7L427.9,188.7z"/>
	<path class="st15" d="M438.5,177.6c0,0.6-0.4,1.1-1.2,1.1c-0.7,0-1.1-0.5-1.1-1.1c0-0.7,0.5-1.2,1.2-1.2
		C438.1,176.5,438.5,177,438.5,177.6z M436.5,190.6v-10.2h1.8v10.2H436.5z"/>
	<path class="st15" d="M441.4,183.2c0-1.1,0-1.9-0.1-2.8h1.6l0.1,1.7h0c0.5-1,1.7-1.9,3.4-1.9c1.4,0,3.6,0.8,3.6,4.3v6.1h-1.8v-5.9
		c0-1.6-0.6-3-2.4-3c-1.2,0-2.2,0.9-2.5,1.9c-0.1,0.2-0.1,0.5-0.1,0.9v6.1h-1.8V183.2z"/>
	<path class="st15" d="M461.8,180.5c0,0.7-0.1,1.6-0.1,2.8v5.9c0,2.3-0.5,3.8-1.4,4.6c-1,0.9-2.4,1.2-3.7,1.2
		c-1.2,0-2.6-0.3-3.4-0.8l0.5-1.4c0.7,0.4,1.7,0.8,3,0.8c1.9,0,3.3-1,3.3-3.5v-1.1h0c-0.6,0.9-1.7,1.7-3.2,1.7c-2.5,0-4.3-2.1-4.3-5
		c0-3.4,2.2-5.4,4.6-5.4c1.8,0,2.7,0.9,3.2,1.8h0l0.1-1.5H461.8z M459.9,184.5c0-0.3,0-0.6-0.1-0.8c-0.3-1.1-1.2-2-2.6-2
		c-1.8,0-3,1.5-3,3.8c0,2,1,3.7,3,3.7c1.1,0,2.2-0.7,2.6-1.9c0.1-0.3,0.1-0.7,0.1-1V184.5z"/>
</g>
<g>
	<path class="st15" d="M486.9,180.5h1.1v8.5h-1.1V180.5z"/>
	<path class="st15" d="M492.9,189l-0.1-0.7h0c-0.3,0.5-0.9,0.9-1.8,0.9c-1.2,0-1.8-0.8-1.8-1.7c0-1.4,1.2-2.2,3.5-2.2v-0.1
		c0-0.5-0.1-1.3-1.3-1.3c-0.5,0-1.1,0.2-1.5,0.4l-0.2-0.7c0.5-0.3,1.2-0.5,1.9-0.5c1.8,0,2.2,1.2,2.2,2.4v2.2c0,0.5,0,1,0.1,1.4
		H492.9z M492.8,186c-1.2,0-2.5,0.2-2.5,1.3c0,0.7,0.5,1,1,1c0.8,0,1.2-0.5,1.4-1c0-0.1,0.1-0.2,0.1-0.3V186z"/>
	<path class="st15" d="M495.5,184.8c0-0.6,0-1.1,0-1.6h0.9l0.1,1h0c0.3-0.6,1-1.1,1.9-1.1c0.8,0,2.1,0.5,2.1,2.5v3.5h-1.1v-3.3
		c0-0.9-0.3-1.7-1.3-1.7c-0.7,0-1.2,0.5-1.4,1.1c0,0.1-0.1,0.3-0.1,0.5v3.5h-1.1V184.8z"/>
	<path class="st15" d="M507.2,180.5v7c0,0.5,0,1.1,0,1.5h-0.9l0-1h0c-0.3,0.6-1,1.1-2,1.1c-1.4,0-2.5-1.2-2.5-3
		c0-1.9,1.2-3.1,2.6-3.1c0.9,0,1.5,0.4,1.8,0.9h0v-3.5H507.2z M506.1,185.6c0-0.1,0-0.3,0-0.4c-0.2-0.7-0.7-1.2-1.5-1.2
		c-1.1,0-1.7,1-1.7,2.2c0,1.2,0.6,2.1,1.7,2.1c0.7,0,1.4-0.5,1.5-1.3c0-0.1,0-0.3,0-0.5V185.6z"/>
	<path class="st15" d="M510.1,181.6c0,0.4-0.3,0.6-0.7,0.6c-0.4,0-0.6-0.3-0.6-0.6c0-0.4,0.3-0.7,0.7-0.7
		C509.8,180.9,510.1,181.2,510.1,181.6z M508.9,189v-5.8h1.1v5.8H508.9z"/>
	<path class="st15" d="M511.7,184.8c0-0.6,0-1.1,0-1.6h0.9l0.1,1h0c0.3-0.6,1-1.1,1.9-1.1c0.8,0,2.1,0.5,2.1,2.5v3.5h-1.1v-3.3
		c0-0.9-0.3-1.7-1.3-1.7c-0.7,0-1.2,0.5-1.4,1.1c0,0.1-0.1,0.3-0.1,0.5v3.5h-1.1V184.8z"/>
	<path class="st15" d="M523.4,183.2c0,0.4,0,0.9,0,1.6v3.4c0,1.3-0.3,2.1-0.8,2.7c-0.6,0.5-1.4,0.7-2.1,0.7c-0.7,0-1.5-0.2-1.9-0.5
		l0.3-0.8c0.4,0.2,1,0.5,1.7,0.5c1.1,0,1.9-0.6,1.9-2V188h0c-0.3,0.5-0.9,1-1.8,1c-1.4,0-2.5-1.2-2.5-2.8c0-2,1.3-3.1,2.6-3.1
		c1,0,1.6,0.5,1.8,1h0l0-0.9H523.4z M522.3,185.5c0-0.2,0-0.3-0.1-0.5c-0.2-0.6-0.7-1.1-1.5-1.1c-1,0-1.7,0.9-1.7,2.2
		c0,1.1,0.6,2.1,1.7,2.1c0.6,0,1.2-0.4,1.5-1.1c0.1-0.2,0.1-0.4,0.1-0.6V185.5z"/>
	<path class="st15" d="M527.6,185.1c0-0.7,0-1.3,0-1.9h0.9l0,1h0c0.4-0.7,1.1-1.1,2.1-1.1c1.4,0,2.5,1.2,2.5,3
		c0,2.1-1.3,3.1-2.6,3.1c-0.8,0-1.4-0.3-1.8-0.9h0v3.2h-1V185.1z M528.7,186.6c0,0.2,0,0.3,0,0.4c0.2,0.7,0.8,1.2,1.6,1.2
		c1.1,0,1.8-0.9,1.8-2.2c0-1.2-0.6-2.2-1.7-2.2c-0.7,0-1.4,0.5-1.6,1.3c0,0.1-0.1,0.3-0.1,0.4V186.6z"/>
	<path class="st15" d="M537.7,189l-0.1-0.7h0c-0.3,0.5-0.9,0.9-1.8,0.9c-1.2,0-1.8-0.8-1.8-1.7c0-1.4,1.2-2.2,3.5-2.2v-0.1
		c0-0.5-0.1-1.3-1.3-1.3c-0.5,0-1.1,0.2-1.5,0.4l-0.2-0.7c0.5-0.3,1.2-0.5,1.9-0.5c1.8,0,2.2,1.2,2.2,2.4v2.2c0,0.5,0,1,0.1,1.4
		H537.7z M537.5,186c-1.2,0-2.5,0.2-2.5,1.3c0,0.7,0.5,1,1,1c0.8,0,1.2-0.5,1.4-1c0-0.1,0.1-0.2,0.1-0.3V186z"/>
	<path class="st15" d="M545.3,183.2c0,0.4,0,0.9,0,1.6v3.4c0,1.3-0.3,2.1-0.8,2.7c-0.6,0.5-1.4,0.7-2.1,0.7c-0.7,0-1.5-0.2-1.9-0.5
		l0.3-0.8c0.4,0.2,1,0.5,1.7,0.5c1.1,0,1.9-0.6,1.9-2V188h0c-0.3,0.5-0.9,1-1.8,1c-1.4,0-2.5-1.2-2.5-2.8c0-2,1.3-3.1,2.6-3.1
		c1,0,1.6,0.5,1.8,1h0l0-0.9H545.3z M544.2,185.5c0-0.2,0-0.3-0.1-0.5c-0.2-0.6-0.7-1.1-1.5-1.1c-1,0-1.7,0.9-1.7,2.2
		c0,1.1,0.6,2.1,1.7,2.1c0.6,0,1.2-0.4,1.5-1.1c0.1-0.2,0.1-0.4,0.1-0.6V185.5z"/>
	<path class="st15" d="M547.5,186.3c0,1.4,0.9,2,2,2c0.8,0,1.2-0.1,1.6-0.3l0.2,0.8c-0.4,0.2-1,0.4-1.9,0.4c-1.8,0-2.9-1.2-2.9-2.9
		s1-3.1,2.7-3.1c1.9,0,2.4,1.7,2.4,2.7c0,0.2,0,0.4,0,0.5H547.5z M550.6,185.5c0-0.7-0.3-1.7-1.5-1.7c-1.1,0-1.5,1-1.6,1.7H550.6z"
		/>
	<path class="st15" d="M552.8,187.9c0.3,0.2,0.9,0.4,1.4,0.4c0.8,0,1.1-0.4,1.1-0.9c0-0.5-0.3-0.8-1.1-1.1c-1-0.4-1.5-0.9-1.5-1.6
		c0-0.9,0.8-1.7,2-1.7c0.6,0,1.1,0.2,1.4,0.4l-0.3,0.8c-0.2-0.1-0.6-0.3-1.2-0.3c-0.6,0-1,0.4-1,0.8c0,0.5,0.3,0.7,1.1,1
		c1,0.4,1.5,0.9,1.5,1.8c0,1-0.8,1.7-2.2,1.7c-0.6,0-1.2-0.2-1.6-0.4L552.8,187.9z"/>
</g>
<g>
	<path class="st15" d="M311.9,203.3l1.2,4.4c0.3,1,0.5,1.9,0.6,2.8h0.1c0.2-0.9,0.5-1.8,0.8-2.8l1.4-4.4h1.3l1.4,4.4
		c0.3,1,0.6,2,0.8,2.8h0.1c0.1-0.9,0.4-1.8,0.7-2.8l1.2-4.4h1.6l-2.8,8.7h-1.4l-1.3-4.2c-0.3-1-0.6-1.8-0.8-2.9h0
		c-0.2,1-0.5,1.9-0.8,2.9l-1.4,4.1H313l-2.6-8.7H311.9z"/>
	<path class="st15" d="M325.3,207.9c0,2.1,1.4,3,3,3c1.1,0,1.8-0.2,2.4-0.5l0.3,1.1c-0.6,0.3-1.5,0.5-2.9,0.5
		c-2.7,0-4.3-1.8-4.3-4.4s1.5-4.7,4.1-4.7c2.8,0,3.6,2.5,3.6,4.1c0,0.3,0,0.6-0.1,0.7H325.3z M329.9,206.8c0-1-0.4-2.6-2.2-2.6
		c-1.6,0-2.3,1.5-2.4,2.6H329.9z"/>
	<path class="st15" d="M333.3,212c0-0.6,0.1-1.5,0.1-2.3v-10.5h1.6v5.5h0c0.6-1,1.6-1.6,3-1.6c2.2,0,3.7,1.8,3.7,4.4
		c0,3.1-2,4.7-3.9,4.7c-1.3,0-2.3-0.5-2.9-1.6h-0.1l-0.1,1.4H333.3z M335,208.5c0,0.2,0,0.4,0.1,0.6c0.3,1.1,1.2,1.9,2.4,1.9
		c1.7,0,2.6-1.4,2.6-3.3c0-1.7-0.9-3.2-2.6-3.2c-1.1,0-2.1,0.7-2.4,1.9c0,0.2-0.1,0.4-0.1,0.6V208.5z"/>
	<path class="st15" d="M343.4,210.4c0.5,0.3,1.3,0.6,2.1,0.6c1.2,0,1.7-0.6,1.7-1.3c0-0.8-0.5-1.2-1.6-1.6c-1.6-0.6-2.3-1.4-2.3-2.5
		c0-1.4,1.1-2.6,3-2.6c0.9,0,1.7,0.3,2.1,0.5l-0.4,1.2c-0.3-0.2-1-0.5-1.8-0.5c-0.9,0-1.5,0.5-1.5,1.2c0,0.7,0.5,1,1.7,1.5
		c1.5,0.6,2.3,1.3,2.3,2.6c0,1.5-1.2,2.6-3.3,2.6c-1,0-1.8-0.2-2.4-0.6L343.4,210.4z"/>
	<path class="st15" d="M352.5,200.8c0,0.5-0.4,1-1,1c-0.6,0-1-0.4-1-1c0-0.6,0.4-1,1-1C352.2,199.8,352.5,200.3,352.5,200.8z
		 M350.8,212v-8.7h1.6v8.7H350.8z"/>
	<path class="st15" d="M356.9,200.8v2.5h2.3v1.2h-2.3v4.7c0,1.1,0.3,1.7,1.2,1.7c0.4,0,0.7-0.1,0.9-0.1l0.1,1.2
		c-0.3,0.1-0.8,0.2-1.4,0.2c-0.7,0-1.3-0.2-1.7-0.7c-0.5-0.5-0.6-1.2-0.6-2.3v-4.8H354v-1.2h1.4v-2.1L356.9,200.8z"/>
	<path class="st15" d="M361.7,207.9c0,2.1,1.4,3,3,3c1.1,0,1.8-0.2,2.4-0.5l0.3,1.1c-0.6,0.3-1.5,0.5-2.9,0.5
		c-2.7,0-4.3-1.8-4.3-4.4s1.5-4.7,4.1-4.7c2.8,0,3.6,2.5,3.6,4.1c0,0.3,0,0.6-0.1,0.7H361.7z M366.4,206.8c0-1-0.4-2.6-2.2-2.6
		c-1.6,0-2.3,1.5-2.4,2.6H366.4z"/>
	<path class="st15" d="M381.3,212c-0.3-0.3-0.7-0.7-1.1-1.2c-1,1-2.2,1.4-3.5,1.4c-2.4,0-3.7-1.6-3.7-3.4c0-1.7,1-2.8,2.4-3.5v-0.1
		c-0.6-0.8-1-1.7-1-2.5c0-1.5,1.1-3,3.1-3c1.5,0,2.7,1,2.7,2.6c0,1.3-0.7,2.3-2.7,3.2v0.1c1,1.2,2.2,2.5,3,3.4
		c0.6-0.8,0.9-2,1.2-3.5h1.4c-0.3,1.9-0.8,3.4-1.7,4.5c0.6,0.7,1.3,1.4,2,2.1H381.3z M379.4,209.9c-0.7-0.8-2.1-2.3-3.4-3.8
		c-0.6,0.4-1.6,1.2-1.6,2.5c0,1.4,1,2.4,2.5,2.4C378,211,378.8,210.5,379.4,209.9z M375.7,202.5c0,0.9,0.4,1.5,0.9,2.2
		c1.2-0.7,2-1.3,2-2.4c0-0.7-0.4-1.6-1.4-1.6C376.2,200.7,375.7,201.6,375.7,202.5z"/>
	<path class="st15" d="M388.2,210.1c0.7,0.4,1.7,0.8,2.8,0.8c1.6,0,2.5-0.8,2.5-2.1c0-1.1-0.6-1.8-2.3-2.4c-2-0.7-3.2-1.7-3.2-3.4
		c0-1.9,1.6-3.3,3.9-3.3c1.2,0,2.1,0.3,2.7,0.6l-0.4,1.3c-0.4-0.2-1.2-0.6-2.3-0.6c-1.7,0-2.3,1-2.3,1.8c0,1.1,0.7,1.7,2.4,2.3
		c2.1,0.8,3.1,1.8,3.1,3.6c0,1.9-1.4,3.5-4.2,3.5c-1.2,0-2.4-0.3-3.1-0.8L388.2,210.1z"/>
	<path class="st15" d="M403.6,206.3h-4.7v4.4h5.3v1.3h-6.8v-12.1h6.6v1.3h-5v3.8h4.7V206.3z"/>
	<path class="st15" d="M416.5,205.8c0,4.2-2.5,6.4-5.6,6.4c-3.2,0-5.5-2.5-5.5-6.2c0-3.9,2.4-6.4,5.6-6.4
		C414.4,199.7,416.5,202.2,416.5,205.8z M407.1,206c0,2.6,1.4,4.9,3.9,4.9c2.5,0,3.9-2.3,3.9-5c0-2.4-1.3-4.9-3.9-4.9
		C408.4,200.9,407.1,203.3,407.1,206z"/>
</g>
<g>
	<path class="st15" d="M372.2,287.7c0-0.9,0-1.7-0.1-2.4h1.2l0,1.5h0.1c0.4-1,1.2-1.7,2.1-1.7c0.2,0,0.3,0,0.4,0v1.3
		c-0.1,0-0.3,0-0.5,0c-1,0-1.7,0.8-1.9,1.8c0,0.2-0.1,0.4-0.1,0.7v4.1h-1.4V287.7z"/>
	<path class="st15" d="M378,289.4c0,1.9,1.2,2.7,2.7,2.7c1,0,1.6-0.2,2.1-0.4l0.2,1c-0.5,0.2-1.3,0.5-2.6,0.5
		c-2.4,0-3.8-1.6-3.8-3.9s1.4-4.2,3.6-4.2c2.5,0,3.2,2.2,3.2,3.6c0,0.3,0,0.5,0,0.7H378z M382.2,288.4c0-0.9-0.4-2.3-2-2.3
		c-1.4,0-2,1.3-2.2,2.3H382.2z"/>
	<path class="st15" d="M385.1,291.6c0.4,0.3,1.2,0.6,1.9,0.6c1,0,1.5-0.5,1.5-1.2c0-0.7-0.4-1-1.4-1.4c-1.4-0.5-2-1.3-2-2.2
		c0-1.2,1-2.3,2.7-2.3c0.8,0,1.5,0.2,1.9,0.5l-0.4,1c-0.3-0.2-0.9-0.4-1.6-0.4c-0.8,0-1.3,0.5-1.3,1.1c0,0.6,0.5,0.9,1.5,1.3
		c1.3,0.5,2,1.2,2,2.3c0,1.4-1.1,2.3-2.9,2.3c-0.8,0-1.6-0.2-2.2-0.5L385.1,291.6z"/>
	<path class="st15" d="M398.1,290.9c0,0.8,0,1.5,0.1,2.1h-1.2l-0.1-1.3h0c-0.4,0.6-1.2,1.4-2.6,1.4c-1.2,0-2.7-0.7-2.7-3.4v-4.5h1.4
		v4.3c0,1.5,0.4,2.5,1.7,2.5c0.9,0,1.6-0.7,1.9-1.3c0.1-0.2,0.1-0.5,0.1-0.7v-4.8h1.4V290.9z"/>
	<path class="st15" d="M400.4,281.6h1.4V293h-1.4V281.6z"/>
	<path class="st15" d="M405.9,283v2.2h2v1.1h-2v4.2c0,1,0.3,1.5,1.1,1.5c0.4,0,0.6,0,0.8-0.1l0.1,1.1c-0.3,0.1-0.7,0.2-1.2,0.2
		c-0.7,0-1.2-0.2-1.5-0.6c-0.4-0.4-0.5-1.1-0.5-2v-4.2h-1.2v-1.1h1.2v-1.9L405.9,283z"/>
	<path class="st15" d="M409.3,291.6c0.4,0.3,1.2,0.6,1.9,0.6c1,0,1.5-0.5,1.5-1.2c0-0.7-0.4-1-1.4-1.4c-1.4-0.5-2-1.3-2-2.2
		c0-1.2,1-2.3,2.7-2.3c0.8,0,1.5,0.2,1.9,0.5l-0.4,1c-0.3-0.2-0.9-0.4-1.6-0.4c-0.8,0-1.3,0.5-1.3,1.1c0,0.6,0.5,0.9,1.5,1.3
		c1.3,0.5,2,1.2,2,2.3c0,1.4-1.1,2.3-2.9,2.3c-0.8,0-1.6-0.2-2.2-0.5L409.3,291.6z"/>
	<path class="st15" d="M426,293c-0.3-0.3-0.6-0.6-1-1.1c-0.9,0.9-2,1.2-3.2,1.2c-2.1,0-3.3-1.4-3.3-3c0-1.5,0.9-2.5,2.1-3.2v0
		c-0.6-0.7-0.9-1.5-0.9-2.3c0-1.3,0.9-2.7,2.7-2.7c1.3,0,2.4,0.9,2.4,2.3c0,1.1-0.7,2-2.4,2.9v0c0.9,1.1,1.9,2.2,2.6,3
		c0.5-0.8,0.8-1.8,1-3.2h1.3c-0.3,1.7-0.8,3-1.6,4c0.6,0.6,1.1,1.2,1.8,1.9H426z M424.3,291.1c-0.6-0.7-1.8-2-3-3.4
		c-0.6,0.4-1.4,1.1-1.4,2.2c0,1.2,0.9,2.2,2.2,2.2C423,292.1,423.8,291.7,424.3,291.1z M421,284.6c0,0.8,0.4,1.4,0.8,1.9
		c1.1-0.6,1.8-1.2,1.8-2.1c0-0.7-0.4-1.4-1.2-1.4C421.5,283,421,283.7,421,284.6z"/>
	<path class="st15" d="M432.3,287.7c0-0.9,0-1.7-0.1-2.4h1.2l0,1.5h0.1c0.4-1,1.2-1.7,2.1-1.7c0.2,0,0.3,0,0.4,0v1.3
		c-0.1,0-0.3,0-0.5,0c-1,0-1.7,0.8-1.9,1.8c0,0.2-0.1,0.4-0.1,0.7v4.1h-1.4V287.7z"/>
	<path class="st15" d="M438.1,289.4c0,1.9,1.2,2.7,2.7,2.7c1,0,1.6-0.2,2.1-0.4l0.2,1c-0.5,0.2-1.3,0.5-2.6,0.5
		c-2.4,0-3.8-1.6-3.8-3.9s1.4-4.2,3.6-4.2c2.5,0,3.2,2.2,3.2,3.6c0,0.3,0,0.5,0,0.7H438.1z M442.3,288.4c0-0.9-0.4-2.3-2-2.3
		c-1.4,0-2,1.3-2.2,2.3H442.3z"/>
	<path class="st15" d="M445.4,287.8c0-1,0-1.8-0.1-2.5h1.3l0.1,1.3h0c0.6-0.9,1.5-1.5,2.8-1.5c1.9,0,3.3,1.6,3.3,3.9
		c0,2.8-1.7,4.2-3.5,4.2c-1,0-1.9-0.4-2.4-1.2h0v4.2h-1.4V287.8z M446.8,289.8c0,0.2,0,0.4,0.1,0.6c0.3,1,1.1,1.6,2.1,1.6
		c1.5,0,2.4-1.2,2.4-3c0-1.6-0.8-2.9-2.3-2.9c-1,0-1.9,0.7-2.1,1.7c0,0.2-0.1,0.4-0.1,0.6V289.8z"/>
	<path class="st15" d="M461.5,289.1c0,2.9-2,4.1-3.9,4.1c-2.1,0-3.7-1.5-3.7-4c0-2.6,1.7-4.1,3.8-4.1
		C460,285.1,461.5,286.7,461.5,289.1z M455.3,289.1c0,1.7,1,3,2.4,3c1.3,0,2.4-1.3,2.4-3c0-1.3-0.7-3-2.3-3
		C456.1,286.1,455.3,287.7,455.3,289.1z"/>
	<path class="st15" d="M463.3,287.7c0-0.9,0-1.7-0.1-2.4h1.2l0,1.5h0.1c0.4-1,1.2-1.7,2.1-1.7c0.2,0,0.3,0,0.4,0v1.3
		c-0.1,0-0.3,0-0.5,0c-1,0-1.7,0.8-1.9,1.8c0,0.2-0.1,0.4-0.1,0.7v4.1h-1.4V287.7z"/>
	<path class="st15" d="M470.6,283v2.2h2v1.1h-2v4.2c0,1,0.3,1.5,1.1,1.5c0.4,0,0.6,0,0.8-0.1l0.1,1.1c-0.3,0.1-0.7,0.2-1.2,0.2
		c-0.7,0-1.2-0.2-1.5-0.6c-0.4-0.4-0.5-1.1-0.5-2v-4.2H468v-1.1h1.2v-1.9L470.6,283z"/>
	<path class="st15" d="M475.7,283.1c0,0.5-0.3,0.9-0.9,0.9c-0.5,0-0.8-0.4-0.8-0.9c0-0.5,0.4-0.9,0.9-0.9
		C475.4,282.2,475.7,282.6,475.7,283.1z M474.2,293v-7.7h1.4v7.7H474.2z"/>
	<path class="st15" d="M477.9,287.3c0-0.8,0-1.5-0.1-2.1h1.2l0.1,1.3h0c0.4-0.7,1.3-1.5,2.6-1.5c1.1,0,2.7,0.6,2.7,3.3v4.6h-1.4
		v-4.5c0-1.2-0.5-2.3-1.8-2.3c-0.9,0-1.6,0.7-1.9,1.4c-0.1,0.2-0.1,0.4-0.1,0.7v4.7h-1.4V287.3z"/>
	<path class="st15" d="M493.5,285.3c0,0.6-0.1,1.2-0.1,2.1v4.5c0,1.8-0.4,2.9-1.1,3.5c-0.8,0.7-1.8,0.9-2.8,0.9
		c-0.9,0-2-0.2-2.6-0.6l0.4-1.1c0.5,0.3,1.3,0.6,2.3,0.6c1.4,0,2.5-0.8,2.5-2.7v-0.9h0c-0.4,0.7-1.3,1.3-2.5,1.3
		c-1.9,0-3.3-1.6-3.3-3.8c0-2.6,1.7-4.1,3.5-4.1c1.3,0,2.1,0.7,2.4,1.3h0l0.1-1.2H493.5z M492,288.3c0-0.2,0-0.4-0.1-0.6
		c-0.3-0.8-0.9-1.5-2-1.5c-1.3,0-2.3,1.1-2.3,2.9c0,1.5,0.8,2.8,2.3,2.8c0.9,0,1.6-0.5,2-1.4c0.1-0.2,0.1-0.5,0.1-0.8V288.3z"/>
</g>
<g>
	<path class="st15" d="M322,227.8c-0.3,0.1-0.9,0.3-1.7,0.3c-1.8,0-2.9-1.2-2.9-3c0-1.8,1.2-3.1,3.1-3.1c0.6,0,1.2,0.2,1.5,0.3
		l-0.2,0.8c-0.3-0.1-0.6-0.3-1.2-0.3c-1.3,0-2.1,1-2.1,2.2c0,1.3,0.9,2.2,2,2.2c0.6,0,1-0.2,1.3-0.3L322,227.8z"/>
	<path class="st15" d="M328.4,225c0,2.1-1.5,3.1-2.9,3.1c-1.6,0-2.8-1.2-2.8-3c0-1.9,1.3-3.1,2.9-3.1
		C327.3,222.1,328.4,223.3,328.4,225z M323.8,225.1c0,1.3,0.7,2.2,1.8,2.2c1,0,1.8-0.9,1.8-2.3c0-1-0.5-2.2-1.7-2.2
		C324.4,222.9,323.8,224,323.8,225.1z"/>
	<path class="st15" d="M329.8,223.8c0-0.6,0-1.1,0-1.6h0.9l0.1,1h0c0.3-0.6,1-1.1,1.9-1.1c0.8,0,2.1,0.5,2.1,2.5v3.5h-1.1v-3.3
		c0-0.9-0.3-1.7-1.3-1.7c-0.7,0-1.2,0.5-1.4,1.1c0,0.1-0.1,0.3-0.1,0.5v3.5h-1.1V223.8z"/>
	<path class="st15" d="M337.7,220.5v1.7h1.5v0.8h-1.5v3.1c0,0.7,0.2,1.1,0.8,1.1c0.3,0,0.5,0,0.6-0.1l0,0.8
		c-0.2,0.1-0.5,0.1-0.9,0.1c-0.5,0-0.9-0.2-1.1-0.4c-0.3-0.3-0.4-0.8-0.4-1.5V223h-0.9v-0.8h0.9v-1.4L337.7,220.5z"/>
	<path class="st15" d="M340.9,225.3c0,1.4,0.9,2,2,2c0.8,0,1.2-0.1,1.6-0.3l0.2,0.8c-0.4,0.2-1,0.4-1.9,0.4c-1.8,0-2.9-1.2-2.9-2.9
		s1-3.1,2.7-3.1c1.9,0,2.4,1.7,2.4,2.7c0,0.2,0,0.4,0,0.5H340.9z M344,224.5c0-0.7-0.3-1.7-1.5-1.7c-1.1,0-1.5,1-1.6,1.7H344z"/>
	<path class="st15" d="M346.3,223.8c0-0.6,0-1.1,0-1.6h0.9l0.1,1h0c0.3-0.6,1-1.1,1.9-1.1c0.8,0,2.1,0.5,2.1,2.5v3.5h-1.1v-3.3
		c0-0.9-0.3-1.7-1.3-1.7c-0.7,0-1.2,0.5-1.4,1.1c0,0.1-0.1,0.3-0.1,0.5v3.5h-1.1V223.8z"/>
	<path class="st15" d="M354.2,220.5v1.7h1.5v0.8h-1.5v3.1c0,0.7,0.2,1.1,0.8,1.1c0.3,0,0.5,0,0.6-0.1l0,0.8
		c-0.2,0.1-0.5,0.1-0.9,0.1c-0.5,0-0.9-0.2-1.1-0.4c-0.3-0.3-0.4-0.8-0.4-1.5V223h-0.9v-0.8h0.9v-1.4L354.2,220.5z"/>
	<path class="st15" d="M359.4,223.8c0-0.6,0-1.1,0-1.6h0.9l0,0.9h0c0.3-0.6,0.9-1.1,1.8-1.1c0.8,0,1.4,0.5,1.6,1.2h0
		c0.2-0.3,0.4-0.6,0.6-0.8c0.3-0.3,0.7-0.4,1.3-0.4c0.8,0,1.9,0.5,1.9,2.5v3.4h-1v-3.3c0-1.1-0.4-1.8-1.3-1.8c-0.6,0-1.1,0.4-1.2,1
		c0,0.1-0.1,0.3-0.1,0.5v3.6h-1v-3.5c0-0.9-0.4-1.6-1.2-1.6c-0.7,0-1.1,0.5-1.3,1.1c-0.1,0.2-0.1,0.3-0.1,0.5v3.5h-1V223.8z"/>
	<path class="st15" d="M372.6,228l-0.1-0.7h0c-0.3,0.5-0.9,0.9-1.8,0.9c-1.2,0-1.8-0.8-1.8-1.7c0-1.4,1.2-2.2,3.5-2.2v-0.1
		c0-0.5-0.1-1.3-1.3-1.3c-0.5,0-1.1,0.2-1.5,0.4l-0.2-0.7c0.5-0.3,1.2-0.5,1.9-0.5c1.8,0,2.2,1.2,2.2,2.4v2.2c0,0.5,0,1,0.1,1.4
		H372.6z M372.5,225c-1.2,0-2.5,0.2-2.5,1.3c0,0.7,0.5,1,1,1c0.8,0,1.2-0.5,1.4-1c0-0.1,0.1-0.2,0.1-0.3V225z"/>
	<path class="st15" d="M375.2,224c0-0.7,0-1.3,0-1.8h0.9l0,1.1h0c0.3-0.8,0.9-1.3,1.6-1.3c0.1,0,0.2,0,0.3,0v1c-0.1,0-0.2,0-0.4,0
		c-0.7,0-1.3,0.6-1.4,1.4c0,0.1,0,0.3,0,0.5v3.1h-1V224z"/>
	<path class="st15" d="M380.2,224.9L380.2,224.9c0.2-0.2,0.4-0.5,0.5-0.7l1.7-2h1.3l-2.2,2.4l2.6,3.4h-1.3l-2-2.8l-0.5,0.6v2.2h-1
		v-8.5h1V224.9z"/>
	<path class="st15" d="M385.4,225.3c0,1.4,0.9,2,2,2c0.8,0,1.2-0.1,1.6-0.3l0.2,0.8c-0.4,0.2-1,0.4-1.9,0.4c-1.8,0-2.9-1.2-2.9-2.9
		s1-3.1,2.7-3.1c1.9,0,2.4,1.7,2.4,2.7c0,0.2,0,0.4,0,0.5H385.4z M388.5,224.5c0-0.7-0.3-1.7-1.5-1.7c-1.1,0-1.5,1-1.6,1.7H388.5z"
		/>
	<path class="st15" d="M392.1,220.5v1.7h1.5v0.8h-1.5v3.1c0,0.7,0.2,1.1,0.8,1.1c0.3,0,0.5,0,0.6-0.1l0,0.8
		c-0.2,0.1-0.5,0.1-0.9,0.1c-0.5,0-0.9-0.2-1.1-0.4c-0.3-0.3-0.4-0.8-0.4-1.5V223h-0.9v-0.8h0.9v-1.4L392.1,220.5z"/>
	<path class="st15" d="M396,220.6c0,0.4-0.3,0.6-0.7,0.6c-0.4,0-0.6-0.3-0.6-0.6c0-0.4,0.3-0.7,0.7-0.7
		C395.7,219.9,396,220.2,396,220.6z M394.8,228v-5.8h1.1v5.8H394.8z"/>
	<path class="st15" d="M397.6,223.8c0-0.6,0-1.1,0-1.6h0.9l0.1,1h0c0.3-0.6,1-1.1,1.9-1.1c0.8,0,2.1,0.5,2.1,2.5v3.5h-1.1v-3.3
		c0-0.9-0.3-1.7-1.3-1.7c-0.7,0-1.2,0.5-1.4,1.1c0,0.1-0.1,0.3-0.1,0.5v3.5h-1.1V223.8z"/>
	<path class="st15" d="M409.3,222.2c0,0.4,0,0.9,0,1.6v3.4c0,1.3-0.3,2.1-0.8,2.7c-0.6,0.5-1.4,0.7-2.1,0.7c-0.7,0-1.5-0.2-1.9-0.5
		l0.3-0.8c0.4,0.2,1,0.5,1.7,0.5c1.1,0,1.9-0.6,1.9-2V227h0c-0.3,0.5-0.9,1-1.8,1c-1.4,0-2.5-1.2-2.5-2.8c0-2,1.3-3.1,2.6-3.1
		c1,0,1.6,0.5,1.8,1h0l0-0.9H409.3z M408.2,224.5c0-0.2,0-0.3-0.1-0.5c-0.2-0.6-0.7-1.1-1.5-1.1c-1,0-1.7,0.9-1.7,2.2
		c0,1.1,0.6,2.1,1.7,2.1c0.6,0,1.2-0.4,1.5-1.1c0.1-0.2,0.1-0.4,0.1-0.6V224.5z"/>
</g>
</svg>
