<?xml version="1.0" encoding="utf-8"?>
<!-- Generator: Adobe Illustrator 21.0.2, SVG Export Plug-In . SVG Version: 6.00 Build 0)  -->
<svg version="1.1" id="Layer_1" xmlns="http://www.w3.org/2000/svg" xmlns:xlink="http://www.w3.org/1999/xlink" x="0px" y="0px"
	 viewBox="0 0 73.2 73.2" style="enable-background:new 0 0 73.2 73.2;" xml:space="preserve">
<style type="text/css">
	.st0{display:none;fill:#9AB9AD;}
	.st1{fill:#B6B4DF;}
</style>
<rect x="-203" y="-120.2" class="st0" width="841.9" height="297.6"/>
<g>
	<g>
		<path class="st1" d="M68.2,61c0,0.3-0.1,0.7-0.4,0.9c-0.2,0.3-0.5,0.4-0.9,0.4H6.3c-0.3,0-0.6-0.1-0.9-0.4C5.2,61.7,5,61.4,5,61
			V12.2c0-0.3,0.1-0.6,0.4-0.9c0.2-0.3,0.5-0.4,0.9-0.4H67c0.3,0,0.6,0.1,0.9,0.4c0.2,0.3,0.4,0.6,0.4,0.9V61z M71.3,7.7
			c-1.2-1.3-2.6-1.9-4.3-1.9H6.3C4.6,5.8,3.2,6.4,2,7.7c-1.2,1.3-1.8,2.8-1.8,4.5V61c0,1.8,0.6,3.3,1.8,4.5c1.2,1.3,2.6,1.9,4.3,1.9
			H67c1.7,0,3.1-0.6,4.3-1.9c1.2-1.3,1.8-2.8,1.8-4.5V12.2C73.1,10.4,72.5,8.9,71.3,7.7"/>
		<path class="st1" d="M17.2,31.5c2,0,3.7-0.8,5.2-2.3s2.1-3.3,2.1-5.5c0-2.1-0.7-4-2.1-5.5c-1.4-1.5-3.1-2.2-5.2-2.2
			c-2,0-3.7,0.7-5.2,2.2c-1.4,1.5-2.1,3.3-2.1,5.5c0,2.1,0.7,4,2.1,5.5C13.4,30.7,15.2,31.5,17.2,31.5"/>
	</g>
	<polygon class="st1" points="28.1,43 22,36.6 9.9,49.5 9.9,57.2 63.3,57.2 63.3,39.2 47.6,22.5 	"/>
</g>
</svg>
