<?xml version="1.0" encoding="utf-8"?>
<!-- Generator: Adobe Illustrator 21.0.2, SVG Export Plug-In . SVG Version: 6.00 Build 0)  -->
<svg version="1.1" id="Layer_1" xmlns="http://www.w3.org/2000/svg" xmlns:xlink="http://www.w3.org/1999/xlink" x="0px" y="0px"
	 viewBox="0 0 73.2 73.2" style="enable-background:new 0 0 73.2 73.2;" xml:space="preserve">
<style type="text/css">
	.st0{display:none;fill:#9AB9AD;}
	.st1{fill:#A4C6D3;}
</style>
<rect x="-203" y="-120.2" class="st0" width="841.9" height="297.6"/>
<g>
	<path class="st1" d="M23.3,16.9c0.8-1.3,2.2-2,3.7-2c0.8,0,1.6,0.2,2.3,0.7c2,1.3,2.6,4,1.4,6c-0.8,1.3-2.2,2-3.7,2
		c-0.8,0-1.6-0.2-2.3-0.7c-1-0.6-1.7-1.6-1.9-2.7C22.5,19.1,22.7,17.9,23.3,16.9 M9.4,42.7c0.8-1.3,2.2-2,3.7-2
		c0.8,0,1.6,0.2,2.3,0.7c1,0.6,1.7,1.6,1.9,2.7c0.3,1.1,0.1,2.3-0.6,3.3c-0.8,1.3-2.2,2-3.7,2c-0.8,0-1.6-0.2-2.3-0.7
		c-1-0.6-1.7-1.6-1.9-2.7C8.6,44.8,8.8,43.7,9.4,42.7 M14,33.1c-0.8,0-1.6-0.2-2.3-0.7c-1-0.6-1.7-1.6-1.9-2.7
		c-0.3-1.1-0.1-2.3,0.6-3.3c0.8-1.3,2.2-2,3.7-2c0.8,0,1.6,0.2,2.3,0.7c2,1.3,2.6,4,1.4,6C16.9,32.4,15.5,33.1,14,33.1 M52.5,33.2
		c2.2-3.2,4.5-6.4,6.7-9.3c0.4,0.3,0.8,0.6,1.2,0.9c0.7,0.5,1.5,0.9,2.2,1.1c-1.9,3.2-3.9,6.3-6.3,9.9c-4,5.9-8.1,11.3-11.6,15.3
		c-2,2.2-3.7,4-5,5.1c0.5-1.6,1.5-3.9,2.9-6.6C45,44.9,48.5,39,52.5,33.2 M46.9,25.3c-0.8,1.3-2.2,2-3.7,2c-0.8,0-1.6-0.2-2.3-0.7
		c-1-0.6-1.7-1.6-1.9-2.7c-0.3-1.1-0.1-2.3,0.6-3.3c0.8-1.3,2.2-2,3.7-2c0.8,0,1.6,0.2,2.3,0.7c1,0.6,1.7,1.6,1.9,2.7
		C47.7,23.2,47.5,24.3,46.9,25.3 M71.8,8.7c-0.1-0.3-0.5-0.6-0.8-0.6c-0.4,0-0.7,0.1-1,0.4c-1.3,1.8-3,2.4-4.9,3.1
		c-1.6,0.6-3.2,1.1-5,2.4c-2.5,1.8-3.6,4.2-3.1,6.5L57,20.6c-1-1.5-2.2-2.9-3.4-4.2C48,10.6,40.2,7.1,32.2,6.8c-0.4,0-0.7,0-1.1,0
		c-9,0-17.5,4-23.5,11c-6,6.9-8.6,16-7.2,24.8c0.1,0.7,0.3,1.5,0.4,2.2C3,54.5,8.6,61.9,16.2,65.1c1.9,0.8,3.8,1.2,5.6,1.2
		c4.6,0,8.6-2.5,11-6.8c0.9-1.6,1.5-3.3,1.8-5c0.1-1,0-2-0.1-3c-0.1-1-0.2-1.9,0-2.9c0.3-2.2,1.9-3.5,4.1-3.5c0.6,0,1.3,0.1,1.9,0.3
		c-0.7,1.4-1.4,2.7-2,3.9c-1.3,2.6-2.1,4.7-2.6,6.3c-0.3,1-1,3.7,0.8,4.9c0.6,0.4,1.3,0.5,2.1,0.4c0.7-0.1,2.8-0.5,8.7-7.3
		c1.6-1.8,3.3-3.9,5.1-6.2c4.6-1.6,8.2-5.4,9.1-9.8c0.2-1.1,0.3-2.3,0.3-3.5c1.7-2.7,3.2-5.2,4.8-7.8c0-0.1,0.1-0.1,0.1-0.2
		c2.2-0.6,4.1-2.3,5.2-4.7C73.7,17.9,73.6,13.4,71.8,8.7"/>
</g>
</svg>
