<?xml version="1.0" encoding="utf-8"?>
<!-- Generator: Adobe Illustrator 21.0.2, SVG Export Plug-In . SVG Version: 6.00 Build 0)  -->
<svg version="1.1" id="Layer_1" xmlns="http://www.w3.org/2000/svg" xmlns:xlink="http://www.w3.org/1999/xlink" x="0px" y="0px"
	 viewBox="0 0 73.2 73.2" style="enable-background:new 0 0 73.2 73.2;" xml:space="preserve">
<style type="text/css">
	.st0{display:none;fill:#9AB9AD;}
	.st1{fill:#FFFFFF;}
</style>
<rect x="-203" y="-120.2" class="st0" width="841.9" height="297.6"/>
<g>
	<path class="st1" d="M61.8,54.9h-6.9v-6.9c0-1.3-1-2.3-2.3-2.3c-1.3,0-2.3,1-2.3,2.3v9.2c0,1.3,1,2.3,2.3,2.3h9.2
		c1.3,0,2.3-1,2.3-2.3S63.1,54.9,61.8,54.9 M45.8,27.5h-9.2v9.2h9.2V27.5z M4.6,54.5V22.9h50.4V32h4.6V14.2c0-2.8-2.2-5-5-5h-1.9
		v2.3c0,2.5-2.1,4.6-4.6,4.6c-2.5,0-4.6-2.1-4.6-4.6V9.2H16v2.3C16,14,14,16,11.4,16S6.9,14,6.9,11.4V9.2H5c-2.7,0-5,2.3-5,5v40.3
		c0,2.8,2.2,5,5,5H32v-4.6H5C4.8,54.9,4.6,54.7,4.6,54.5 M22.9,50.4H32v-9.2h-9.2V50.4z M22.9,36.6H32v-9.2h-9.2V36.6z M9.2,50.4
		h9.2v-9.2H9.2V50.4z M18.3,27.5H9.2v9.2h9.2V27.5z M68.7,54.9c0-7.6-6.2-13.7-13.7-13.7c-7.6,0-13.7,6.2-13.7,13.7
		c0,7.6,6.2,13.7,13.7,13.7C62.5,68.7,68.7,62.5,68.7,54.9 M73.2,54.9c0,10.1-8.2,18.3-18.3,18.3c-10.1,0-18.3-8.2-18.3-18.3
		c0-10.1,8.2-18.3,18.3-18.3C65,36.6,73.2,44.8,73.2,54.9 M48.1,13.7c1.3,0,2.3-1,2.3-2.3V2.3c0-1.3-1-2.3-2.3-2.3
		c-1.3,0-2.3,1-2.3,2.3v9.2C45.8,12.7,46.8,13.7,48.1,13.7 M9.2,11.4V2.3c0-1.3,1-2.3,2.3-2.3c1.3,0,2.3,1,2.3,2.3v9.2
		c0,1.3-1,2.3-2.3,2.3C10.2,13.7,9.2,12.7,9.2,11.4"/>
</g>
</svg>
