<?xml version="1.0" encoding="utf-8"?>
<!-- Generator: Adobe Illustrator 21.0.2, SVG Export Plug-In . SVG Version: 6.00 Build 0)  -->
<svg version="1.1" id="Layer_1" xmlns="http://www.w3.org/2000/svg" xmlns:xlink="http://www.w3.org/1999/xlink" x="0px" y="0px"
	 viewBox="0 0 73.2 73.2" style="enable-background:new 0 0 73.2 73.2;" xml:space="preserve">
<style type="text/css">
	.st0{display:none;fill:#9AB9AD;}
	.st1{fill:#FFFFFF;}
</style>
<rect x="-203" y="-120.2" class="st0" width="841.9" height="297.6"/>
<g>
	<g>
		<path class="st1" d="M28,37.2c-2.4-2.3-4-5.6-4.1-9.2c-0.3,0-0.7,0-1,0h-9.1C6.2,28,0,34.2,0,41.8v11.1l0,0.2l0.8,0.2
			c5.8,1.8,11,2.6,15.5,2.9v-3.4C16.3,45.5,21.2,39.2,28,37.2 M18.3,27.3c2.1,0,4.1-0.6,5.7-1.7c0.5-3.4,2.4-6.4,5-8.5
			c0-0.2,0-0.4,0-0.6c0-5.9-4.8-10.7-10.7-10.7c-5.9,0-10.7,4.8-10.7,10.7C7.6,22.5,12.4,27.3,18.3,27.3 M59.5,28h-9
			c-0.1,3.6-1.6,6.9-4.1,9.2c6.7,2,11.7,8.3,11.7,15.6v3.4c8.9-0.3,14.1-2.9,14.4-3l0.7-0.4h0.1V41.8C73.2,34.2,67.1,28,59.5,28
			 M41.7,39.1h-9.1c-7.6,0-13.8,6.2-13.8,13.8V64l0,0.2l0.8,0.2c7.2,2.3,13.5,3,18.7,3c10.1,0,16-2.9,16.3-3.1l0.7-0.4h0.1V52.9
			C55.5,45.3,49.3,39.1,41.7,39.1 M37.2,38.4c5.9,0,10.7-4.8,10.7-10.7c0-5.9-4.8-10.7-10.7-10.7c-5.9,0-10.7,4.8-10.7,10.7
			C26.4,33.6,31.2,38.4,37.2,38.4 M44.2,16.4c3.4,2.1,5.8,5.7,6.2,9.9c1.4,0.6,2.9,1,4.5,1c5.9,0,10.7-4.8,10.7-10.7
			c0-5.9-4.8-10.7-10.7-10.7C49.1,5.8,44.3,10.5,44.2,16.4"/>
	</g>
</g>
</svg>
