<?xml version="1.0" encoding="utf-8"?>
<!-- Generator: Adobe Illustrator 21.0.2, SVG Export Plug-In . SVG Version: 6.00 Build 0)  -->
<svg version="1.1" id="Layer_1" xmlns="http://www.w3.org/2000/svg" xmlns:xlink="http://www.w3.org/1999/xlink" x="0px" y="0px"
	 viewBox="0 0 73.2 73.2" style="enable-background:new 0 0 73.2 73.2;" xml:space="preserve">
<style type="text/css">
	.st0{display:none;fill:#9AB9AD;}
	.st1{fill:#B6B4DF;}
</style>
<rect x="-203" y="-120.2" class="st0" width="841.9" height="297.6"/>
<path class="st1" d="M6.3,13.2h13.1v13.2H6.3V13.2z M0,32.5h25.4V7.1H0V32.5z"/>
<path class="st1" d="M6.2,47.3h13.1v13.1H6.2V47.3z M0,66.6h25.4V41.2H0V66.6z"/>
<g>
	<path class="st1" d="M73.2,17.2c-4.2,0-8.4-0.1-12.7-0.1c-7.8,0-15.6,0-23.4,0c-0.5,0-1.1,0-1.6,0v-6.7c0.4,0,0.7-0.1,1-0.1
		c12,0,23.9,0,35.9,0c0.3,0,0.5,0.1,0.8,0.1V17.2z"/>
	<path class="st1" d="M73.2,29.5c-4.4,0-8.8-0.1-13.2-0.1c-7.7,0-15.4,0-23.1,0c-0.4,0-0.9,0-1.4-0.1v-6.6c0.3,0,0.7-0.1,1.1-0.1
		c11.9,0,23.9,0,35.8,0c0.3,0,0.5,0,0.8,0.1V29.5z"/>
	<path class="st1" d="M73.2,51c-9.5,0-19,0-28.5,0.1c-3,0-6.1,0-9.2,0v-6.8c3.1,0,6.2,0,9.4,0c9,0,18,0,27,0c0.4,0,0.9-0.1,1.3-0.1
		V51z"/>
	<path class="st1" d="M73.2,63.4c-4.4,0-8.9,0.1-13.3,0.1c-8.1,0-16.1,0-24.3,0v-6.8h1.7c11.4,0,22.9,0,34.3,0
		c0.5,0,1.1-0.1,1.6-0.1V63.4z"/>
</g>
</svg>
