<svg xmlns="http://www.w3.org/2000/svg" viewBox="0 0 73.25 73.25"><defs><style>.cls-1{fill:#fff;}</style></defs><title>icon-puzzle</title><g id="Layer_2" data-name="Layer 2"><g id="Layer_1-2" data-name="Layer 1"><path class="cls-1" d="M69.32,23.54a6.53,6.53,0,0,0,3.92-1.33v13.1H57.55a1.31,1.31,0,0,0-1.31,1.31v.71a1.31,1.31,0,0,0,.66,1.13,3.92,3.92,0,1,1-3.93,0,1.31,1.31,0,0,0,.66-1.13v-.71a1.31,1.31,0,0,0-1.31-1.31H37.93V22.23l.13.08a6.85,6.85,0,0,0,.63.4l.17.1a6.7,6.7,0,0,0,.85.36l.22.06a6.3,6.3,0,0,0,.72.18l.26,0a6.54,6.54,0,1,0,0-12.92l-.26,0a6.52,6.52,0,0,0-.72.18l-.22.06a6.49,6.49,0,0,0-.85.37l-.17.1a6.64,6.64,0,0,0-.63.4l-.13.08V0H73.25V11.79a6.53,6.53,0,1,0-3.92,11.75m3.92,49.7H60.15a6.54,6.54,0,1,0-10.43,0H37.93V58.86a1.31,1.31,0,0,0-1.31-1.31h-.71a1.31,1.31,0,0,0-1.13.66,3.92,3.92,0,1,1,0-3.93,1.31,1.31,0,0,0,1.13.66h.71a1.31,1.31,0,0,0,1.31-1.31V37.93H49.71a6.54,6.54,0,1,0,10.46,0H73.25ZM0,37.93H15.7A1.31,1.31,0,0,0,17,36.62v-.71a1.31,1.31,0,0,0-.66-1.13,3.92,3.92,0,1,1,3.93,0,1.31,1.31,0,0,0-.66,1.13v.71a1.31,1.31,0,0,0,1.31,1.31H35.32V51a6.54,6.54,0,1,0,0,10.43V73.25H0ZM0,0H35.32V14.39a1.31,1.31,0,0,0,1.31,1.31h.71A1.31,1.31,0,0,0,38.46,15a3.92,3.92,0,1,1,0,3.93,1.31,1.31,0,0,0-1.13-.66h-.71a1.31,1.31,0,0,0-1.31,1.31v15.7H23.54l.08-.13a6.59,6.59,0,0,0,.39-.62l.1-.18a6.51,6.51,0,0,0,.36-.85c0-.07,0-.15.07-.22a6.46,6.46,0,0,0,.18-.71c0-.09,0-.17,0-.26a6.54,6.54,0,1,0-12.92,0c0,.09,0,.18,0,.26a6.69,6.69,0,0,0,.18.71c0,.07,0,.15.07.22a6.65,6.65,0,0,0,.36.85l.11.18a6.58,6.58,0,0,0,.39.62l.08.13H0Z"/></g></g></svg>