<svg xmlns="http://www.w3.org/2000/svg" viewBox="0 0 78.94 77.97"><defs><style>.cls-1{fill:#9ab9ad;}</style></defs><title>icon-magniman</title><g id="Layer_2" data-name="Layer 2"><g id="Layer_1-2" data-name="Layer 1"><path class="cls-1" d="M27.3,47.06A19.8,19.8,0,1,0,7.48,27.29,19.87,19.87,0,0,0,27.3,47.06M27.3,0A27.26,27.26,0,1,1,0,27.21,27.19,27.19,0,0,1,27.3,0"/><path class="cls-1" d="M42.8,52.32A27.77,27.77,0,0,0,53.09,41.64l.43.4L76.74,65.25A7.42,7.42,0,0,1,66.36,75.86C61.13,70.71,56,65.5,50.78,60.32L43.2,52.74l-.39-.41"/><path class="cls-1" d="M31.4,30.1c.89.47,1.71.94,2.56,1.34,1.88.88,3.78,1.73,5.67,2.59a6.17,6.17,0,0,1,2.4,1.9.6.6,0,0,1,0,.83,16.8,16.8,0,0,1-12.83,7.93c-7.09.7-12.69-2-16.71-7.89a.65.65,0,0,1,0-.91,5.89,5.89,0,0,1,2.11-1.72c1.92-.88,3.85-1.74,5.76-2.63.91-.43,1.79-.93,2.73-1.42a8.62,8.62,0,0,1-1.83-3.48,1.39,1.39,0,0,0-.31-.44A6.55,6.55,0,0,1,19.3,20.9a.86.86,0,0,1,.52-.78c.1,0,.17-.29.17-.45,0-1.21,0-2.44.11-3.64a6.17,6.17,0,0,1,5.77-5.65,10.26,10.26,0,0,1,4.3.32,6.23,6.23,0,0,1,4.38,6c0,1,0,2,0,3,0,.15.17.29.25.44a2.67,2.67,0,0,1,.42.79,6.55,6.55,0,0,1-1.71,5.24,2.22,2.22,0,0,0-.4.72A8.65,8.65,0,0,1,31.4,30.1"/></g></g></svg>