<?xml version="1.0" encoding="utf-8"?>
<!-- Generator: Adobe Illustrator 21.0.2, SVG Export Plug-In . SVG Version: 6.00 Build 0)  -->
<svg version="1.1" id="Layer_1" xmlns="http://www.w3.org/2000/svg" xmlns:xlink="http://www.w3.org/1999/xlink" x="0px" y="0px"
	 viewBox="0 0 73.2 73.2" style="enable-background:new 0 0 73.2 73.2;" xml:space="preserve">
<style type="text/css">
	.st0{display:none;fill:#9AB9AD;}
	.st1{fill:#FFFFFF;}
</style>
<rect x="-203" y="-120.2" class="st0" width="841.9" height="297.6"/>
<g>
	<path class="st1" d="M11.4,18.3c-1.3,0-2.3,1-2.3,2.3v2.3H2.3c-1.3,0-2.3,1-2.3,2.3v13.7c0,1.3,1,2.3,2.3,2.3h6.9v2.3
		c0,1.3,1,2.3,2.3,2.3h1.4L22,70.3c0.6,1.5,1.8,2.5,3.4,2.8c0.3,0.1,0.6,0.1,0.9,0.1c1.2,0,2.4-0.5,3.2-1.4l5.5-5.5
		c1.4-1.4,1.7-3.6,0.8-5.3l-7.7-15.4h6.1c0.8,0,1.6,0.2,2.3,0.2V18.1c-0.8,0.1-1.6,0.2-2.4,0.2H11.4z"/>
	<path class="st1" d="M72.9,1.1c0-0.1-0.1-0.1-0.1-0.2c-0.3-0.3-0.6-0.6-1-0.7c0,0,0,0,0,0c0,0-0.1,0-0.1,0C71.4,0.1,71.2,0,71,0
		c-0.2,0-0.3,0.1-0.4,0.1c-0.1,0-0.2,0-0.3,0.1c-0.4,0.1-0.7,0.3-1,0.7c0,0,0,0-0.1,0c-7.1,8.7-17.1,14.5-28,16.6v29.3
		c10.9,2.1,20.9,7.9,28,16.6c0,0,0,0,0.1,0.1c0.2,0.2,0.4,0.3,0.6,0.4c0.1,0,0.1,0.1,0.2,0.1c0.3,0.1,0.6,0.2,0.9,0.2
		c0.3,0,0.5,0,0.8-0.1c0,0,0,0,0,0c0.4-0.2,0.7-0.4,1-0.7c0.1-0.1,0.1-0.1,0.1-0.2c0.2-0.4,0.4-0.7,0.4-1.2V2.3
		C73.2,1.8,73.1,1.5,72.9,1.1"/>
</g>
</svg>
