<svg xmlns="http://www.w3.org/2000/svg" viewBox="0 0 67.74 67.74"><defs><style>.cls-1{fill:#9ab9ad;}</style></defs><title>icon-infinity</title><g id="Layer_2" data-name="Layer 2"><g id="Layer_1-2" data-name="Layer 1"><path class="cls-1" d="M56.38,19.63A8.42,8.42,0,0,1,48,27.9l-8.32.16.18-8.43a8.45,8.45,0,0,1,8.27-8.27,8.27,8.27,0,0,1,8.27,8.27M27.9,48.11a8.45,8.45,0,0,1-8.27,8.27,8.27,8.27,0,1,1,.12-16.54l8.34-.17ZM34.24,5.74A19.51,19.51,0,0,0,28.48,19.5l-.17,8.8-8.68.18A19.63,19.63,0,1,0,33.52,62a19.41,19.41,0,0,0,5.76-13.76l.17-8.77,8.66-.19A19.63,19.63,0,0,0,67.74,19.63,19.63,19.63,0,0,0,34.24,5.74"/></g></g></svg>