<svg xmlns="http://www.w3.org/2000/svg" viewBox="0 0 77.87 77.88"><defs><style>.cls-1{fill:#9ab9ad;}</style></defs><title>icon-crosshair</title><g id="Layer_2" data-name="Layer 2"><g id="Layer_1-2" data-name="Layer 1"><path class="cls-1" d="M66.08,43.86h6.54a33.33,33.33,0,0,1-7.68,17A33.87,33.87,0,0,1,43.86,72.67V66.12A27.8,27.8,0,0,0,66.08,43.86"/><path class="cls-1" d="M11.67,34H5.22A34.18,34.18,0,0,1,34,5.24V11.7C22,14.57,14.55,22,11.67,34"/><path class="cls-1" d="M5.29,43.87h6.4C14.56,55.88,21.94,63.3,34,66.2v6.37C20,70.95,7.19,58.92,5.29,43.87"/><path class="cls-1" d="M72.65,34H66.19C63.31,22,55.88,14.57,43.81,11.69c0-1.88,0-3.8,0-5.73,0-.21,0-.41.05-.72A34.2,34.2,0,0,1,72.65,34"/><path class="cls-1" d="M43.82,20.18a19.17,19.17,0,0,1,13.9,13.87c-2.18,0-4.34,0-6.5,0-.16,0-.39-.23-.48-.41a13.22,13.22,0,0,0-6.51-6.54.79.79,0,0,1-.4-.57c0-2.08,0-4.17,0-6.33"/><path class="cls-1" d="M20.14,43.83c2.17,0,4.33,0,6.5,0,.17,0,.4.23.48.41a13.24,13.24,0,0,0,6.51,6.55.8.8,0,0,1,.4.57c0,2.08,0,4.17,0,6.25-4.92.14-13-7.84-13.91-13.79"/><path class="cls-1" d="M57.69,43.83a19.16,19.16,0,0,1-13.87,13.9c0-2.18,0-4.34,0-6.5,0-.16.24-.39.42-.48a13.23,13.23,0,0,0,6.51-6.44.88.88,0,0,1,.61-.46c2.08,0,4.17,0,6.32,0"/><path class="cls-1" d="M34,20.23c0,2.11,0,4.22,0,6.33a.72.72,0,0,1-.36.51,13.27,13.27,0,0,0-6.57,6.59.72.72,0,0,1-.5.38c-2.14,0-4.27,0-6.41,0C20.54,28.68,28.73,20.5,34,20.23"/><rect class="cls-1" x="37.38" width="3.11" height="29.15"/><rect class="cls-1" y="37.39" width="29.15" height="3.13"/><rect class="cls-1" x="48.72" y="37.39" width="29.14" height="3.12"/><rect class="cls-1" x="37.39" y="48.71" width="3.1" height="29.17"/><path class="cls-1" d="M43.7,39a4.81,4.81,0,0,1-4.81,4.85A4.88,4.88,0,0,1,39,34.06,4.81,4.81,0,0,1,43.7,39"/></g></g></svg>