<?xml version="1.0" encoding="utf-8"?>
<!-- Generator: Adobe Illustrator 21.0.2, SVG Export Plug-In . SVG Version: 6.00 Build 0)  -->
<svg version="1.1" id="Layer_1" xmlns="http://www.w3.org/2000/svg" xmlns:xlink="http://www.w3.org/1999/xlink" x="0px" y="0px"
	 viewBox="0 0 73.2 73.2" style="enable-background:new 0 0 73.2 73.2;" xml:space="preserve">
<style type="text/css">
	.st0{display:none;fill:#9AB9AD;}
	.st1{fill:#FFFFFF;}
</style>
<rect x="-203" y="-120.2" class="st0" width="841.9" height="297.6"/>
<g>
	<g>
		<path class="st1" d="M36.1,39c4.1-3.4,7.9-6.6,11.9-10c3.4,2.6,6.8,5.1,10.1,7.6c0.3,0.2,0.5,0.8,0.5,1.2c0,7.9,0,15.7,0,23.8
			c-0.6,0.1-1,0.2-1.5,0.1c-11.4-0.5-22.8-0.9-34.2-1.4c-4-0.2-6.7-2.8-6.6-6.5c0.1-3.7,3-6.3,7.1-6.2c4.8,0.1,9.5,0.3,14.3,0.5
			c1.8,0.1,3.5-0.1,4.2-2.1c0.7-2.1-0.5-3.3-2.1-4.4C38.6,40.9,37.5,40,36.1,39"/>
		<path class="st1" d="M39.5,23c-4.7,3.9-9.3,8-14.1,11.7c-1.8,1.4-4.2,1.9-6.2,3c-0.8,0.4-1.6,1.3-1.9,2.1c-1.2,2.9-2.2,6-3.3,9
			c-1.2,3.3-4.2,4.7-7.1,3.6c-2.9-1.1-4.1-4.1-3-7.2c1.5-4.2,3.1-8.4,4.6-12.6c0.8-2.3,2.2-3.8,4.4-4.7c5.4-2.3,10.8-4.7,16.2-7.1
			C33.8,18.5,35.8,19,39.5,23"/>
		<path class="st1" d="M9.3,58.7c-2.5,0.1-4.1-1.3-4-3.1c0.1-1.2,0.3-2.2,2.1-1.8c3.6,0.7,6.6-0.9,7.6-4.4c1.1-3.8,3.4-6.4,6.4-8.8
			C33.4,30.6,45.2,20.6,57,10.6c1.3-1.1,2.7-1.6,4.3-0.7c1.3,0.8,1.9,2.1,1.4,3.5c-0.4,0.9-1.2,1.8-2,2.5
			c-10.4,8.8-20.8,17.5-31.2,26.2c-0.7,0.6-1.5,1.2-2.2,1.8c-1.6,1.5-3.2,2.5-5.7,2.5c-3-0.1-5.9,2.6-6.3,5.7
			c-0.3,2.2-1.5,3.2-2.9,4.3C11.2,57.4,10,58.1,9.3,58.7"/>
	</g>
	<rect x="60.9" y="34.9" class="st1" width="12.4" height="28.9"/>
	<g>
		<path class="st1" d="M3.6,56.4c1.1,1.2,2.1,2.4,3.1,3.6c-3.4,2.5-5.5,3.1-6.7,1.5C1.2,59.8,2.5,58,3.6,56.4"/>
	</g>
</g>
</svg>
