<?xml version="1.0" encoding="utf-8"?>
<!-- Generator: Adobe Illustrator 21.0.2, SVG Export Plug-In . SVG Version: 6.00 Build 0)  -->
<svg version="1.1" id="Layer_1" xmlns="http://www.w3.org/2000/svg" xmlns:xlink="http://www.w3.org/1999/xlink" x="0px" y="0px"
	 viewBox="0 0 73.2 73.2" style="enable-background:new 0 0 73.2 73.2;" xml:space="preserve">
<style type="text/css">
	.st0{display:none;fill:#9AB9AD;}
	.st1{fill:#B6B4DF;}
</style>
<rect x="-203" y="-120.2" class="st0" width="841.9" height="297.6"/>
<g>
	<path class="st1" d="M13.7,59.5V32.3l27.2,27.2L13.7,59.5L13.7,59.5z M73,72.2l-9.7-9.7l-4,4C59,66.8,58.6,67,58.1,67
		c-0.4,0-0.9-0.2-1.2-0.5c-0.7-0.7-0.7-1.8,0-2.4l4-4l-2.6-2.6l0,0l-1.8,1.8c-0.3,0.3-0.8,0.5-1.2,0.5c-0.4,0-0.9-0.2-1.2-0.5
		c-0.7-0.7-0.7-1.8,0-2.4l1.8-1.8l0,0l-2.6-2.6l-1.8,1.8c-0.3,0.3-0.8,0.5-1.2,0.5s-0.9-0.2-1.2-0.5c-0.7-0.7-0.7-1.8,0-2.4l1.8-1.8
		l-2.6-2.6c0,0,0,0,0,0l-1.8,1.8c-0.3,0.3-0.8,0.5-1.2,0.5c-0.4,0-0.9-0.2-1.2-0.5c-0.7-0.7-0.7-1.8,0-2.4l1.8-1.8c0,0,0,0,0,0
		l-2.6-2.6l-1.8,1.8c-0.3,0.3-0.8,0.5-1.2,0.5c-0.4,0-0.9-0.2-1.2-0.5c-0.7-0.7-0.7-1.8,0-2.4l1.8-1.8l-2.6-2.6l-4,4
		c-0.3,0.3-0.8,0.5-1.2,0.5c-0.4,0-0.9-0.2-1.2-0.5c-0.7-0.7-0.7-1.8,0-2.4l4-4l-2.6-2.6l0,0l-1.8,1.8c-0.3,0.3-0.8,0.5-1.2,0.5
		c-0.4,0-0.9-0.2-1.2-0.5c-0.7-0.7-0.7-1.8,0-2.4l1.8-1.8c0,0,0,0,0,0l-2.6-2.6l-1.8,1.8c-0.3,0.3-0.8,0.5-1.2,0.5
		c-0.4,0-0.9-0.2-1.2-0.5c-0.7-0.7-0.7-1.8,0-2.4l1.8-1.8l-2.6-2.6c0,0,0,0,0,0l-1.8,1.8c-0.3,0.3-0.8,0.5-1.2,0.5
		c-0.4,0-0.9-0.2-1.2-0.5c-0.7-0.7-0.7-1.8,0-2.4l1.8-1.8c0,0,0,0,0,0l-2.6-2.6l-1.8,1.8c-0.3,0.3-0.8,0.5-1.2,0.5
		c-0.4,0-0.9-0.2-1.2-0.5c-0.7-0.7-0.7-1.8,0-2.4l1.8-1.8l-2.6-2.6l-4,4c-0.3,0.3-0.8,0.5-1.2,0.5c-0.4,0-0.9-0.2-1.2-0.5
		c-0.7-0.7-0.7-1.8,0-2.4l4-4L1,0.2C0.9,0,0.6,0,0.4,0.1C0.2,0.1,0,0.4,0,0.6v72c0,0.3,0.3,0.6,0.6,0.6h72c0.2,0,0.4-0.2,0.5-0.4
		C73.2,72.6,73.2,72.3,73,72.2"/>
</g>
</svg>
