<?xml version="1.0" encoding="utf-8"?>
<!-- Generator: Adobe Illustrator 21.0.2, SVG Export Plug-In . SVG Version: 6.00 Build 0)  -->
<svg version="1.1" id="Layer_1" xmlns="http://www.w3.org/2000/svg" xmlns:xlink="http://www.w3.org/1999/xlink" x="0px" y="0px"
	 viewBox="0 0 73.2 73.2" style="enable-background:new 0 0 73.2 73.2;" xml:space="preserve">
<style type="text/css">
	.st0{display:none;fill:#9AB9AD;}
	.st1{fill:#A4C6D3;}
</style>
<rect x="-203" y="-120.2" class="st0" width="841.9" height="297.6"/>
<g>
	<path class="st1" d="M37.1,63.6c-2,0-3.6,1.6-3.7,3.6c0,2.1,1.6,3.7,3.6,3.7c2,0,3.6-1.6,3.6-3.6C40.7,65.3,39,63.6,37.1,63.6
		 M18.4,61.1h37.1V8.6H18.4V61.1z M60,36.4c0,8.1,0,16.2,0,24.3c0,1.9,0.1,3.9,0.1,5.8c0,4.1-2.7,6.6-6.7,6.6c-10.7,0-21.5,0-32.2,0
		c-4.6,0-7-2.4-7-6.9c0-8.3,0-16.6,0-24.9c0-11.5,0-23,0-34.5c0-1.3,0.2-2.6,0.7-3.8C15.9,0.8,18,0,20.5,0c9.1,0,18.3,0,27.4,0
		c1.9,0,3.9,0,5.8,0C57.5,0.1,60,2.6,60,6.4c0,9.3,0,18.7,0,28C60,35.1,60,35.7,60,36.4C60,36.4,60,36.4,60,36.4"/>
	<path class="st1" d="M25.3,44c1.6,0.9,3.1,1.1,4.7,1.1c0.6,0,1.4,0.2,1.9,0.5c4,2.6,9,2.5,12.7-0.4c3.7-2.8,5.2-7.8,3.6-12.2
		c-1.4-3.8-4.1-6.2-8.2-7c-4.1-0.8-7.6,0.4-10.2,3.6c-2.7,3.2-3.6,6.9-1.9,10.9c0.5,1.1,0.3,1.8-0.8,2.3C26.5,43.1,26,43.5,25.3,44
		 M51,38.1c-0.1,3.1-2,7-6.2,9.6c-4.4,2.7-8.9,2.6-13.4,0.3c-0.7-0.4-1.6-0.5-2.4-0.7c-1.4-0.3-2.8-0.5-4.1-0.9
		c-1-0.3-1.6-1-1.7-2.1c-0.1-1.1,0.4-2,1.4-2.5c0.9-0.4,0.9-1,0.7-1.9c-1.4-5.5,0.8-11.1,5.4-14.2c4.6-3,10.6-2.9,15,0.4
		C49.1,28.7,50.9,32.1,51,38.1"/>
	<path class="st1" d="M35.7,29.7h4v5.1c1.5,0,2.9,0,4.2,0c0.7,0,1.1,0.2,0.9,1c0,0.2,0,0.4,0,0.6c0,2.2,0,2.2-2.2,2.3
		c-0.9,0-1.8,0-2.8,0v5h-4v-5h-5v-3.9h4.9V29.7z"/>
</g>
</svg>
