<?xml version="1.0" encoding="utf-8"?>
<!-- Generator: Adobe Illustrator 21.0.2, SVG Export Plug-In . SVG Version: 6.00 Build 0)  -->
<svg version="1.1" id="Layer_1" xmlns="http://www.w3.org/2000/svg" xmlns:xlink="http://www.w3.org/1999/xlink" x="0px" y="0px"
	 viewBox="0 0 73.2 73.2" style="enable-background:new 0 0 73.2 73.2;" xml:space="preserve">
<style type="text/css">
	.st0{display:none;fill:#9AB9AD;}
	.st1{fill:#FFFFFF;}
</style>
<rect x="-203" y="-120.2" class="st0" width="841.9" height="297.6"/>
<g>
	<path class="st1" d="M40.1,61.8h8.2v6.1h-8.2V61.8z M57.1,61.8h7.8v6.1h-7.8V61.8z M0,71.3h73.1V58.4H0V71.3z"/>
	<polygon class="st1" points="33.6,37.4 29.7,32.5 22.6,32.5 18.6,41.8 12.6,29.5 10.6,32.5 0,32.5 0,52.6 58.4,52.6 58.5,52.7 
		58.5,52.6 73.1,52.6 73.1,32.5 60.2,32.5 57.3,43.2 51.1,32.5 43.9,32.5 40.3,25.4 	"/>
	<polygon class="st1" points="0,1.9 0,26.8 8.4,26.8 13.1,18 17.6,26.8 32.6,26.8 40.6,12.1 46.4,26.8 56.9,26.8 59.2,19.3 
		64.2,26.8 73.1,26.8 73.1,1.9 	"/>
</g>
</svg>
