<?xml version="1.0" encoding="utf-8"?>
<!-- Generator: Adobe Illustrator 21.0.2, SVG Export Plug-In . SVG Version: 6.00 Build 0)  -->
<svg version="1.1" id="Layer_1" xmlns="http://www.w3.org/2000/svg" xmlns:xlink="http://www.w3.org/1999/xlink" x="0px" y="0px"
	 viewBox="0 0 73.2 73.2" style="enable-background:new 0 0 73.2 73.2;" xml:space="preserve">
<style type="text/css">
	.st0{display:none;fill:#9AB9AD;}
	.st1{fill:#EB6852;}
</style>
<rect x="-203" y="-120.2" class="st0" width="841.9" height="297.6"/>
<g>
	<path class="st1" d="M71.8,34.9c0-5.4-3-10-7.3-12.5C61.8,9.9,49.7,0.5,35.3,0.5C20.1,0.5,7.5,11.1,5.8,24.6
		c-2.7,2.6-4.4,6.3-4.4,10.3c0,7.9,6.4,14.3,14.3,14.3c0.6,0,1-0.4,1-1V21.6c0-0.6-0.4-1-1-1c-0.7,0-1.3,0.1-2,0.1
		C17,12.9,25.5,7.3,35.3,7.3c9.9,0,18.4,5.6,21.5,13.4c-0.3,0.2-0.4,0.5-0.4,0.8v26.7c0,0.6,0.4,1,1,1c0.3,0,0.7,0,1,0
		c-2.2,6.9-8.2,12.4-15.9,14.6c-0.9-1.5-2.6-2.5-4.4-2.5h-5.5c-2.9,0-5.2,2.3-5.2,5.2v1c0,2.9,2.3,5.2,5.2,5.2h5.5
		c2.6,0,4.8-1.9,5.2-4.5c10.3-2.7,18.2-10.6,20.2-20.3C68.4,45.7,71.8,40.7,71.8,34.9"/>
</g>
</svg>
