<svg xmlns="http://www.w3.org/2000/svg" viewBox="0 0 75.3 75.3"><defs><style>.cls-1{fill:#fff;}</style></defs><title>icon-gear</title><g id="Layer_2" data-name="Layer 2"><g id="Layer_1-2" data-name="Layer 1"><path class="cls-1" d="M37.65,59.36A21.7,21.7,0,1,1,56.28,48.78l-9.51-9.5A13.31,13.31,0,0,0,31,21.24a1.51,1.51,0,0,0-1,1,1.48,1.48,0,0,0,.42,1.44L36.65,30a1,1,0,0,1,.14.7v.1a30.21,30.21,0,0,1-.72,4.59l-.1.1-.1.11a29.45,29.45,0,0,1-4.66.72h0l-.08,0H31a1,1,0,0,1-.72-.31c-1.63-1.63-6.14-6.11-6.14-6.11a1.52,1.52,0,0,0-1.1-.49,1.49,1.49,0,0,0-1.4,1.13,13.32,13.32,0,0,0,18,15.74l9.61,9.61a21.6,21.6,0,0,1-11.68,3.41M75.06,33.47a2.45,2.45,0,0,0-2.42-1.85A8.31,8.31,0,0,1,67,17.15a2.09,2.09,0,0,0,.23-2.84,37.23,37.23,0,0,0-6-6,2.1,2.1,0,0,0-2.86.23A8.68,8.68,0,0,1,49,10.62a8.36,8.36,0,0,1-5.08-8.17A2.09,2.09,0,0,0,42,.25a37.56,37.56,0,0,0-8.47,0A2.1,2.1,0,0,0,31.7,2.38a8.38,8.38,0,0,1-5.15,8,8.71,8.71,0,0,1-9.32-2.12,2.1,2.1,0,0,0-2.84-.24,37.46,37.46,0,0,0-6.09,6,2.1,2.1,0,0,0,.23,2.86,8.34,8.34,0,0,1,2.1,9.39,8.7,8.7,0,0,1-8.19,5.09A2,2,0,0,0,.25,33.27a37.75,37.75,0,0,0,0,8.56A2.49,2.49,0,0,0,2.7,43.68a8.25,8.25,0,0,1,7.75,5.16,8.37,8.37,0,0,1-2.1,9.31A2.09,2.09,0,0,0,8.12,61a37.35,37.35,0,0,0,6,6,2.09,2.09,0,0,0,2.86-.23,8.67,8.67,0,0,1,9.39-2.11,8.35,8.35,0,0,1,5.09,8.17A2.09,2.09,0,0,0,33.27,75a37.68,37.68,0,0,0,8.47,0,2.1,2.1,0,0,0,1.86-2.16,8.37,8.37,0,0,1,5.15-8A8.69,8.69,0,0,1,58.08,67a2.1,2.1,0,0,0,2.84.24,37.46,37.46,0,0,0,6.09-6,2.09,2.09,0,0,0-.22-2.86A8.34,8.34,0,0,1,64.67,49a8.43,8.43,0,0,1,7.7-5.1h.47A2.1,2.1,0,0,0,75,42a37.53,37.53,0,0,0,0-8.56"/></g></g></svg>