<?xml version="1.0" encoding="utf-8"?>
<!-- Generator: Adobe Illustrator 21.0.2, SVG Export Plug-In . SVG Version: 6.00 Build 0)  -->
<svg version="1.1" id="Layer_1" xmlns="http://www.w3.org/2000/svg" xmlns:xlink="http://www.w3.org/1999/xlink" x="0px" y="0px"
	 viewBox="0 0 73.2 73.2" style="enable-background:new 0 0 73.2 73.2;" xml:space="preserve">
<style type="text/css">
	.st0{display:none;fill:#9AB9AD;}
	.st1{fill:#FFFFFF;}
</style>
<rect x="-203" y="-120.2" class="st0" width="841.9" height="297.6"/>
<g>
	<path class="st1" d="M42,62H31.1v-2.9H42V62z M73.2,56.5c-0.1-0.1-0.2-0.1-0.3-0.1H0.2c-0.1,0-0.2,0.1-0.3,0.1
		c-0.1,0.1-0.1,0.2-0.1,0.3c0,0.1,1.1,7.9,9.6,7.9h54.2c8.5,0,9.6-7.8,9.6-7.9C73.3,56.7,73.2,56.6,73.2,56.5"/>
	<path class="st1" d="M11.5,14.9h50v32.3h-50V14.9z M7.7,53.3h57.6c0.8,0,1.5-0.8,1.5-1.8v-41c0-1-0.7-1.8-1.5-1.8H7.7
		c-0.8,0-1.5,0.8-1.5,1.8v41C6.2,52.5,6.9,53.3,7.7,53.3"/>
</g>
</svg>
