<?xml version="1.0" encoding="utf-8"?>
<!-- Generator: Adobe Illustrator 21.0.2, SVG Export Plug-In . SVG Version: 6.00 Build 0)  -->
<svg version="1.1" id="Layer_1" xmlns="http://www.w3.org/2000/svg" xmlns:xlink="http://www.w3.org/1999/xlink" x="0px" y="0px"
	 viewBox="0 0 73.2 73.2" style="enable-background:new 0 0 73.2 73.2;" xml:space="preserve">
<style type="text/css">
	.st0{display:none;fill:#9AB9AD;}
	.st1{fill:#FFFFFF;}
</style>
<rect x="-203" y="-120.2" class="st0" width="841.9" height="297.6"/>
<g>
	<path class="st1" d="M40.8,18.3c1.8-1.8,4.8-1.8,6.6,0c1.1,1.1,1.5,2.6,1.3,4c1.8,1.3,3.9,2.4,6.2,3.4c0.8,0.3,1.6,0.6,2.3,0.9
		L57.1,20c0.1,0.1,0.3,0.1,0.4,0.2c3.6,1.5,6.8,3.5,8.8,5.6l0.1,0.1c2,2,2.2,3.3,2,3.7c-0.5,1.2-6,2.3-14.3-1.2
		c-2.4-1-4.7-2.3-6.6-3.7c-0.1,0.1-0.1,0.2-0.2,0.2c-1.8,1.8-4.8,1.8-6.6,0C38.9,23.1,38.9,20.2,40.8,18.3 M19.8,64.2
		c2.2,2.2,5.8,2.2,8,0L55,37c0.8-0.8,1.4-1.7,1.8-2.7c2.7,0.8,5.4,1.2,7.7,1.2c5.8,0,7.7-2.6,8.4-4.1c0.6-1.5,1.1-4.7-3-8.8
		l-0.1-0.1c-2.5-2.5-6.2-4.9-10.4-6.6c-0.8-0.3-1.5-0.6-2.3-0.9v0c0-3.3-2.7-6-6.1-6.1L34.7,8.6c-2.2,0-4.2,0.8-5.8,2.3L1.6,38.2
		c-2.2,2.2-2.2,5.8,0,8L19.8,64.2z"/>
</g>
</svg>
