<svg xmlns="http://www.w3.org/2000/svg" viewBox="0 0 75.3 75.3"><defs><style>.cls-1{fill:#fff;}</style></defs><title>icon-magnify</title><g id="Layer_2" data-name="Layer 2"><g id="Layer_1-2" data-name="Layer 1"><path class="cls-1" d="M73.23,63.25,56,46A33.24,33.24,0,0,1,46,56L63.25,73.23a7.06,7.06,0,1,0,10-10"/><path class="cls-1" d="M28.24,49.41A21.18,21.18,0,1,1,49.41,28.24,21.2,21.2,0,0,1,28.24,49.41M56.47,28.24A28.24,28.24,0,1,0,28.24,56.47,28.24,28.24,0,0,0,56.47,28.24"/><path class="cls-1" d="M11.76,28.24h4.71A11.78,11.78,0,0,1,28.24,16.47V11.76A16.49,16.49,0,0,0,11.76,28.24"/></g></g></svg>