<?xml version="1.0" encoding="utf-8"?>
<!-- Generator: Adobe Illustrator 21.0.2, SVG Export Plug-In . SVG Version: 6.00 Build 0)  -->
<svg version="1.1" id="Layer_1" xmlns="http://www.w3.org/2000/svg" xmlns:xlink="http://www.w3.org/1999/xlink" x="0px" y="0px"
	 viewBox="0 0 73.2 73.2" style="enable-background:new 0 0 73.2 73.2;" xml:space="preserve">
<style type="text/css">
	.st0{display:none;fill:#9AB9AD;}
	.st1{fill:#FFFFFF;}
	.st2{fill:#9AB9AD;}
</style>
<rect x="-203" y="-120.2" class="st0" width="841.9" height="297.6"/>
<g>
	<g>
		<path class="st1" d="M9.3,68.3v4.2H64v-4.2c0-2.3-1.9-4.2-4.2-4.2H13.5C11.1,64.1,9.3,66,9.3,68.3"/>
	</g>
	<polygon class="st1" points="51.4,0.7 51.4,9.3 40.8,9.3 40.8,0.7 32.4,0.7 32.4,9.3 21.9,9.3 21.9,0.7 13.5,0.7 13.5,17.7 
		59.8,17.7 59.8,0.7 	"/>
	<rect x="21.9" y="21.9" class="st1" width="29.5" height="4.2"/>
	<g>
		<path class="st1" d="M21.9,41.7c0,3.4-0.7,6.7-1.9,9.8h33.2c-1.2-3.1-1.9-6.4-1.9-9.8V30.3H21.9V41.7z"/>
		<path class="st1" d="M14.6,59.9h44c-1.2-1.3-2.3-2.7-3.2-4.2H17.9C17,57.2,15.9,58.6,14.6,59.9"/>
	</g>
</g>
</svg>
