<?xml version="1.0" encoding="utf-8"?>
<!-- Generator: Adobe Illustrator 21.0.2, SVG Export Plug-In . SVG Version: 6.00 Build 0)  -->
<svg version="1.1" id="Layer_1" xmlns="http://www.w3.org/2000/svg" xmlns:xlink="http://www.w3.org/1999/xlink" x="0px" y="0px"
	 viewBox="0 0 73.2 73.2" style="enable-background:new 0 0 73.2 73.2;" xml:space="preserve">
<style type="text/css">
	.st0{display:none;fill:#9AB9AD;}
	.st1{fill:#FFFFFF;}
</style>
<rect x="-203" y="-120.2" class="st0" width="841.9" height="297.6"/>
<g>
	<path class="st1" d="M33.1,73.2C51.3,73.2,66,58.5,66,40.3c0-5.6-1.4-10.9-3.9-15.5c-0.3,0-0.5,0.1-0.8,0.1c-0.2,0-0.3,0-0.5,0
		l-4.2-0.3l-3,3c2.3,3.7,3.6,8.1,3.6,12.7c0,13.4-10.8,24.2-24.2,24.2S8.9,53.7,8.9,40.3s10.8-24.2,24.2-24.2c4.7,0,9,1.3,12.7,3.6
		l2.7-2.7l-0.4-4.8c0-0.4,0-0.8,0-1.1c-4.5-2.3-9.7-3.7-15.1-3.7C14.9,7.4,0.2,22.1,0.2,40.3C0.2,58.5,14.9,73.2,33.1,73.2"/>
	<path class="st1" d="M33.1,31.8c0.2,0,0.4,0,0.6,0l6.1-6.1l0.1-0.1c-2.1-1-4.4-1.5-6.9-1.5c-9,0-16.2,7.3-16.2,16.2
		c0,9,7.3,16.2,16.2,16.2s16.2-7.3,16.2-16.2c0-2.5-0.5-4.8-1.5-6.9l-0.1,0.1l-6.1,6.1c0,0.2,0,0.4,0,0.6c0,4.7-3.8,8.5-8.5,8.5
		c-4.7,0-8.5-3.8-8.5-8.5S28.4,31.8,33.1,31.8"/>
	<path class="st1" d="M67,11l2-2c0.9-0.9,0.9-2.3,0-3.2l-1.4-1.4c-0.4-0.4-1-0.7-1.6-0.7S64.9,4,64.4,4.4l-2.2,2.2l-0.5-6
		c0-0.4-0.4-0.7-0.8-0.7c-0.2,0-0.4,0.1-0.5,0.2L51.6,9c-0.8,0.8-1.2,1.9-1.1,3l0,0.3l0.4,5.5l-3.2,3.2L42,26.8l-0.1,0.1l-5.5,5.5
		l-2.5,2.5c-0.3,0.3-0.5,0.8-0.6,1.2l-0.2,1.9c-0.1,1.1,0.8,2.1,1.9,2.1h0.1l2-0.1c0.5,0,0.9-0.2,1.3-0.6l17.3-17.3l5,0.4l0.2,0
		c0.1,0,0.2,0,0.3,0c1,0,2-0.4,2.7-1.1l8.8-8.8c0.5-0.5,0.2-1.3-0.5-1.3L67,11z"/>
</g>
</svg>
