<?xml version="1.0" encoding="utf-8"?>
<!-- Generator: Adobe Illustrator 21.0.2, SVG Export Plug-In . SVG Version: 6.00 Build 0)  -->
<svg version="1.1" id="Layer_1" xmlns="http://www.w3.org/2000/svg" xmlns:xlink="http://www.w3.org/1999/xlink" x="0px" y="0px"
	 viewBox="0 0 73.2 73.2" style="enable-background:new 0 0 73.2 73.2;" xml:space="preserve">
<style type="text/css">
	.st0{display:none;fill:#9AB9AD;}
	.st1{fill:#FFFFFF;}
</style>
<rect x="-203" y="-120.2" class="st0" width="841.9" height="297.6"/>
<g>
	<path class="st1" d="M49.5,16.1c-0.2-0.2-0.4-0.3-0.6-0.4l-14-4.4c-5.6-1.8-9.2,1.3-10.2,2.3c-0.6,0.6-1,1.2-1.2,1.7l-6.2,14.7
		c-0.4,0.8-0.2,2,0.3,3.1c0.8,1.6,2.3,2.7,4,3.2c1.9,0.5,3.9-0.2,5.5-1.7c0.4-0.4,0.8-0.9,1-1.2l2.1-3.9c0.3-0.6,0.8-1.3,1.4-1.8
		c1.8-1.8,2.7-1,3-0.6c3.1,3,19.6,19.5,19.6,19.5c0.6,0.6,0.5,1.7-0.3,2.4c-0.7,0.7-1.8,0.9-2.4,0.3l-4.6-4.6
		c-0.6-0.6-1.6-0.6-2.1,0c-0.6,0.6-0.6,1.6,0,2.1l4.6,4.6c0.6,0.6,0.5,1.7-0.3,2.4c-0.7,0.7-1.8,0.9-2.4,0.3l-4.6-4.6
		c-0.6-0.6-1.6-0.6-2.1,0c-0.6,0.6-0.6,1.6,0,2.2l4.6,4.6c0.6,0.6,0.5,1.7-0.3,2.4c-0.7,0.7-1.8,0.9-2.4,0.3L37,54.1
		c-0.6-0.6-1.6-0.6-2.1,0c-0.6,0.6-0.6,1.6,0,2.1l4.6,4.6c0.6,0.6,0.5,1.7-0.3,2.4c-0.7,0.7-1.8,0.9-2.4,0.3L31.2,58
		c0.8-1.2,0.6-3-0.6-4.2c-1.3-1.3-3.4-1.5-4.6-0.3c1.2-1.2,1.1-3.2-0.3-4.6c-1.3-1.3-3.4-1.5-4.6-0.3c1.2-1.2,1.1-3.2-0.3-4.6
		c-1.3-1.3-3.4-1.5-4.6-0.3c1.2-1.2,1.1-3.2-0.3-4.6c-1.2-1.2-3.1-1.4-4.3-0.5l-9.1-9.1c-0.6-0.6-1.6-0.6-2.2,0
		c-0.6,0.6-0.6,1.6,0,2.2l9.1,9.1l-2.7,2.7c-1.2,1.2-1.1,3.2,0.3,4.6c1.3,1.3,3.4,1.5,4.6,0.3c-1.2,1.2-1.1,3.2,0.3,4.6
		c1.3,1.3,3.4,1.5,4.6,0.3c-1.2,1.2-1.1,3.2,0.3,4.6c1.3,1.3,3.4,1.5,4.6,0.3c-1.2,1.2-1.1,3.2,0.3,4.6c1.3,1.3,3.4,1.5,4.6,0.3
		l2.8-2.8l5.6,5.6c1.8,1.8,4.8,1.7,6.7-0.3c0.9-0.9,1.4-2.1,1.5-3.3c1.2-0.1,2.4-0.6,3.3-1.5c0.9-0.9,1.4-2.1,1.5-3.3
		c1.2-0.1,2.4-0.6,3.3-1.5c0.9-0.9,1.4-2.1,1.5-3.3c1.2-0.1,2.4-0.6,3.3-1.5c1.9-1.9,2-4.9,0.3-6.7l-2.4-2.4l9.7-9.7
		c0.6-0.6,0.6-1.6,0-2.1L49.5,16.1z"/>
	<path class="st1" d="M65.9,25.7c-1.4,0-2.5-1.1-2.5-2.5c0-1.4,1.1-2.5,2.5-2.5c1.4,0,2.5,1.1,2.5,2.5
		C68.4,24.6,67.3,25.7,65.9,25.7 M72.4,19.5L60.1,7.1c-1.2-1.2-3.1-1.2-4.3,0l-4.3,4.3c-1.2,1.2-1.2,3.1,0,4.3l12.3,12.3
		c1.2,1.2,3.1,1.2,4.3,0l4.3-4.3C73.6,22.6,73.6,20.6,72.4,19.5"/>
</g>
</svg>
