<?xml version="1.0" encoding="utf-8"?>
<!-- Generator: Adobe Illustrator 21.0.2, SVG Export Plug-In . SVG Version: 6.00 Build 0)  -->
<svg version="1.1" id="Layer_1" xmlns="http://www.w3.org/2000/svg" xmlns:xlink="http://www.w3.org/1999/xlink" x="0px" y="0px"
	 viewBox="0 0 73.2 73.2" style="enable-background:new 0 0 73.2 73.2;" xml:space="preserve">
<style type="text/css">
	.st0{display:none;fill:#9AB9AD;}
	.st1{fill:#FFFFFF;}
</style>
<rect x="-203" y="-120.2" class="st0" width="841.9" height="297.6"/>
<g>
	<path class="st1" d="M43.2,47.1c4.4-1.9,7.9-4.4,10.5-7.6c2.6-3.2,3.8-6.7,3.8-10.5c0-3.8-1.3-7.3-3.8-10.5
		c-2.6-3.2-6.1-5.8-10.5-7.6C38.8,8.9,34,8,28.8,8s-10,0.9-14.5,2.8c-4.4,1.9-7.9,4.4-10.5,7.6C1.3,21.6,0,25.1,0,28.9
		c0,3.2,1,6.3,2.9,9.2c1.9,2.9,4.6,5.3,8,7.2c-0.3,0.7-0.6,1.3-0.8,1.8c-0.3,0.5-0.6,1.1-1,1.6c-0.4,0.5-0.7,0.9-0.9,1.2
		c-0.2,0.3-0.6,0.7-1.1,1.2c-0.5,0.5-0.8,0.9-0.9,1c0,0-0.1,0-0.2,0.2c-0.1,0.1-0.2,0.2-0.2,0.2c0,0-0.1,0.1-0.2,0.2
		c-0.1,0.1-0.1,0.2-0.1,0.2l-0.1,0.2c0,0.1-0.1,0.2-0.1,0.2c0,0.1,0,0.2,0,0.3c0,0.1,0,0.2,0,0.3c0.1,0.4,0.2,0.6,0.5,0.9
		C6,55,6.3,55.1,6.6,55.1h0.1c1.4-0.2,2.5-0.4,3.5-0.7c4.2-1.1,8-2.8,11.4-5.2c2.5,0.4,4.9,0.7,7.2,0.7C34,49.9,38.8,48.9,43.2,47.1
		"/>
	<path class="st1" d="M70.3,48.6c1.9-2.8,2.9-5.9,2.9-9.2c0-3.4-1-6.5-3.1-9.4c-2-2.9-4.8-5.3-8.3-7.3c0.6,2,0.9,4.1,0.9,6.2
		c0,3.7-0.9,7.1-2.7,10.4c-1.8,3.3-4.4,6.2-7.8,8.7c-3.2,2.3-6.8,4-10.8,5.3c-4,1.2-8.2,1.8-12.6,1.8c-0.8,0-2-0.1-3.6-0.2
		c5.5,3.6,11.9,5.4,19.3,5.4c2.3,0,4.7-0.2,7.2-0.7c3.4,2.4,7.2,4.1,11.4,5.2c1,0.2,2.2,0.5,3.5,0.7c0.3,0,0.6-0.1,0.9-0.3
		c0.3-0.2,0.5-0.5,0.5-0.9c0-0.2,0-0.3,0-0.3c0,0,0-0.1,0-0.3c-0.1-0.2-0.1-0.2-0.1-0.2l-0.1-0.2c0-0.1-0.1-0.1-0.1-0.2
		c-0.1-0.1-0.1-0.2-0.2-0.2c0,0-0.1-0.1-0.2-0.2c-0.1-0.1-0.1-0.2-0.2-0.2c-0.1-0.2-0.5-0.5-0.9-1c-0.5-0.5-0.8-0.9-1.1-1.2
		c-0.2-0.3-0.5-0.7-0.9-1.2c-0.4-0.5-0.7-1-1-1.6c-0.3-0.5-0.6-1.1-0.8-1.8C65.8,53.8,68.4,51.4,70.3,48.6"/>
</g>
</svg>
