<?xml version="1.0" encoding="utf-8"?>
<!-- Generator: Adobe Illustrator 21.0.2, SVG Export Plug-In . SVG Version: 6.00 Build 0)  -->
<svg version="1.1" id="Layer_1" xmlns="http://www.w3.org/2000/svg" xmlns:xlink="http://www.w3.org/1999/xlink" x="0px" y="0px"
	 viewBox="0 0 73.2 73.2" style="enable-background:new 0 0 73.2 73.2;" xml:space="preserve">
<style type="text/css">
	.st0{display:none;fill:#9AB9AD;}
	.st1{fill:#FFFFFF;}
</style>
<rect x="-203" y="-120.2" class="st0" width="841.9" height="297.6"/>
<g>
	<path class="st1" d="M39.3,9.2c0-1.5-1.2-2.7-2.7-2.7c-9.4,0-17,7.6-17,17c0,1.5,1.2,2.7,2.7,2.7c1.5,0,2.7-1.2,2.7-2.7
		c0-6.5,5.3-11.7,11.7-11.7C38.1,11.9,39.3,10.7,39.3,9.2 M60.2,23.5c0,6.4-2.5,12.1-6.6,16.4c-3.1,3.2-5.1,7.3-5.8,11.7
		c-0.3,1.9-1.9,3.3-3.9,3.3H29.3c-1.9,0-3.6-1.4-3.8-3.3c-0.7-4.4-2.7-8.6-5.8-11.8c-4-4.2-6.5-9.8-6.6-16.1
		C12.9,10.6,23.4,0,36.5-0.1C49.6-0.2,60.2,10.4,60.2,23.5 M47.5,61.2V64c0,2.2-1.6,4.1-3.8,4.4l-0.7,2.5c-0.4,1.4-1.6,2.3-3.1,2.3
		h-6.8c-1.4,0-2.7-1-3.1-2.3l-0.7-2.5c-2.1-0.3-3.8-2.2-3.8-4.4v-2.8c0-1.5,1.2-2.7,2.7-2.7h16.4C46.3,58.5,47.5,59.7,47.5,61.2"/>
</g>
</svg>
