<?xml version="1.0" encoding="utf-8"?>
<!-- Generator: Adobe Illustrator 21.0.2, SVG Export Plug-In . SVG Version: 6.00 Build 0)  -->
<svg version="1.1" id="Layer_1" xmlns="http://www.w3.org/2000/svg" xmlns:xlink="http://www.w3.org/1999/xlink" x="0px" y="0px"
	 viewBox="0 0 73.2 73.2" style="enable-background:new 0 0 73.2 73.2;" xml:space="preserve">
<style type="text/css">
	.st0{display:none;fill:#9AB9AD;}
	.st1{fill:#EB6852;}
</style>
<rect x="-203" y="-120.2" class="st0" width="841.9" height="297.6"/>
<g>
	<path class="st1" d="M20.9,55.7h3.9l4.2-4.6l3.4,6.7l3.1-2.1h4V60h-2.7l-6.1,4L28,58.6L26.7,60h-5.8V55.7z M13.3,22.3H47v4.3h0
		H13.3V22.3z M22.5,11.7h15.3V16H22.5V11.7z M2.9,0.2v72.9h54.6V38.7l-9.6,12.7l-9.4,1.3l-1.1-7.9h-24v-4.3h25.9l3.7-4.8H13.3v-4.3
		h32.7l11.4-15V0.2H2.9z"/>
	<polygon class="st1" points="58.9,21.6 62.8,24.5 70.3,14.6 66.4,11.7 	"/>
	<polygon class="st1" points="42.1,47.9 45.5,47.4 48.3,43.7 44.4,40.8 41.6,44.5 	"/>
	<polygon class="st1" points="50.9,40.3 47,37.4 56.3,25 60.2,27.9 	"/>
</g>
</svg>
