<?xml version="1.0" encoding="utf-8"?>
<!-- Generator: Adobe Illustrator 21.0.2, SVG Export Plug-In . SVG Version: 6.00 Build 0)  -->
<svg version="1.1" id="Layer_1" xmlns="http://www.w3.org/2000/svg" xmlns:xlink="http://www.w3.org/1999/xlink" x="0px" y="0px"
	 viewBox="0 0 73.2 73.2" style="enable-background:new 0 0 73.2 73.2;" xml:space="preserve">
<style type="text/css">
	.st0{display:none;fill:#9AB9AD;}
	.st1{fill:#FFFFFF;}
</style>
<rect x="-203" y="-120.2" class="st0" width="841.9" height="297.6"/>
<g>
	<g>
		<path class="st1" d="M9.2,61.8c-4.6,0-4.6-4.6-4.6-4.6V11.5h54.9v45.8c0,2.1,0.6,3.6,1.5,4.6H9.2z M64.1,16V6.9H0v50.4
			c0,0,0,9.2,9.2,9.2h57.2c0,0,6.9-0.1,6.9-9.2V16H64.1z"/>
	</g>
	<rect x="9.2" y="20.6" class="st1" width="45.8" height="4.6"/>
	<rect x="34.3" y="48.1" class="st1" width="16" height="4.6"/>
	<rect x="34.3" y="38.9" class="st1" width="20.6" height="4.6"/>
	<rect x="34.3" y="29.8" class="st1" width="20.6" height="4.6"/>
	<rect x="9.2" y="29.8" class="st1" width="20.6" height="22.9"/>
</g>
</svg>
