<?xml version="1.0" encoding="utf-8"?>
<!-- Generator: Adobe Illustrator 21.0.2, SVG Export Plug-In . SVG Version: 6.00 Build 0)  -->
<svg version="1.1" id="Layer_1" xmlns="http://www.w3.org/2000/svg" xmlns:xlink="http://www.w3.org/1999/xlink" x="0px" y="0px"
	 viewBox="0 0 73.2 73.2" style="enable-background:new 0 0 73.2 73.2;" xml:space="preserve">
<style type="text/css">
	.st0{display:none;fill:#9AB9AD;}
	.st1{fill:#B6B4DF;}
</style>
<rect x="-203" y="-120.2" class="st0" width="841.9" height="297.6"/>
<g>
	<path class="st1" d="M66.6,20H53.3V6.7h13.3V20z M53.4,34c0.3,0.6,0.9,0.9,1.5,0.9h3.3v11.8c-5.9,0.7-10.6,5.4-11.5,11.2L41,53.6
		c-0.5-0.4-1.2-0.4-1.7-0.2c-0.6,0.3-0.9,0.9-0.9,1.5v3.3H26.5c-0.8-6-5.5-10.8-11.6-11.5c0,0,0-0.1,0-0.1v0l5-4.7
		c0.5-0.4,0.6-1.1,0.5-1.7c-0.2-0.6-0.7-1-1.3-1.2l-3.1-0.5C19.7,25,32,15,46.6,15v8.3c0,1.8,1.5,3.3,3.3,3.3h7.9l-4.2,5.7
		C53.2,32.8,53.2,33.5,53.4,34 M66.6,59.9c0,3.7-3,6.7-6.7,6.7c-3.7,0-6.7-3-6.7-6.7c0-3.7,3-6.7,6.7-6.7
		C63.6,53.3,66.6,56.3,66.6,59.9 M13.3,66.6c-3.7,0-6.7-3-6.7-6.7c0-3.7,3-6.7,6.7-6.7c3.7,0,6.7,3,6.7,6.7
		C20,63.6,17,66.6,13.3,66.6 M73.2,23.3v-20c0-1.8-1.5-3.3-3.3-3.3h-20c-1.8,0-3.3,1.5-3.3,3.3v8.3c-16.3,0-29.9,11.2-33.8,26.2
		l-3.5-0.6c-0.6-0.1-1.3,0.1-1.6,0.6c-0.4,0.5-0.4,1.2-0.2,1.7l3.6,7.1C4.8,47.8,0,53.3,0,59.9c0,7.3,6,13.3,13.3,13.3
		c6.8,0,12.4-5.1,13.2-11.7h11.8v3.3c0,0.6,0.4,1.2,0.9,1.5c0.6,0.3,1.2,0.2,1.7-0.2l5.8-4.4c1,6.4,6.5,11.4,13.1,11.4
		c7.3,0,13.3-6,13.3-13.3c0-6.8-5.1-12.4-11.7-13.2V35h3.3c0.6,0,1.2-0.4,1.5-0.9c0.3-0.6,0.2-1.2-0.2-1.7L62,26.6h7.9
		C71.8,26.6,73.2,25.1,73.2,23.3"/>
</g>
</svg>
