<?xml version="1.0" encoding="utf-8"?>
<!-- Generator: Adobe Illustrator 21.0.2, SVG Export Plug-In . SVG Version: 6.00 Build 0)  -->
<svg version="1.1" id="Layer_1" xmlns="http://www.w3.org/2000/svg" xmlns:xlink="http://www.w3.org/1999/xlink" x="0px" y="0px"
	 viewBox="0 0 73.2 73.2" style="enable-background:new 0 0 73.2 73.2;" xml:space="preserve">
<style type="text/css">
	.st0{display:none;fill:#9AB9AD;}
	.st1{fill:#EB6852;}
</style>
<rect x="-203" y="-120.2" class="st0" width="841.9" height="297.6"/>
<g>
	<g>
		<path class="st1" d="M27.4,24.9L23,20.7c0.5-0.9,0.8-2,0.8-3.1c0-3.6-2.9-6.6-6.6-6.6c-3.6,0-6.6,2.9-6.6,6.6
			c0,3.6,2.9,6.6,6.6,6.6c1.3,0,2.5-0.4,3.5-1l4.4,4.2C25.9,26.4,26.6,25.6,27.4,24.9"/>
		<path class="st1" d="M46.1,24.4l5.9-9.9c0.6,0.2,1.2,0.3,1.8,0.3c3.6,0,6.6-2.9,6.6-6.6c0-3.6-2.9-6.6-6.6-6.6
			c-3.6,0-6.6,2.9-6.6,6.6c0,1.8,0.7,3.4,1.9,4.6l-5.9,9.9C44.3,23.2,45.3,23.7,46.1,24.4"/>
		<path class="st1" d="M66.4,32.7c-2.8,0-5.2,1.8-6.1,4.3l-8.2-0.8c0,0.1,0,0.1,0,0.2c0,1.1-0.1,2.1-0.3,3.1l8.2,0.8
			c0.5,3.1,3.2,5.5,6.5,5.5c3.6,0,6.6-2.9,6.6-6.6C73,35.6,70,32.7,66.4,32.7"/>
		<path class="st1" d="M43.9,58.5l-1.8-8c-1,0.4-2.1,0.6-3.2,0.7l1.8,8c-2.1,1.1-3.5,3.3-3.5,5.8c0,3.6,2.9,6.6,6.6,6.6
			c3.6,0,6.6-2.9,6.6-6.6C50.2,61.4,47.4,58.6,43.9,58.5"/>
		<path class="st1" d="M22.5,39.5l-10.2,3.4c-1.2-1.8-3.2-3-5.5-3c-3.6,0-6.6,2.9-6.6,6.6c0,3.6,2.9,6.6,6.6,6.6s6.6-2.9,6.6-6.6
			c0-0.2,0-0.3,0-0.4l10.2-3.4C23.1,41.6,22.7,40.6,22.5,39.5"/>
		<path class="st1" d="M48.4,36.3c0,6.2-5,11.2-11.2,11.2c-6.2,0-11.2-5-11.2-11.2c0-6.2,5-11.2,11.2-11.2
			C43.3,25.1,48.4,30.1,48.4,36.3"/>
	</g>
</g>
</svg>
