<?xml version="1.0" encoding="utf-8"?>
<!-- Generator: Adobe Illustrator 21.0.2, SVG Export Plug-In . SVG Version: 6.00 Build 0)  -->
<svg version="1.1" id="Layer_1" xmlns="http://www.w3.org/2000/svg" xmlns:xlink="http://www.w3.org/1999/xlink" x="0px" y="0px"
	 viewBox="0 0 73.2 73.2" style="enable-background:new 0 0 73.2 73.2;" xml:space="preserve">
<style type="text/css">
	.st0{display:none;fill:#9AB9AD;}
	.st1{fill:#FFFFFF;}
</style>
<rect x="-203" y="-120.2" class="st0" width="841.9" height="297.6"/>
<g>
	<path class="st1" d="M70.7,21.3H60.6V9.9h10.1V21.3z M70.7,35.2H60.6V23.8h10.1V35.2z M70.7,49H60.6V37.7h10.1V49z M70.7,62.9H60.6
		V51.6h10.1V62.9z M46.1,37.5l-13.9,8.8c-0.2,0.1-0.4,0.2-0.7,0.2c-0.2,0-0.4-0.1-0.6-0.2c-0.4-0.2-0.7-0.6-0.7-1.1V27.6
		c0-0.5,0.3-0.9,0.7-1.1c0.4-0.2,0.9-0.2,1.3,0l13.9,8.8c0.4,0.2,0.6,0.6,0.6,1.1C46.7,36.8,46.5,37.3,46.1,37.5 M12.6,21.3H2.5V9.9
		h10.1V21.3z M12.6,35.2H2.5V23.8h10.1V35.2z M12.6,49H2.5V37.7h10.1V49z M12.6,62.9H2.5V51.6h10.1V62.9z M72,7.4H1.3
		C0.6,7.4,0,7.9,0,8.6v55.6c0,0.7,0.6,1.3,1.3,1.3H72c0.7,0,1.3-0.6,1.3-1.3V8.6C73.2,7.9,72.7,7.4,72,7.4"/>
</g>
</svg>
