<?xml version="1.0" encoding="utf-8"?>
<!-- Generator: Adobe Illustrator 21.0.2, SVG Export Plug-In . SVG Version: 6.00 Build 0)  -->
<svg version="1.1" id="Layer_1" xmlns="http://www.w3.org/2000/svg" xmlns:xlink="http://www.w3.org/1999/xlink" x="0px" y="0px"
	 viewBox="0 0 73.2 73.2" style="enable-background:new 0 0 73.2 73.2;" xml:space="preserve">
<style type="text/css">
	.st0{display:none;fill:#9AB9AD;}
	.st1{fill:#FFFFFF;}
</style>
<rect x="-203" y="-120.2" class="st0" width="841.9" height="297.6"/>
<g>
	<path class="st1" d="M27.9,23.2c0.8,0,1.5,0,2.2,0.1l-6.8,6.8c-0.1-0.7-0.1-1.5-0.1-2.2c0-1.5,0.1-2.9,0.4-4.3
		C25,23.3,26.4,23.2,27.9,23.2 M45.4,50.1c-0.6,0-1.1,0-1.7-0.1l6.3-6.3c0,0.6,0.1,1.1,0.1,1.7c0,1.5-0.1,2.9-0.4,4.3
		C48.2,49.9,46.8,50.1,45.4,50.1 M48.5,37.1L37.1,48.5c-1.8-0.7-3.5-1.7-5.1-2.9L45.6,32C46.8,33.6,47.7,35.3,48.5,37.1 M41.6,27.9
		L27.9,41.6c-1.2-1.5-2.2-3.2-3-5.1l11.6-11.6C38.4,25.7,40.1,26.7,41.6,27.9 M27.9,67.5c-12.2,0-22.2-9.9-22.2-22.2
		c0-8.5,4.8-15.9,11.8-19.6c-0.1,0.7-0.1,1.4-0.1,2.1c0,15.4,12.5,27.9,27.9,27.9c0.7,0,1.4,0,2.1-0.1
		C43.8,62.7,36.4,67.5,27.9,67.5 M45.4,0C33.1,0,22.7,7.9,18.9,18.9C7.9,22.7,0,33.1,0,45.4c0,15.4,12.5,27.9,27.9,27.9
		c12.2,0,22.7-7.9,26.4-18.9c1.3-0.5,2.6-1,3.9-1.7c3.8-2,7.2-4.9,9.7-8.3c0.9-1.3,0.7-3.1-0.6-4c-1.3-0.9-3.1-0.7-4,0.6
		c-2,2.8-4.6,5-7.6,6.5c0.1-0.7,0.1-1.4,0.1-2.1c0-15.4-12.5-27.9-27.9-27.9c-0.7,0-1.4,0-2.1,0.1c3.7-7,11.1-11.8,19.6-11.8
		c12.2,0,22.2,9.9,22.2,22.2c0,1.6,1.3,2.9,2.9,2.9c1.6,0,2.9-1.3,2.9-2.9C73.2,12.5,60.7,0,45.4,0"/>
</g>
</svg>
