<?xml version="1.0" encoding="utf-8"?>
<!-- Generator: Adobe Illustrator 21.0.2, SVG Export Plug-In . SVG Version: 6.00 Build 0)  -->
<svg version="1.1" id="Layer_1" xmlns="http://www.w3.org/2000/svg" xmlns:xlink="http://www.w3.org/1999/xlink" x="0px" y="0px"
	 viewBox="0 0 73.2 73.2" style="enable-background:new 0 0 73.2 73.2;" xml:space="preserve">
<style type="text/css">
	.st0{display:none;fill:#9AB9AD;}
	.st1{fill:#A4C6D3;}
</style>
<rect x="-203" y="-120.2" class="st0" width="841.9" height="297.6"/>
<g>
	<path class="st1" d="M5,54.2v11.9c0,0.7,0.6,1.3,1.3,1.3h9.2c0.7,0,1.3-0.6,1.3-1.3V45.2l-6.7,6.7C8.7,53.2,6.9,54,5,54.2"/>
	<path class="st1" d="M21.4,45v21c0,0.7,0.6,1.3,1.3,1.3h9.2c0.7,0,1.3-0.6,1.3-1.3V53.7c-2.1,0-4-0.9-5.5-2.3L21.4,45z"/>
	<path class="st1" d="M37.8,52.4v13.7c0,0.7,0.6,1.3,1.3,1.3h9.2c0.7,0,1.3-0.6,1.3-1.3V40.8L39.1,51.3
		C38.7,51.7,38.2,52.1,37.8,52.4"/>
	<path class="st1" d="M65.1,25.3L54.2,36.2v29.9c0,0.7,0.6,1.3,1.3,1.3h9.2c0.7,0,1.3-0.6,1.3-1.3v-40c-0.3-0.3-0.5-0.5-0.7-0.6
		L65.1,25.3z"/>
	<path class="st1" d="M72.6,5.9c-0.4-0.5-1.1-0.7-1.9-0.7h-0.2c-4.3,0.2-8.5,0.4-12.8,0.6c-0.6,0-1.4,0.1-2,0.7
		c-0.2,0.2-0.3,0.4-0.5,0.7c-0.6,1.4,0.3,2.3,0.7,2.7l1.1,1.1c0.7,0.8,1.5,1.5,2.2,2.2L33.4,39L21.8,27.4c-0.7-0.7-1.6-1.1-2.6-1.1
		c-1,0-1.9,0.4-2.6,1.1L1.1,42.8c-1.4,1.4-1.4,3.8,0,5.2l0.7,0.7c0.7,0.7,1.6,1.1,2.6,1.1c1,0,1.9-0.4,2.6-1.1l12.1-12.1l11.6,11.6
		c0.7,0.7,1.6,1.1,2.6,1.1c1,0,1.9-0.4,2.6-1.1l29.1-29.1l3.3,3.3c0.4,0.4,0.9,0.9,1.8,0.9c0.3,0,0.7-0.1,1.1-0.3
		c0.2-0.1,0.5-0.3,0.6-0.5c0.6-0.6,0.8-1.5,0.8-2.1c0.1-2.8,0.3-5.5,0.4-8.3l0.2-4.2C73.3,7,73.1,6.4,72.6,5.9"/>
</g>
</svg>
